G04 EAGLE Gerber RS-274X export*
G75*
%MOMM*%
%FSLAX34Y34*%
%LPD*%
%INBottom Copper*%
%IPPOS*%
%AMOC8*
5,1,8,0,0,1.08239X$1,22.5*%
G01*
%ADD10R,1.508000X1.508000*%
%ADD11C,1.508000*%
%ADD12R,1.500000X0.950000*%
%ADD13C,1.524000*%
%ADD14C,1.905000*%
%ADD15P,2.061953X8X292.500000*%
%ADD16C,0.756400*%
%ADD17C,0.330200*%

G36*
X533680Y10926D02*
X533680Y10926D01*
X533706Y10924D01*
X533853Y10946D01*
X534000Y10963D01*
X534025Y10971D01*
X534051Y10975D01*
X534189Y11030D01*
X534328Y11080D01*
X534350Y11094D01*
X534375Y11104D01*
X534496Y11189D01*
X534621Y11269D01*
X534639Y11288D01*
X534661Y11303D01*
X534760Y11413D01*
X534863Y11520D01*
X534877Y11542D01*
X534894Y11562D01*
X534966Y11692D01*
X535042Y11819D01*
X535050Y11844D01*
X535063Y11867D01*
X535103Y12010D01*
X535148Y12151D01*
X535150Y12177D01*
X535158Y12202D01*
X535177Y12446D01*
X535177Y67176D01*
X535176Y67183D01*
X535177Y67191D01*
X535156Y67357D01*
X535137Y67522D01*
X535135Y67529D01*
X535134Y67537D01*
X535076Y67693D01*
X535020Y67850D01*
X535016Y67857D01*
X535013Y67864D01*
X534922Y68002D01*
X534831Y68143D01*
X534825Y68148D01*
X534821Y68155D01*
X534701Y68269D01*
X534580Y68385D01*
X534574Y68389D01*
X534568Y68394D01*
X534424Y68478D01*
X534281Y68564D01*
X534274Y68566D01*
X534267Y68570D01*
X534108Y68619D01*
X533949Y68670D01*
X533942Y68671D01*
X533935Y68673D01*
X533767Y68685D01*
X533602Y68698D01*
X533594Y68697D01*
X533587Y68698D01*
X533421Y68671D01*
X533257Y68647D01*
X533250Y68644D01*
X533243Y68643D01*
X533089Y68580D01*
X532933Y68518D01*
X532927Y68514D01*
X532920Y68511D01*
X532784Y68414D01*
X532647Y68319D01*
X532642Y68313D01*
X532636Y68309D01*
X532525Y68184D01*
X532414Y68060D01*
X532410Y68054D01*
X532405Y68048D01*
X532282Y67837D01*
X531405Y66016D01*
X523168Y57139D01*
X512681Y51085D01*
X500876Y48390D01*
X488800Y49295D01*
X477528Y53719D01*
X468061Y61269D01*
X461239Y71274D01*
X457670Y82845D01*
X457670Y94955D01*
X461239Y106526D01*
X468061Y116531D01*
X477528Y124081D01*
X488800Y128505D01*
X500876Y129410D01*
X512681Y126715D01*
X523168Y120661D01*
X531405Y111784D01*
X532282Y109963D01*
X532286Y109957D01*
X532288Y109950D01*
X532379Y109808D01*
X532468Y109669D01*
X532473Y109663D01*
X532477Y109657D01*
X532598Y109540D01*
X532716Y109424D01*
X532722Y109420D01*
X532728Y109415D01*
X532871Y109329D01*
X533013Y109242D01*
X533021Y109240D01*
X533027Y109236D01*
X533185Y109185D01*
X533344Y109133D01*
X533352Y109132D01*
X533359Y109130D01*
X533525Y109116D01*
X533691Y109101D01*
X533699Y109102D01*
X533706Y109102D01*
X533871Y109126D01*
X534036Y109150D01*
X534043Y109152D01*
X534051Y109153D01*
X534206Y109215D01*
X534362Y109275D01*
X534368Y109279D01*
X534375Y109282D01*
X534512Y109377D01*
X534650Y109471D01*
X534655Y109477D01*
X534661Y109481D01*
X534773Y109605D01*
X534886Y109728D01*
X534889Y109734D01*
X534894Y109740D01*
X534976Y109887D01*
X535057Y110031D01*
X535059Y110038D01*
X535063Y110045D01*
X535109Y110207D01*
X535155Y110366D01*
X535156Y110373D01*
X535158Y110380D01*
X535177Y110624D01*
X535177Y579374D01*
X535174Y579400D01*
X535176Y579426D01*
X535154Y579573D01*
X535137Y579720D01*
X535129Y579745D01*
X535125Y579771D01*
X535070Y579909D01*
X535020Y580048D01*
X535006Y580070D01*
X534996Y580095D01*
X534911Y580216D01*
X534831Y580341D01*
X534812Y580359D01*
X534797Y580381D01*
X534687Y580480D01*
X534580Y580583D01*
X534558Y580597D01*
X534538Y580614D01*
X534408Y580686D01*
X534281Y580762D01*
X534256Y580770D01*
X534233Y580783D01*
X534090Y580823D01*
X533949Y580868D01*
X533923Y580870D01*
X533898Y580878D01*
X533654Y580897D01*
X185167Y580897D01*
X185067Y580886D01*
X184967Y580884D01*
X184894Y580866D01*
X184821Y580857D01*
X184726Y580824D01*
X184629Y580799D01*
X184563Y580765D01*
X184493Y580740D01*
X184408Y580685D01*
X184319Y580639D01*
X184262Y580591D01*
X184200Y580551D01*
X184130Y580479D01*
X184053Y580414D01*
X184009Y580354D01*
X183958Y580300D01*
X183906Y580214D01*
X183846Y580133D01*
X183817Y580065D01*
X183779Y580001D01*
X183748Y579905D01*
X183708Y579813D01*
X183695Y579740D01*
X183672Y579669D01*
X183664Y579569D01*
X183647Y579470D01*
X183650Y579396D01*
X183644Y579322D01*
X183659Y579222D01*
X183665Y579122D01*
X183685Y579051D01*
X183696Y578977D01*
X183733Y578884D01*
X183761Y578787D01*
X183797Y578722D01*
X183825Y578653D01*
X183882Y578571D01*
X183931Y578483D01*
X183996Y578406D01*
X184024Y578367D01*
X184050Y578343D01*
X184090Y578297D01*
X187167Y575219D01*
X188850Y571158D01*
X188850Y566762D01*
X187167Y562701D01*
X184059Y559593D01*
X179998Y557910D01*
X175602Y557910D01*
X171541Y559593D01*
X168433Y562701D01*
X166750Y566762D01*
X166750Y571158D01*
X168433Y575219D01*
X171510Y578297D01*
X171573Y578375D01*
X171642Y578448D01*
X171681Y578512D01*
X171727Y578570D01*
X171770Y578661D01*
X171821Y578747D01*
X171844Y578818D01*
X171876Y578885D01*
X171897Y578983D01*
X171928Y579079D01*
X171934Y579153D01*
X171949Y579226D01*
X171947Y579326D01*
X171956Y579426D01*
X171944Y579500D01*
X171943Y579574D01*
X171919Y579671D01*
X171904Y579771D01*
X171876Y579840D01*
X171858Y579912D01*
X171812Y580001D01*
X171775Y580095D01*
X171733Y580156D01*
X171699Y580222D01*
X171633Y580298D01*
X171576Y580381D01*
X171521Y580431D01*
X171473Y580487D01*
X171392Y580547D01*
X171317Y580614D01*
X171252Y580650D01*
X171192Y580695D01*
X171100Y580734D01*
X171012Y580783D01*
X170941Y580803D01*
X170872Y580833D01*
X170774Y580850D01*
X170677Y580878D01*
X170577Y580886D01*
X170529Y580894D01*
X170494Y580892D01*
X170433Y580897D01*
X37846Y580897D01*
X37820Y580894D01*
X37794Y580896D01*
X37647Y580874D01*
X37500Y580857D01*
X37475Y580849D01*
X37449Y580845D01*
X37311Y580790D01*
X37172Y580740D01*
X37150Y580726D01*
X37125Y580716D01*
X37004Y580631D01*
X36879Y580551D01*
X36861Y580532D01*
X36839Y580517D01*
X36740Y580407D01*
X36637Y580300D01*
X36623Y580278D01*
X36606Y580258D01*
X36534Y580128D01*
X36458Y580001D01*
X36450Y579976D01*
X36437Y579953D01*
X36397Y579810D01*
X36352Y579669D01*
X36350Y579643D01*
X36342Y579618D01*
X36323Y579374D01*
X36323Y553049D01*
X36337Y552929D01*
X36342Y552807D01*
X36357Y552756D01*
X36363Y552703D01*
X36403Y552589D01*
X36436Y552472D01*
X36462Y552425D01*
X36480Y552375D01*
X36546Y552273D01*
X36604Y552166D01*
X36640Y552127D01*
X36669Y552082D01*
X36756Y551998D01*
X36838Y551907D01*
X36881Y551877D01*
X36920Y551840D01*
X37024Y551777D01*
X37123Y551708D01*
X37173Y551688D01*
X37219Y551661D01*
X37334Y551624D01*
X37447Y551579D01*
X37500Y551571D01*
X37551Y551555D01*
X37672Y551545D01*
X37792Y551527D01*
X37845Y551531D01*
X37898Y551527D01*
X38018Y551545D01*
X38139Y551554D01*
X38190Y551570D01*
X38243Y551578D01*
X38356Y551623D01*
X38471Y551660D01*
X38517Y551687D01*
X38567Y551707D01*
X38666Y551776D01*
X38771Y551838D01*
X38809Y551876D01*
X38853Y551906D01*
X38934Y551996D01*
X39022Y552080D01*
X39051Y552125D01*
X39086Y552165D01*
X39145Y552271D01*
X39211Y552373D01*
X39236Y552436D01*
X39255Y552470D01*
X39267Y552515D01*
X39302Y552600D01*
X39599Y553566D01*
X46421Y563571D01*
X55888Y571121D01*
X67160Y575545D01*
X79236Y576450D01*
X91041Y573755D01*
X101528Y567701D01*
X109765Y558824D01*
X115019Y547914D01*
X116824Y535940D01*
X115019Y523966D01*
X109765Y513056D01*
X101528Y504179D01*
X91041Y498125D01*
X79236Y495430D01*
X67160Y496335D01*
X55888Y500759D01*
X46421Y508309D01*
X39599Y518314D01*
X39302Y519280D01*
X39253Y519391D01*
X39212Y519505D01*
X39183Y519550D01*
X39161Y519599D01*
X39089Y519696D01*
X39023Y519798D01*
X38984Y519835D01*
X38952Y519878D01*
X38860Y519956D01*
X38772Y520040D01*
X38726Y520068D01*
X38686Y520102D01*
X38577Y520157D01*
X38473Y520219D01*
X38422Y520235D01*
X38375Y520260D01*
X38257Y520288D01*
X38141Y520325D01*
X38088Y520330D01*
X38036Y520342D01*
X37915Y520344D01*
X37794Y520353D01*
X37741Y520345D01*
X37688Y520346D01*
X37569Y520320D01*
X37449Y520302D01*
X37399Y520282D01*
X37347Y520270D01*
X37238Y520218D01*
X37125Y520173D01*
X37081Y520142D01*
X37033Y520119D01*
X36939Y520043D01*
X36839Y519974D01*
X36803Y519934D01*
X36762Y519901D01*
X36687Y519805D01*
X36606Y519715D01*
X36580Y519668D01*
X36547Y519626D01*
X36496Y519517D01*
X36437Y519410D01*
X36423Y519359D01*
X36400Y519310D01*
X36375Y519192D01*
X36342Y519075D01*
X36337Y519007D01*
X36329Y518969D01*
X36330Y518923D01*
X36323Y518831D01*
X36323Y106009D01*
X36337Y105889D01*
X36342Y105767D01*
X36357Y105716D01*
X36363Y105663D01*
X36403Y105549D01*
X36436Y105432D01*
X36462Y105385D01*
X36480Y105335D01*
X36546Y105233D01*
X36604Y105126D01*
X36640Y105087D01*
X36669Y105042D01*
X36756Y104958D01*
X36838Y104867D01*
X36881Y104837D01*
X36920Y104800D01*
X37024Y104737D01*
X37123Y104668D01*
X37173Y104648D01*
X37219Y104621D01*
X37334Y104584D01*
X37447Y104539D01*
X37500Y104531D01*
X37551Y104515D01*
X37672Y104505D01*
X37792Y104487D01*
X37845Y104491D01*
X37898Y104487D01*
X38018Y104505D01*
X38139Y104514D01*
X38190Y104530D01*
X38243Y104538D01*
X38356Y104583D01*
X38471Y104620D01*
X38517Y104647D01*
X38567Y104667D01*
X38666Y104736D01*
X38771Y104799D01*
X38809Y104836D01*
X38853Y104866D01*
X38934Y104956D01*
X39022Y105040D01*
X39051Y105085D01*
X39086Y105125D01*
X39145Y105231D01*
X39211Y105333D01*
X39236Y105396D01*
X39255Y105430D01*
X39267Y105475D01*
X39302Y105560D01*
X39599Y106526D01*
X46421Y116531D01*
X55888Y124081D01*
X67160Y128505D01*
X79236Y129410D01*
X91041Y126715D01*
X101528Y120661D01*
X109765Y111784D01*
X115019Y100874D01*
X116824Y88900D01*
X115019Y76926D01*
X109765Y66016D01*
X101528Y57139D01*
X91041Y51085D01*
X79236Y48390D01*
X67160Y49295D01*
X55888Y53719D01*
X46421Y61269D01*
X39599Y71274D01*
X39302Y72240D01*
X39253Y72351D01*
X39212Y72465D01*
X39183Y72510D01*
X39161Y72559D01*
X39089Y72656D01*
X39023Y72758D01*
X38984Y72795D01*
X38952Y72838D01*
X38860Y72916D01*
X38772Y73000D01*
X38726Y73028D01*
X38685Y73062D01*
X38577Y73117D01*
X38473Y73179D01*
X38422Y73195D01*
X38375Y73220D01*
X38257Y73248D01*
X38141Y73285D01*
X38088Y73290D01*
X38036Y73302D01*
X37915Y73304D01*
X37794Y73313D01*
X37741Y73305D01*
X37688Y73306D01*
X37569Y73280D01*
X37449Y73262D01*
X37400Y73242D01*
X37347Y73230D01*
X37238Y73178D01*
X37125Y73133D01*
X37081Y73102D01*
X37033Y73079D01*
X36939Y73003D01*
X36839Y72934D01*
X36803Y72894D01*
X36762Y72861D01*
X36687Y72765D01*
X36606Y72675D01*
X36580Y72629D01*
X36547Y72586D01*
X36496Y72476D01*
X36437Y72370D01*
X36423Y72319D01*
X36400Y72270D01*
X36375Y72152D01*
X36342Y72035D01*
X36337Y71967D01*
X36329Y71929D01*
X36330Y71883D01*
X36323Y71791D01*
X36323Y12446D01*
X36326Y12420D01*
X36324Y12394D01*
X36346Y12247D01*
X36363Y12100D01*
X36371Y12075D01*
X36375Y12049D01*
X36430Y11911D01*
X36480Y11772D01*
X36494Y11750D01*
X36504Y11725D01*
X36589Y11604D01*
X36669Y11479D01*
X36688Y11461D01*
X36703Y11439D01*
X36813Y11340D01*
X36920Y11237D01*
X36942Y11223D01*
X36962Y11206D01*
X37092Y11134D01*
X37219Y11058D01*
X37244Y11050D01*
X37267Y11037D01*
X37410Y10997D01*
X37551Y10952D01*
X37577Y10950D01*
X37602Y10942D01*
X37846Y10923D01*
X533654Y10923D01*
X533680Y10926D01*
G37*
%LPC*%
G36*
X175602Y484250D02*
X175602Y484250D01*
X171541Y485933D01*
X168433Y489041D01*
X166750Y493102D01*
X166750Y497498D01*
X168433Y501559D01*
X171595Y504721D01*
X171601Y504724D01*
X171619Y504740D01*
X171640Y504752D01*
X171751Y504852D01*
X171866Y504950D01*
X171880Y504969D01*
X171898Y504986D01*
X171984Y505109D01*
X172073Y505230D01*
X172083Y505253D01*
X172096Y505272D01*
X172152Y505412D01*
X172211Y505550D01*
X172215Y505574D01*
X172224Y505596D01*
X172246Y505745D01*
X172273Y505893D01*
X172272Y505918D01*
X172275Y505941D01*
X172263Y506091D01*
X172255Y506242D01*
X172248Y506265D01*
X172246Y506289D01*
X172200Y506432D01*
X172158Y506576D01*
X172147Y506597D01*
X172139Y506620D01*
X172062Y506749D01*
X171988Y506881D01*
X171969Y506903D01*
X171960Y506919D01*
X171927Y506953D01*
X171830Y507067D01*
X165734Y513162D01*
X165734Y516129D01*
X177292Y516129D01*
X177318Y516132D01*
X177344Y516130D01*
X177491Y516152D01*
X177638Y516169D01*
X177663Y516177D01*
X177689Y516181D01*
X177796Y516224D01*
X177872Y516203D01*
X178013Y516158D01*
X178039Y516155D01*
X178064Y516148D01*
X178308Y516129D01*
X189866Y516129D01*
X189866Y513162D01*
X183770Y507067D01*
X183677Y506949D01*
X183580Y506834D01*
X183569Y506813D01*
X183554Y506794D01*
X183489Y506658D01*
X183421Y506524D01*
X183415Y506500D01*
X183405Y506479D01*
X183373Y506332D01*
X183337Y506185D01*
X183336Y506161D01*
X183331Y506138D01*
X183334Y505988D01*
X183332Y505837D01*
X183337Y505814D01*
X183337Y505790D01*
X183374Y505643D01*
X183406Y505497D01*
X183417Y505475D01*
X183422Y505452D01*
X183491Y505318D01*
X183556Y505182D01*
X183571Y505163D01*
X183582Y505142D01*
X183680Y505027D01*
X183773Y504909D01*
X183792Y504895D01*
X183808Y504876D01*
X183929Y504787D01*
X183980Y504746D01*
X187167Y501559D01*
X188850Y497498D01*
X188850Y493102D01*
X187167Y489041D01*
X184059Y485933D01*
X179998Y484250D01*
X175602Y484250D01*
G37*
%LPD*%
%LPC*%
G36*
X252181Y542035D02*
X252181Y542035D01*
X248820Y543428D01*
X246248Y546000D01*
X244855Y549361D01*
X244855Y568239D01*
X246248Y571600D01*
X248820Y574172D01*
X252181Y575565D01*
X255819Y575565D01*
X259180Y574172D01*
X261752Y571600D01*
X263145Y568239D01*
X263145Y549361D01*
X261752Y546000D01*
X259180Y543428D01*
X255819Y542035D01*
X252181Y542035D01*
G37*
%LPD*%
%LPC*%
G36*
X480781Y542035D02*
X480781Y542035D01*
X477420Y543428D01*
X474848Y546000D01*
X473455Y549361D01*
X473455Y568239D01*
X474848Y571600D01*
X477420Y574172D01*
X480781Y575565D01*
X484419Y575565D01*
X487780Y574172D01*
X490352Y571600D01*
X491745Y568239D01*
X491745Y549361D01*
X490352Y546000D01*
X487780Y543428D01*
X484419Y542035D01*
X480781Y542035D01*
G37*
%LPD*%
%LPC*%
G36*
X226781Y542035D02*
X226781Y542035D01*
X223420Y543428D01*
X220848Y546000D01*
X219455Y549361D01*
X219455Y568239D01*
X220848Y571600D01*
X223420Y574172D01*
X226781Y575565D01*
X230419Y575565D01*
X233780Y574172D01*
X236352Y571600D01*
X237745Y568239D01*
X237745Y549361D01*
X236352Y546000D01*
X233780Y543428D01*
X230419Y542035D01*
X226781Y542035D01*
G37*
%LPD*%
%LPC*%
G36*
X506181Y542035D02*
X506181Y542035D01*
X502820Y543428D01*
X500248Y546000D01*
X498855Y549361D01*
X498855Y568239D01*
X500248Y571600D01*
X502820Y574172D01*
X506181Y575565D01*
X509819Y575565D01*
X513180Y574172D01*
X515752Y571600D01*
X517145Y568239D01*
X517145Y549361D01*
X515752Y546000D01*
X513180Y543428D01*
X509819Y542035D01*
X506181Y542035D01*
G37*
%LPD*%
%LPC*%
G36*
X455381Y542035D02*
X455381Y542035D01*
X452020Y543428D01*
X449448Y546000D01*
X448055Y549361D01*
X448055Y568239D01*
X449448Y571600D01*
X452020Y574172D01*
X455381Y575565D01*
X459019Y575565D01*
X462380Y574172D01*
X464952Y571600D01*
X466345Y568239D01*
X466345Y549361D01*
X464952Y546000D01*
X462380Y543428D01*
X459019Y542035D01*
X455381Y542035D01*
G37*
%LPD*%
%LPC*%
G36*
X429981Y542035D02*
X429981Y542035D01*
X426620Y543428D01*
X424048Y546000D01*
X422655Y549361D01*
X422655Y568239D01*
X424048Y571600D01*
X426620Y574172D01*
X429981Y575565D01*
X433619Y575565D01*
X436980Y574172D01*
X439552Y571600D01*
X440945Y568239D01*
X440945Y549361D01*
X439552Y546000D01*
X436980Y543428D01*
X433619Y542035D01*
X429981Y542035D01*
G37*
%LPD*%
%LPC*%
G36*
X404581Y542035D02*
X404581Y542035D01*
X401220Y543428D01*
X398648Y546000D01*
X397255Y549361D01*
X397255Y568239D01*
X398648Y571600D01*
X401220Y574172D01*
X404581Y575565D01*
X408219Y575565D01*
X411580Y574172D01*
X414152Y571600D01*
X415545Y568239D01*
X415545Y549361D01*
X414152Y546000D01*
X411580Y543428D01*
X408219Y542035D01*
X404581Y542035D01*
G37*
%LPD*%
%LPC*%
G36*
X379181Y542035D02*
X379181Y542035D01*
X375820Y543428D01*
X373248Y546000D01*
X371855Y549361D01*
X371855Y568239D01*
X373248Y571600D01*
X375820Y574172D01*
X379181Y575565D01*
X382819Y575565D01*
X386180Y574172D01*
X388752Y571600D01*
X390145Y568239D01*
X390145Y549361D01*
X388752Y546000D01*
X386180Y543428D01*
X382819Y542035D01*
X379181Y542035D01*
G37*
%LPD*%
%LPC*%
G36*
X353781Y542035D02*
X353781Y542035D01*
X350420Y543428D01*
X347848Y546000D01*
X346455Y549361D01*
X346455Y568239D01*
X347848Y571600D01*
X350420Y574172D01*
X353781Y575565D01*
X357419Y575565D01*
X360780Y574172D01*
X363352Y571600D01*
X364745Y568239D01*
X364745Y549361D01*
X363352Y546000D01*
X360780Y543428D01*
X357419Y542035D01*
X353781Y542035D01*
G37*
%LPD*%
%LPC*%
G36*
X328381Y542035D02*
X328381Y542035D01*
X325020Y543428D01*
X322448Y546000D01*
X321055Y549361D01*
X321055Y568239D01*
X322448Y571600D01*
X325020Y574172D01*
X328381Y575565D01*
X332019Y575565D01*
X335380Y574172D01*
X337952Y571600D01*
X339345Y568239D01*
X339345Y549361D01*
X337952Y546000D01*
X335380Y543428D01*
X332019Y542035D01*
X328381Y542035D01*
G37*
%LPD*%
%LPC*%
G36*
X302981Y542035D02*
X302981Y542035D01*
X299620Y543428D01*
X297048Y546000D01*
X295655Y549361D01*
X295655Y568239D01*
X297048Y571600D01*
X299620Y574172D01*
X302981Y575565D01*
X306619Y575565D01*
X309980Y574172D01*
X312552Y571600D01*
X313945Y568239D01*
X313945Y549361D01*
X312552Y546000D01*
X309980Y543428D01*
X306619Y542035D01*
X302981Y542035D01*
G37*
%LPD*%
%LPC*%
G36*
X260898Y52775D02*
X260898Y52775D01*
X260005Y53668D01*
X260005Y64432D01*
X260898Y65325D01*
X264331Y65325D01*
X264357Y65328D01*
X264383Y65326D01*
X264530Y65348D01*
X264677Y65365D01*
X264702Y65373D01*
X264728Y65377D01*
X264866Y65432D01*
X265005Y65482D01*
X265027Y65496D01*
X265052Y65506D01*
X265173Y65591D01*
X265298Y65671D01*
X265316Y65690D01*
X265338Y65705D01*
X265437Y65815D01*
X265540Y65922D01*
X265554Y65944D01*
X265571Y65964D01*
X265643Y66094D01*
X265719Y66221D01*
X265727Y66246D01*
X265740Y66269D01*
X265780Y66412D01*
X265825Y66553D01*
X265827Y66579D01*
X265835Y66604D01*
X265854Y66848D01*
X265854Y84150D01*
X265840Y84276D01*
X265833Y84402D01*
X265820Y84448D01*
X265814Y84496D01*
X265772Y84615D01*
X265737Y84737D01*
X265713Y84779D01*
X265697Y84824D01*
X265628Y84930D01*
X265567Y85041D01*
X265527Y85087D01*
X265508Y85117D01*
X265473Y85151D01*
X265408Y85227D01*
X264741Y85894D01*
X263933Y87844D01*
X263933Y89956D01*
X264741Y91906D01*
X266234Y93399D01*
X268184Y94207D01*
X270296Y94207D01*
X272246Y93399D01*
X273739Y91906D01*
X274547Y89956D01*
X274547Y87844D01*
X273739Y85894D01*
X272652Y84807D01*
X272573Y84708D01*
X272489Y84614D01*
X272465Y84572D01*
X272435Y84534D01*
X272381Y84420D01*
X272320Y84309D01*
X272307Y84263D01*
X272286Y84219D01*
X272260Y84096D01*
X272225Y83974D01*
X272220Y83913D01*
X272213Y83878D01*
X272214Y83830D01*
X272206Y83730D01*
X272206Y66848D01*
X272209Y66822D01*
X272207Y66796D01*
X272229Y66649D01*
X272246Y66502D01*
X272254Y66477D01*
X272258Y66451D01*
X272313Y66313D01*
X272363Y66174D01*
X272377Y66152D01*
X272387Y66127D01*
X272472Y66006D01*
X272552Y65881D01*
X272571Y65863D01*
X272586Y65841D01*
X272696Y65742D01*
X272803Y65639D01*
X272825Y65625D01*
X272845Y65608D01*
X272975Y65536D01*
X273102Y65460D01*
X273127Y65452D01*
X273150Y65439D01*
X273293Y65399D01*
X273434Y65354D01*
X273460Y65352D01*
X273485Y65344D01*
X273729Y65325D01*
X277162Y65325D01*
X278055Y64432D01*
X278055Y53668D01*
X277162Y52775D01*
X260898Y52775D01*
G37*
%LPD*%
%LPC*%
G36*
X230898Y52775D02*
X230898Y52775D01*
X230005Y53668D01*
X230005Y64432D01*
X230898Y65325D01*
X238003Y65325D01*
X238128Y65339D01*
X238254Y65346D01*
X238301Y65359D01*
X238349Y65365D01*
X238468Y65407D01*
X238589Y65442D01*
X238631Y65466D01*
X238677Y65482D01*
X238783Y65551D01*
X238893Y65612D01*
X238940Y65652D01*
X238970Y65671D01*
X239003Y65706D01*
X239080Y65771D01*
X248247Y74938D01*
X248326Y75037D01*
X248410Y75131D01*
X248434Y75173D01*
X248464Y75211D01*
X248518Y75325D01*
X248579Y75436D01*
X248592Y75483D01*
X248613Y75526D01*
X248639Y75650D01*
X248674Y75772D01*
X248679Y75832D01*
X248686Y75867D01*
X248685Y75915D01*
X248693Y76015D01*
X248693Y77256D01*
X249501Y79206D01*
X250994Y80699D01*
X252944Y81507D01*
X255056Y81507D01*
X257006Y80699D01*
X258499Y79206D01*
X259307Y77256D01*
X259307Y75144D01*
X258499Y73194D01*
X257006Y71701D01*
X255056Y70893D01*
X253815Y70893D01*
X253690Y70879D01*
X253564Y70872D01*
X253517Y70859D01*
X253469Y70853D01*
X253350Y70811D01*
X253229Y70776D01*
X253187Y70752D01*
X253141Y70736D01*
X253035Y70667D01*
X252925Y70606D01*
X252878Y70566D01*
X252848Y70547D01*
X252815Y70512D01*
X252738Y70447D01*
X248466Y66175D01*
X248449Y66154D01*
X248429Y66137D01*
X248341Y66017D01*
X248249Y65902D01*
X248238Y65878D01*
X248222Y65856D01*
X248163Y65720D01*
X248100Y65587D01*
X248095Y65561D01*
X248084Y65536D01*
X248058Y65389D01*
X248027Y65246D01*
X248027Y65219D01*
X248023Y65193D01*
X248030Y65045D01*
X248033Y64897D01*
X248039Y64872D01*
X248041Y64845D01*
X248055Y64797D01*
X248055Y53668D01*
X247162Y52775D01*
X230898Y52775D01*
G37*
%LPD*%
%LPC*%
G36*
X230898Y36275D02*
X230898Y36275D01*
X230005Y37168D01*
X230005Y38481D01*
X230002Y38507D01*
X230004Y38533D01*
X229982Y38680D01*
X229965Y38827D01*
X229957Y38852D01*
X229953Y38878D01*
X229898Y39016D01*
X229848Y39155D01*
X229834Y39177D01*
X229824Y39202D01*
X229739Y39323D01*
X229659Y39448D01*
X229640Y39466D01*
X229625Y39488D01*
X229515Y39587D01*
X229408Y39690D01*
X229386Y39704D01*
X229366Y39721D01*
X229236Y39793D01*
X229109Y39869D01*
X229084Y39877D01*
X229061Y39890D01*
X228918Y39930D01*
X228777Y39975D01*
X228751Y39977D01*
X228726Y39985D01*
X228482Y40004D01*
X225940Y40004D01*
X225814Y39990D01*
X225688Y39983D01*
X225642Y39970D01*
X225594Y39964D01*
X225475Y39922D01*
X225353Y39887D01*
X225311Y39863D01*
X225266Y39847D01*
X225160Y39778D01*
X225049Y39717D01*
X225003Y39677D01*
X224973Y39658D01*
X224939Y39623D01*
X224863Y39558D01*
X223986Y38681D01*
X222036Y37873D01*
X219924Y37873D01*
X217974Y38681D01*
X216481Y40174D01*
X215673Y42124D01*
X215673Y44236D01*
X216481Y46186D01*
X217974Y47679D01*
X219924Y48487D01*
X222036Y48487D01*
X223986Y47679D01*
X224863Y46802D01*
X224962Y46723D01*
X225056Y46639D01*
X225098Y46615D01*
X225136Y46585D01*
X225250Y46531D01*
X225361Y46470D01*
X225407Y46457D01*
X225451Y46436D01*
X225574Y46410D01*
X225696Y46375D01*
X225757Y46370D01*
X225792Y46363D01*
X225840Y46364D01*
X225940Y46356D01*
X228482Y46356D01*
X228508Y46359D01*
X228534Y46357D01*
X228681Y46379D01*
X228828Y46396D01*
X228853Y46404D01*
X228879Y46408D01*
X229017Y46463D01*
X229156Y46513D01*
X229178Y46527D01*
X229203Y46537D01*
X229324Y46622D01*
X229449Y46702D01*
X229467Y46721D01*
X229489Y46736D01*
X229588Y46846D01*
X229691Y46953D01*
X229705Y46975D01*
X229722Y46995D01*
X229794Y47125D01*
X229870Y47252D01*
X229878Y47277D01*
X229891Y47300D01*
X229931Y47443D01*
X229976Y47584D01*
X229978Y47610D01*
X229986Y47635D01*
X230005Y47879D01*
X230005Y47932D01*
X230898Y48825D01*
X247162Y48825D01*
X248055Y47932D01*
X248055Y37168D01*
X247162Y36275D01*
X230898Y36275D01*
G37*
%LPD*%
%LPC*%
G36*
X220328Y295735D02*
X220328Y295735D01*
X219435Y296628D01*
X219435Y312972D01*
X220328Y313865D01*
X236672Y313865D01*
X237565Y312972D01*
X237565Y296628D01*
X236672Y295735D01*
X220328Y295735D01*
G37*
%LPD*%
%LPC*%
G36*
X220328Y346535D02*
X220328Y346535D01*
X219435Y347428D01*
X219435Y363772D01*
X220328Y364665D01*
X236672Y364665D01*
X237565Y363772D01*
X237565Y347428D01*
X236672Y346535D01*
X220328Y346535D01*
G37*
%LPD*%
%LPC*%
G36*
X220328Y397335D02*
X220328Y397335D01*
X219435Y398228D01*
X219435Y414572D01*
X220328Y415465D01*
X236672Y415465D01*
X237565Y414572D01*
X237565Y398228D01*
X236672Y397335D01*
X220328Y397335D01*
G37*
%LPD*%
%LPC*%
G36*
X379944Y241073D02*
X379944Y241073D01*
X377994Y241881D01*
X376501Y243374D01*
X375693Y245324D01*
X375693Y247436D01*
X376501Y249386D01*
X377994Y250879D01*
X379944Y251687D01*
X382056Y251687D01*
X384006Y250879D01*
X384883Y250002D01*
X384982Y249923D01*
X385076Y249839D01*
X385118Y249815D01*
X385156Y249785D01*
X385270Y249731D01*
X385381Y249670D01*
X385427Y249657D01*
X385471Y249636D01*
X385594Y249610D01*
X385716Y249575D01*
X385777Y249570D01*
X385812Y249563D01*
X385860Y249564D01*
X385960Y249556D01*
X401440Y249556D01*
X401566Y249570D01*
X401692Y249577D01*
X401738Y249590D01*
X401786Y249596D01*
X401905Y249638D01*
X402027Y249673D01*
X402069Y249697D01*
X402114Y249713D01*
X402220Y249782D01*
X402331Y249843D01*
X402377Y249883D01*
X402407Y249902D01*
X402441Y249937D01*
X402517Y250002D01*
X403394Y250879D01*
X405344Y251687D01*
X407456Y251687D01*
X409406Y250879D01*
X410899Y249386D01*
X411707Y247436D01*
X411707Y245324D01*
X410899Y243374D01*
X409406Y241881D01*
X407456Y241073D01*
X405344Y241073D01*
X403394Y241881D01*
X402517Y242758D01*
X402418Y242837D01*
X402324Y242921D01*
X402282Y242945D01*
X402244Y242975D01*
X402130Y243029D01*
X402019Y243090D01*
X401973Y243103D01*
X401929Y243124D01*
X401806Y243150D01*
X401684Y243185D01*
X401623Y243190D01*
X401588Y243197D01*
X401540Y243196D01*
X401440Y243204D01*
X385960Y243204D01*
X385834Y243190D01*
X385708Y243183D01*
X385662Y243170D01*
X385614Y243164D01*
X385495Y243122D01*
X385373Y243087D01*
X385331Y243063D01*
X385286Y243047D01*
X385180Y242978D01*
X385069Y242917D01*
X385023Y242877D01*
X384993Y242858D01*
X384959Y242823D01*
X384883Y242758D01*
X384006Y241881D01*
X382056Y241073D01*
X379944Y241073D01*
G37*
%LPD*%
%LPC*%
G36*
X87844Y134393D02*
X87844Y134393D01*
X85894Y135201D01*
X84401Y136694D01*
X83593Y138644D01*
X83593Y140756D01*
X84401Y142706D01*
X85278Y143583D01*
X85357Y143682D01*
X85441Y143776D01*
X85465Y143818D01*
X85495Y143856D01*
X85549Y143970D01*
X85610Y144081D01*
X85623Y144127D01*
X85644Y144171D01*
X85670Y144294D01*
X85705Y144416D01*
X85710Y144477D01*
X85717Y144512D01*
X85716Y144560D01*
X85724Y144660D01*
X85724Y160140D01*
X85710Y160266D01*
X85703Y160392D01*
X85690Y160438D01*
X85684Y160486D01*
X85642Y160605D01*
X85607Y160727D01*
X85583Y160769D01*
X85567Y160814D01*
X85498Y160920D01*
X85437Y161031D01*
X85397Y161077D01*
X85378Y161107D01*
X85343Y161141D01*
X85278Y161217D01*
X84401Y162094D01*
X83593Y164044D01*
X83593Y166156D01*
X84401Y168106D01*
X85894Y169599D01*
X87844Y170407D01*
X89956Y170407D01*
X91906Y169599D01*
X93399Y168106D01*
X94207Y166156D01*
X94207Y164044D01*
X93399Y162094D01*
X92522Y161217D01*
X92443Y161118D01*
X92359Y161024D01*
X92335Y160982D01*
X92305Y160944D01*
X92251Y160830D01*
X92190Y160719D01*
X92177Y160673D01*
X92156Y160629D01*
X92130Y160506D01*
X92095Y160384D01*
X92090Y160323D01*
X92083Y160288D01*
X92084Y160240D01*
X92076Y160140D01*
X92076Y144660D01*
X92090Y144534D01*
X92097Y144408D01*
X92110Y144362D01*
X92116Y144314D01*
X92158Y144195D01*
X92193Y144073D01*
X92217Y144031D01*
X92233Y143986D01*
X92302Y143880D01*
X92363Y143769D01*
X92403Y143723D01*
X92422Y143693D01*
X92457Y143659D01*
X92522Y143583D01*
X93399Y142706D01*
X94207Y140756D01*
X94207Y138644D01*
X93399Y136694D01*
X91906Y135201D01*
X89956Y134393D01*
X87844Y134393D01*
G37*
%LPD*%
%LPC*%
G36*
X390104Y439193D02*
X390104Y439193D01*
X388154Y440001D01*
X386995Y441160D01*
X386896Y441239D01*
X386802Y441323D01*
X386760Y441347D01*
X386722Y441377D01*
X386608Y441431D01*
X386497Y441492D01*
X386451Y441505D01*
X386407Y441526D01*
X386284Y441552D01*
X386162Y441587D01*
X386101Y441592D01*
X386066Y441599D01*
X386018Y441598D01*
X385918Y441606D01*
X375800Y441606D01*
X375674Y441592D01*
X375548Y441585D01*
X375502Y441572D01*
X375454Y441566D01*
X375335Y441524D01*
X375213Y441489D01*
X375171Y441465D01*
X375126Y441449D01*
X375020Y441380D01*
X374909Y441319D01*
X374863Y441279D01*
X374833Y441260D01*
X374799Y441225D01*
X374723Y441160D01*
X373846Y440283D01*
X371896Y439475D01*
X369784Y439475D01*
X367834Y440283D01*
X366341Y441776D01*
X365533Y443726D01*
X365533Y445838D01*
X366341Y447788D01*
X367834Y449281D01*
X369784Y450089D01*
X371896Y450089D01*
X373846Y449281D01*
X374723Y448404D01*
X374822Y448325D01*
X374916Y448241D01*
X374958Y448217D01*
X374996Y448187D01*
X375110Y448133D01*
X375221Y448072D01*
X375267Y448059D01*
X375311Y448038D01*
X375434Y448012D01*
X375556Y447977D01*
X375617Y447972D01*
X375652Y447965D01*
X375700Y447966D01*
X375800Y447958D01*
X386482Y447958D01*
X386608Y447972D01*
X386734Y447979D01*
X386780Y447992D01*
X386828Y447998D01*
X386947Y448040D01*
X387069Y448075D01*
X387111Y448099D01*
X387156Y448115D01*
X387262Y448184D01*
X387373Y448245D01*
X387419Y448285D01*
X387449Y448304D01*
X387483Y448339D01*
X387559Y448404D01*
X388154Y448999D01*
X390104Y449807D01*
X392216Y449807D01*
X394166Y448999D01*
X395659Y447506D01*
X396467Y445556D01*
X396467Y443444D01*
X395659Y441494D01*
X394166Y440001D01*
X392216Y439193D01*
X390104Y439193D01*
G37*
%LPD*%
%LPC*%
G36*
X131024Y263933D02*
X131024Y263933D01*
X129074Y264741D01*
X127581Y266234D01*
X126773Y268184D01*
X126773Y270296D01*
X127581Y272246D01*
X129074Y273739D01*
X131024Y274547D01*
X133136Y274547D01*
X135086Y273739D01*
X135963Y272862D01*
X136062Y272783D01*
X136156Y272699D01*
X136198Y272675D01*
X136236Y272645D01*
X136350Y272591D01*
X136461Y272530D01*
X136507Y272517D01*
X136551Y272496D01*
X136674Y272470D01*
X136796Y272435D01*
X136857Y272430D01*
X136892Y272423D01*
X136940Y272424D01*
X137040Y272416D01*
X147440Y272416D01*
X147566Y272430D01*
X147692Y272437D01*
X147738Y272450D01*
X147786Y272456D01*
X147905Y272498D01*
X148027Y272533D01*
X148069Y272557D01*
X148114Y272573D01*
X148220Y272642D01*
X148331Y272703D01*
X148377Y272743D01*
X148407Y272762D01*
X148441Y272797D01*
X148517Y272862D01*
X149394Y273739D01*
X151344Y274547D01*
X153456Y274547D01*
X155406Y273739D01*
X156899Y272246D01*
X157707Y270296D01*
X157707Y268184D01*
X156899Y266234D01*
X155406Y264741D01*
X153456Y263933D01*
X151344Y263933D01*
X149394Y264741D01*
X148517Y265618D01*
X148418Y265697D01*
X148324Y265781D01*
X148282Y265805D01*
X148244Y265835D01*
X148130Y265889D01*
X148019Y265950D01*
X147973Y265963D01*
X147929Y265984D01*
X147806Y266010D01*
X147684Y266045D01*
X147623Y266050D01*
X147588Y266057D01*
X147540Y266056D01*
X147440Y266064D01*
X137040Y266064D01*
X136914Y266050D01*
X136788Y266043D01*
X136742Y266030D01*
X136694Y266024D01*
X136575Y265982D01*
X136453Y265947D01*
X136411Y265923D01*
X136366Y265907D01*
X136260Y265838D01*
X136149Y265777D01*
X136103Y265737D01*
X136073Y265718D01*
X136039Y265683D01*
X135963Y265618D01*
X135086Y264741D01*
X133136Y263933D01*
X131024Y263933D01*
G37*
%LPD*%
%LPC*%
G36*
X260898Y36275D02*
X260898Y36275D01*
X260005Y37168D01*
X260005Y47932D01*
X260898Y48825D01*
X277162Y48825D01*
X278055Y47932D01*
X278055Y37168D01*
X277162Y36275D01*
X260898Y36275D01*
G37*
%LPD*%
%LPC*%
G36*
X281939Y561339D02*
X281939Y561339D01*
X281939Y576279D01*
X283300Y575836D01*
X284725Y575110D01*
X286019Y574170D01*
X287150Y573039D01*
X288090Y571745D01*
X288816Y570320D01*
X289311Y568799D01*
X289561Y567220D01*
X289561Y561339D01*
X281939Y561339D01*
G37*
%LPD*%
%LPC*%
G36*
X281939Y556261D02*
X281939Y556261D01*
X289561Y556261D01*
X289561Y550380D01*
X289311Y548801D01*
X288816Y547280D01*
X288090Y545855D01*
X287150Y544561D01*
X286019Y543430D01*
X284725Y542490D01*
X283300Y541764D01*
X281939Y541321D01*
X281939Y556261D01*
G37*
%LPD*%
%LPC*%
G36*
X269239Y561339D02*
X269239Y561339D01*
X269239Y567220D01*
X269489Y568799D01*
X269984Y570320D01*
X270710Y571745D01*
X271650Y573039D01*
X272781Y574170D01*
X274075Y575110D01*
X275500Y575836D01*
X276861Y576279D01*
X276861Y561339D01*
X269239Y561339D01*
G37*
%LPD*%
%LPC*%
G36*
X275500Y541764D02*
X275500Y541764D01*
X274075Y542490D01*
X272781Y543430D01*
X271650Y544561D01*
X270710Y545855D01*
X269984Y547280D01*
X269489Y548801D01*
X269239Y550380D01*
X269239Y556261D01*
X276861Y556261D01*
X276861Y541321D01*
X275500Y541764D01*
G37*
%LPD*%
%LPC*%
G36*
X179831Y446531D02*
X179831Y446531D01*
X179831Y456566D01*
X182798Y456566D01*
X189866Y449498D01*
X189866Y446531D01*
X179831Y446531D01*
G37*
%LPD*%
%LPC*%
G36*
X179831Y520191D02*
X179831Y520191D01*
X179831Y530226D01*
X182798Y530226D01*
X189866Y523158D01*
X189866Y520191D01*
X179831Y520191D01*
G37*
%LPD*%
%LPC*%
G36*
X179831Y432434D02*
X179831Y432434D01*
X179831Y442469D01*
X189866Y442469D01*
X189866Y439502D01*
X182798Y432434D01*
X179831Y432434D01*
G37*
%LPD*%
%LPC*%
G36*
X165734Y446531D02*
X165734Y446531D01*
X165734Y449498D01*
X172802Y456566D01*
X175769Y456566D01*
X175769Y446531D01*
X165734Y446531D01*
G37*
%LPD*%
%LPC*%
G36*
X165734Y520191D02*
X165734Y520191D01*
X165734Y523158D01*
X172802Y530226D01*
X175769Y530226D01*
X175769Y520191D01*
X165734Y520191D01*
G37*
%LPD*%
%LPC*%
G36*
X172802Y432434D02*
X172802Y432434D01*
X165734Y439502D01*
X165734Y442469D01*
X175769Y442469D01*
X175769Y432434D01*
X172802Y432434D01*
G37*
%LPD*%
%LPC*%
G36*
X281999Y358099D02*
X281999Y358099D01*
X281999Y365387D01*
X283370Y364942D01*
X284783Y364222D01*
X286067Y363289D01*
X287189Y362167D01*
X288122Y360883D01*
X288842Y359470D01*
X289287Y358099D01*
X281999Y358099D01*
G37*
%LPD*%
%LPC*%
G36*
X281999Y307299D02*
X281999Y307299D01*
X281999Y314587D01*
X283370Y314142D01*
X284783Y313422D01*
X286067Y312489D01*
X287189Y311367D01*
X288122Y310083D01*
X288842Y308670D01*
X289287Y307299D01*
X281999Y307299D01*
G37*
%LPD*%
%LPC*%
G36*
X281999Y408899D02*
X281999Y408899D01*
X281999Y416187D01*
X283370Y415742D01*
X284783Y415022D01*
X286067Y414089D01*
X287189Y412967D01*
X288122Y411683D01*
X288842Y410270D01*
X289287Y408899D01*
X281999Y408899D01*
G37*
%LPD*%
%LPC*%
G36*
X269713Y408899D02*
X269713Y408899D01*
X270158Y410270D01*
X270878Y411683D01*
X271811Y412967D01*
X272933Y414089D01*
X274217Y415022D01*
X275630Y415742D01*
X277001Y416187D01*
X277001Y408899D01*
X269713Y408899D01*
G37*
%LPD*%
%LPC*%
G36*
X281999Y403901D02*
X281999Y403901D01*
X289287Y403901D01*
X288842Y402530D01*
X288122Y401117D01*
X287189Y399833D01*
X286067Y398711D01*
X284783Y397778D01*
X283370Y397058D01*
X281999Y396613D01*
X281999Y403901D01*
G37*
%LPD*%
%LPC*%
G36*
X269713Y358099D02*
X269713Y358099D01*
X270158Y359470D01*
X270878Y360883D01*
X271811Y362167D01*
X272933Y363289D01*
X274217Y364222D01*
X275630Y364942D01*
X277001Y365387D01*
X277001Y358099D01*
X269713Y358099D01*
G37*
%LPD*%
%LPC*%
G36*
X281999Y353101D02*
X281999Y353101D01*
X289287Y353101D01*
X288842Y351730D01*
X288122Y350317D01*
X287189Y349033D01*
X286067Y347911D01*
X284783Y346978D01*
X283370Y346258D01*
X281999Y345813D01*
X281999Y353101D01*
G37*
%LPD*%
%LPC*%
G36*
X281999Y302301D02*
X281999Y302301D01*
X289287Y302301D01*
X288842Y300930D01*
X288122Y299517D01*
X287189Y298233D01*
X286067Y297111D01*
X284783Y296178D01*
X283370Y295458D01*
X281999Y295013D01*
X281999Y302301D01*
G37*
%LPD*%
%LPC*%
G36*
X269713Y307299D02*
X269713Y307299D01*
X270158Y308670D01*
X270878Y310083D01*
X271811Y311367D01*
X272933Y312489D01*
X274217Y313422D01*
X275630Y314142D01*
X277001Y314587D01*
X277001Y307299D01*
X269713Y307299D01*
G37*
%LPD*%
%LPC*%
G36*
X275630Y397058D02*
X275630Y397058D01*
X274217Y397778D01*
X272933Y398711D01*
X271811Y399833D01*
X270878Y401117D01*
X270158Y402530D01*
X269713Y403901D01*
X277001Y403901D01*
X277001Y396613D01*
X275630Y397058D01*
G37*
%LPD*%
%LPC*%
G36*
X275630Y346258D02*
X275630Y346258D01*
X274217Y346978D01*
X272933Y347911D01*
X271811Y349033D01*
X270878Y350317D01*
X270158Y351730D01*
X269713Y353101D01*
X277001Y353101D01*
X277001Y345813D01*
X275630Y346258D01*
G37*
%LPD*%
%LPC*%
G36*
X275630Y295458D02*
X275630Y295458D01*
X274217Y296178D01*
X272933Y297111D01*
X271811Y298233D01*
X270878Y299517D01*
X270158Y300930D01*
X269713Y302301D01*
X277001Y302301D01*
X277001Y295013D01*
X275630Y295458D01*
G37*
%LPD*%
D10*
X228500Y304800D03*
D11*
X279500Y304800D03*
D10*
X228500Y355600D03*
D11*
X279500Y355600D03*
D10*
X228500Y406400D03*
D11*
X279500Y406400D03*
D12*
X269030Y42550D03*
X239030Y42550D03*
X269030Y59050D03*
X239030Y59050D03*
D13*
X228600Y551180D02*
X228600Y566420D01*
X254000Y566420D02*
X254000Y551180D01*
X279400Y551180D02*
X279400Y566420D01*
X304800Y566420D02*
X304800Y551180D01*
X330200Y551180D02*
X330200Y566420D01*
X355600Y566420D02*
X355600Y551180D01*
X381000Y551180D02*
X381000Y566420D01*
X406400Y566420D02*
X406400Y551180D01*
X431800Y551180D02*
X431800Y566420D01*
X457200Y566420D02*
X457200Y551180D01*
X482600Y551180D02*
X482600Y566420D01*
X508000Y566420D02*
X508000Y551180D01*
D14*
X177800Y568960D03*
D15*
X177800Y518160D03*
D14*
X177800Y495300D03*
D15*
X177800Y444500D03*
D16*
X88900Y139700D03*
D17*
X88900Y165100D01*
D16*
X88900Y165100D03*
D17*
X269030Y88690D02*
X269030Y59050D01*
X269030Y88690D02*
X269240Y88900D01*
D16*
X269240Y88900D03*
X152400Y269240D03*
D17*
X132080Y269240D01*
D16*
X132080Y269240D03*
X370840Y444782D03*
D17*
X390878Y444782D01*
X391160Y444500D01*
D16*
X391160Y444500D03*
X381000Y246380D03*
D17*
X406400Y246380D01*
D16*
X406400Y246380D03*
X254000Y76200D03*
D17*
X239030Y61230D01*
X239030Y59050D01*
D16*
X220980Y43180D03*
D17*
X238400Y43180D01*
X239030Y42550D01*
M02*
