G04 EAGLE Gerber RS-274X export*
G75*
%MOMM*%
%FSLAX34Y34*%
%LPD*%
%INBottom Copper*%
%IPPOS*%
%AMOC8*
5,1,8,0,0,1.08239X$1,22.5*%
G01*
%ADD10R,1.508000X1.508000*%
%ADD11C,1.508000*%
%ADD12R,1.500000X0.950000*%
%ADD13C,1.524000*%
%ADD14C,1.905000*%
%ADD15P,2.061953X8X292.500000*%
%ADD16C,1.275000*%
%ADD17C,0.330200*%

G36*
X538760Y10926D02*
X538760Y10926D01*
X538786Y10924D01*
X538933Y10946D01*
X539080Y10963D01*
X539105Y10971D01*
X539131Y10975D01*
X539269Y11030D01*
X539408Y11080D01*
X539430Y11094D01*
X539455Y11104D01*
X539576Y11189D01*
X539701Y11269D01*
X539719Y11288D01*
X539741Y11303D01*
X539840Y11413D01*
X539943Y11520D01*
X539957Y11542D01*
X539974Y11562D01*
X540046Y11692D01*
X540122Y11819D01*
X540130Y11844D01*
X540143Y11867D01*
X540183Y12010D01*
X540228Y12151D01*
X540230Y12177D01*
X540238Y12202D01*
X540257Y12446D01*
X540257Y68297D01*
X540255Y68320D01*
X540257Y68343D01*
X540235Y68493D01*
X540217Y68643D01*
X540210Y68665D01*
X540206Y68688D01*
X540151Y68828D01*
X540100Y68971D01*
X540087Y68990D01*
X540079Y69012D01*
X539993Y69136D01*
X539911Y69264D01*
X539894Y69280D01*
X539881Y69299D01*
X539769Y69401D01*
X539660Y69506D01*
X539640Y69518D01*
X539623Y69533D01*
X539491Y69607D01*
X539361Y69685D01*
X539339Y69692D01*
X539319Y69703D01*
X539174Y69745D01*
X539029Y69791D01*
X539006Y69793D01*
X538984Y69799D01*
X538833Y69807D01*
X538682Y69819D01*
X538659Y69816D01*
X538636Y69817D01*
X538487Y69790D01*
X538337Y69767D01*
X538316Y69759D01*
X538293Y69755D01*
X538154Y69695D01*
X538013Y69639D01*
X537994Y69625D01*
X537973Y69616D01*
X537851Y69526D01*
X537727Y69440D01*
X537712Y69423D01*
X537693Y69409D01*
X537595Y69293D01*
X537494Y69181D01*
X537482Y69161D01*
X537468Y69143D01*
X537348Y68929D01*
X535435Y64739D01*
X527105Y55126D01*
X516405Y48249D01*
X504200Y44666D01*
X491480Y44666D01*
X479275Y48249D01*
X468575Y55126D01*
X460245Y64739D01*
X454961Y76310D01*
X453151Y88900D01*
X454961Y101490D01*
X460245Y113061D01*
X468575Y122674D01*
X479275Y129551D01*
X491480Y133134D01*
X504200Y133134D01*
X516405Y129551D01*
X527105Y122674D01*
X535435Y113061D01*
X537348Y108871D01*
X537360Y108851D01*
X537368Y108829D01*
X537450Y108702D01*
X537529Y108572D01*
X537545Y108556D01*
X537557Y108536D01*
X537666Y108431D01*
X537772Y108323D01*
X537791Y108310D01*
X537808Y108294D01*
X537938Y108216D01*
X538065Y108135D01*
X538087Y108127D01*
X538107Y108115D01*
X538251Y108069D01*
X538394Y108019D01*
X538417Y108016D01*
X538439Y108009D01*
X538589Y107997D01*
X538740Y107980D01*
X538763Y107983D01*
X538786Y107981D01*
X538935Y108003D01*
X539086Y108021D01*
X539108Y108029D01*
X539131Y108033D01*
X539271Y108088D01*
X539414Y108140D01*
X539433Y108153D01*
X539455Y108161D01*
X539579Y108248D01*
X539706Y108330D01*
X539722Y108347D01*
X539741Y108360D01*
X539842Y108473D01*
X539947Y108582D01*
X539959Y108602D01*
X539974Y108619D01*
X540048Y108752D01*
X540125Y108882D01*
X540132Y108904D01*
X540143Y108924D01*
X540184Y109070D01*
X540230Y109214D01*
X540231Y109237D01*
X540238Y109260D01*
X540257Y109503D01*
X540257Y579374D01*
X540254Y579400D01*
X540256Y579426D01*
X540234Y579573D01*
X540217Y579720D01*
X540209Y579745D01*
X540205Y579771D01*
X540150Y579908D01*
X540100Y580048D01*
X540086Y580070D01*
X540076Y580095D01*
X539991Y580216D01*
X539911Y580341D01*
X539892Y580359D01*
X539877Y580381D01*
X539767Y580480D01*
X539660Y580583D01*
X539638Y580597D01*
X539618Y580614D01*
X539488Y580686D01*
X539361Y580762D01*
X539336Y580770D01*
X539313Y580783D01*
X539170Y580823D01*
X539029Y580868D01*
X539003Y580870D01*
X538978Y580878D01*
X538734Y580897D01*
X511240Y580897D01*
X511190Y580892D01*
X511140Y580894D01*
X511018Y580872D01*
X510894Y580857D01*
X510847Y580840D01*
X510797Y580831D01*
X510683Y580782D01*
X510566Y580740D01*
X510524Y580713D01*
X510477Y580693D01*
X510378Y580618D01*
X510273Y580551D01*
X510238Y580515D01*
X510198Y580485D01*
X510118Y580390D01*
X510031Y580300D01*
X510005Y580257D01*
X509973Y580219D01*
X509916Y580108D01*
X509852Y580001D01*
X509837Y579953D01*
X509814Y579908D01*
X509784Y579788D01*
X509746Y579669D01*
X509742Y579619D01*
X509730Y579570D01*
X509728Y579446D01*
X509718Y579322D01*
X509725Y579272D01*
X509725Y579222D01*
X509751Y579100D01*
X509770Y578977D01*
X509788Y578930D01*
X509799Y578881D01*
X509852Y578769D01*
X509898Y578653D01*
X509927Y578612D01*
X509949Y578566D01*
X510026Y578469D01*
X510097Y578367D01*
X510135Y578333D01*
X510166Y578294D01*
X510264Y578217D01*
X510356Y578134D01*
X510400Y578109D01*
X510440Y578078D01*
X510657Y577967D01*
X514619Y576326D01*
X517906Y573039D01*
X519685Y568744D01*
X519685Y548856D01*
X517906Y544561D01*
X514619Y541274D01*
X510324Y539495D01*
X505676Y539495D01*
X501381Y541274D01*
X498094Y544561D01*
X496707Y547909D01*
X496659Y547997D01*
X496618Y548089D01*
X496574Y548149D01*
X496538Y548214D01*
X496471Y548288D01*
X496411Y548369D01*
X496354Y548417D01*
X496304Y548472D01*
X496221Y548529D01*
X496145Y548594D01*
X496078Y548628D01*
X496017Y548670D01*
X495924Y548707D01*
X495834Y548753D01*
X495762Y548771D01*
X495693Y548798D01*
X495594Y548813D01*
X495496Y548837D01*
X495422Y548838D01*
X495348Y548849D01*
X495248Y548841D01*
X495148Y548842D01*
X495075Y548826D01*
X495001Y548820D01*
X494905Y548789D01*
X494807Y548768D01*
X494740Y548736D01*
X494669Y548713D01*
X494583Y548661D01*
X494492Y548618D01*
X494434Y548572D01*
X494371Y548533D01*
X494298Y548463D01*
X494220Y548401D01*
X494174Y548342D01*
X494121Y548290D01*
X494066Y548206D01*
X494004Y548127D01*
X493958Y548038D01*
X493932Y547997D01*
X493920Y547963D01*
X493893Y547909D01*
X492506Y544561D01*
X489219Y541274D01*
X484924Y539495D01*
X480276Y539495D01*
X475981Y541274D01*
X472694Y544561D01*
X471307Y547909D01*
X471259Y547997D01*
X471219Y548089D01*
X471174Y548149D01*
X471138Y548214D01*
X471071Y548288D01*
X471011Y548369D01*
X470954Y548417D01*
X470904Y548472D01*
X470821Y548529D01*
X470745Y548594D01*
X470678Y548628D01*
X470617Y548670D01*
X470524Y548707D01*
X470434Y548753D01*
X470362Y548771D01*
X470293Y548798D01*
X470193Y548813D01*
X470096Y548837D01*
X470022Y548838D01*
X469948Y548849D01*
X469848Y548841D01*
X469748Y548842D01*
X469675Y548826D01*
X469601Y548820D01*
X469505Y548789D01*
X469407Y548768D01*
X469340Y548736D01*
X469269Y548713D01*
X469183Y548661D01*
X469092Y548618D01*
X469034Y548572D01*
X468971Y548533D01*
X468898Y548463D01*
X468820Y548401D01*
X468774Y548342D01*
X468721Y548290D01*
X468666Y548206D01*
X468604Y548127D01*
X468558Y548038D01*
X468532Y547997D01*
X468520Y547963D01*
X468493Y547909D01*
X467106Y544561D01*
X463819Y541274D01*
X459524Y539495D01*
X454876Y539495D01*
X450581Y541274D01*
X447294Y544561D01*
X445907Y547909D01*
X445859Y547997D01*
X445818Y548089D01*
X445774Y548149D01*
X445738Y548214D01*
X445671Y548288D01*
X445611Y548369D01*
X445554Y548417D01*
X445504Y548472D01*
X445421Y548529D01*
X445345Y548594D01*
X445278Y548628D01*
X445217Y548670D01*
X445124Y548707D01*
X445034Y548753D01*
X444962Y548771D01*
X444893Y548798D01*
X444794Y548813D01*
X444696Y548837D01*
X444622Y548838D01*
X444548Y548849D01*
X444448Y548841D01*
X444348Y548842D01*
X444275Y548826D01*
X444201Y548820D01*
X444105Y548789D01*
X444007Y548768D01*
X443940Y548736D01*
X443869Y548713D01*
X443783Y548661D01*
X443692Y548618D01*
X443634Y548572D01*
X443571Y548533D01*
X443498Y548463D01*
X443420Y548401D01*
X443374Y548342D01*
X443321Y548290D01*
X443266Y548206D01*
X443204Y548127D01*
X443158Y548038D01*
X443132Y547997D01*
X443120Y547963D01*
X443093Y547909D01*
X441706Y544561D01*
X438419Y541274D01*
X434124Y539495D01*
X429476Y539495D01*
X425181Y541274D01*
X421894Y544561D01*
X420507Y547909D01*
X420459Y547997D01*
X420418Y548089D01*
X420374Y548149D01*
X420338Y548214D01*
X420271Y548288D01*
X420211Y548369D01*
X420154Y548417D01*
X420104Y548472D01*
X420021Y548529D01*
X419945Y548594D01*
X419878Y548628D01*
X419817Y548670D01*
X419724Y548707D01*
X419634Y548753D01*
X419562Y548771D01*
X419493Y548798D01*
X419394Y548813D01*
X419296Y548837D01*
X419222Y548838D01*
X419148Y548849D01*
X419048Y548841D01*
X418948Y548842D01*
X418875Y548826D01*
X418801Y548820D01*
X418705Y548789D01*
X418607Y548768D01*
X418540Y548736D01*
X418469Y548713D01*
X418383Y548661D01*
X418292Y548618D01*
X418234Y548572D01*
X418171Y548533D01*
X418098Y548463D01*
X418020Y548401D01*
X417974Y548342D01*
X417921Y548290D01*
X417866Y548206D01*
X417804Y548127D01*
X417758Y548038D01*
X417732Y547997D01*
X417720Y547963D01*
X417693Y547909D01*
X416306Y544561D01*
X413019Y541274D01*
X408724Y539495D01*
X404076Y539495D01*
X399781Y541274D01*
X396494Y544561D01*
X395107Y547909D01*
X395059Y547997D01*
X395018Y548089D01*
X394974Y548149D01*
X394938Y548214D01*
X394871Y548288D01*
X394811Y548369D01*
X394754Y548417D01*
X394704Y548472D01*
X394621Y548529D01*
X394545Y548594D01*
X394478Y548628D01*
X394417Y548670D01*
X394324Y548707D01*
X394234Y548753D01*
X394162Y548771D01*
X394093Y548798D01*
X393994Y548813D01*
X393896Y548837D01*
X393822Y548838D01*
X393748Y548849D01*
X393648Y548841D01*
X393548Y548842D01*
X393475Y548826D01*
X393401Y548820D01*
X393305Y548789D01*
X393207Y548768D01*
X393140Y548736D01*
X393069Y548713D01*
X392983Y548661D01*
X392892Y548618D01*
X392834Y548572D01*
X392771Y548533D01*
X392698Y548463D01*
X392620Y548401D01*
X392574Y548342D01*
X392521Y548290D01*
X392466Y548206D01*
X392404Y548127D01*
X392358Y548038D01*
X392332Y547997D01*
X392320Y547963D01*
X392293Y547909D01*
X390906Y544561D01*
X387619Y541274D01*
X383324Y539495D01*
X378676Y539495D01*
X374381Y541274D01*
X371094Y544561D01*
X369707Y547909D01*
X369659Y547997D01*
X369618Y548089D01*
X369574Y548149D01*
X369538Y548214D01*
X369471Y548288D01*
X369411Y548369D01*
X369354Y548417D01*
X369304Y548472D01*
X369221Y548529D01*
X369145Y548594D01*
X369078Y548628D01*
X369017Y548670D01*
X368924Y548707D01*
X368834Y548753D01*
X368762Y548771D01*
X368693Y548798D01*
X368594Y548813D01*
X368496Y548837D01*
X368422Y548838D01*
X368348Y548849D01*
X368248Y548841D01*
X368148Y548842D01*
X368075Y548826D01*
X368001Y548820D01*
X367905Y548789D01*
X367807Y548768D01*
X367740Y548736D01*
X367669Y548713D01*
X367583Y548661D01*
X367492Y548618D01*
X367434Y548572D01*
X367371Y548533D01*
X367298Y548463D01*
X367220Y548401D01*
X367174Y548342D01*
X367121Y548290D01*
X367066Y548206D01*
X367004Y548127D01*
X366958Y548038D01*
X366932Y547997D01*
X366920Y547963D01*
X366893Y547909D01*
X365506Y544561D01*
X362219Y541274D01*
X357924Y539495D01*
X353276Y539495D01*
X348981Y541274D01*
X345694Y544561D01*
X344307Y547909D01*
X344259Y547997D01*
X344218Y548089D01*
X344174Y548149D01*
X344138Y548214D01*
X344071Y548288D01*
X344011Y548369D01*
X343954Y548417D01*
X343904Y548472D01*
X343821Y548529D01*
X343745Y548594D01*
X343678Y548628D01*
X343617Y548670D01*
X343524Y548707D01*
X343434Y548753D01*
X343362Y548771D01*
X343293Y548798D01*
X343194Y548813D01*
X343096Y548837D01*
X343022Y548838D01*
X342948Y548849D01*
X342848Y548841D01*
X342748Y548842D01*
X342675Y548826D01*
X342601Y548820D01*
X342505Y548789D01*
X342407Y548768D01*
X342340Y548736D01*
X342269Y548713D01*
X342183Y548661D01*
X342092Y548618D01*
X342034Y548572D01*
X341971Y548533D01*
X341898Y548463D01*
X341820Y548401D01*
X341774Y548342D01*
X341721Y548290D01*
X341666Y548206D01*
X341604Y548127D01*
X341558Y548038D01*
X341532Y547997D01*
X341520Y547963D01*
X341493Y547909D01*
X340106Y544561D01*
X336819Y541274D01*
X332524Y539495D01*
X327876Y539495D01*
X323581Y541274D01*
X320294Y544561D01*
X318907Y547909D01*
X318859Y547997D01*
X318818Y548089D01*
X318774Y548149D01*
X318738Y548214D01*
X318671Y548288D01*
X318611Y548369D01*
X318554Y548417D01*
X318504Y548472D01*
X318421Y548529D01*
X318345Y548594D01*
X318278Y548628D01*
X318217Y548670D01*
X318124Y548707D01*
X318034Y548753D01*
X317962Y548771D01*
X317893Y548798D01*
X317794Y548813D01*
X317696Y548837D01*
X317622Y548838D01*
X317548Y548849D01*
X317448Y548841D01*
X317348Y548842D01*
X317275Y548826D01*
X317201Y548820D01*
X317105Y548789D01*
X317007Y548768D01*
X316940Y548736D01*
X316869Y548713D01*
X316783Y548661D01*
X316692Y548618D01*
X316634Y548572D01*
X316571Y548533D01*
X316498Y548463D01*
X316420Y548401D01*
X316374Y548342D01*
X316321Y548290D01*
X316266Y548206D01*
X316204Y548127D01*
X316158Y548038D01*
X316132Y547997D01*
X316120Y547963D01*
X316093Y547909D01*
X314706Y544561D01*
X311419Y541274D01*
X307124Y539495D01*
X302476Y539495D01*
X298181Y541274D01*
X294894Y544561D01*
X293115Y548856D01*
X293115Y568744D01*
X294894Y573039D01*
X298181Y576326D01*
X302143Y577967D01*
X302187Y577991D01*
X302234Y578008D01*
X302339Y578076D01*
X302447Y578136D01*
X302485Y578170D01*
X302527Y578197D01*
X302613Y578287D01*
X302705Y578370D01*
X302734Y578412D01*
X302769Y578448D01*
X302833Y578555D01*
X302904Y578657D01*
X302922Y578704D01*
X302948Y578747D01*
X302986Y578865D01*
X303031Y578981D01*
X303039Y579031D01*
X303054Y579079D01*
X303064Y579203D01*
X303082Y579326D01*
X303078Y579376D01*
X303082Y579426D01*
X303064Y579549D01*
X303053Y579673D01*
X303038Y579721D01*
X303030Y579771D01*
X302984Y579886D01*
X302946Y580005D01*
X302920Y580048D01*
X302902Y580095D01*
X302831Y580197D01*
X302767Y580303D01*
X302731Y580340D01*
X302703Y580381D01*
X302611Y580464D01*
X302524Y580553D01*
X302481Y580581D01*
X302444Y580614D01*
X302335Y580674D01*
X302230Y580742D01*
X302183Y580759D01*
X302139Y580783D01*
X302019Y580817D01*
X301902Y580858D01*
X301852Y580864D01*
X301803Y580878D01*
X301560Y580897D01*
X257240Y580897D01*
X257190Y580892D01*
X257140Y580894D01*
X257018Y580872D01*
X256894Y580857D01*
X256847Y580840D01*
X256797Y580831D01*
X256683Y580782D01*
X256566Y580740D01*
X256524Y580713D01*
X256477Y580693D01*
X256378Y580618D01*
X256273Y580551D01*
X256238Y580515D01*
X256198Y580485D01*
X256118Y580390D01*
X256031Y580300D01*
X256005Y580257D01*
X255973Y580219D01*
X255916Y580108D01*
X255852Y580001D01*
X255837Y579953D01*
X255814Y579908D01*
X255784Y579788D01*
X255746Y579669D01*
X255742Y579619D01*
X255730Y579570D01*
X255728Y579446D01*
X255718Y579322D01*
X255725Y579272D01*
X255725Y579222D01*
X255751Y579100D01*
X255770Y578977D01*
X255788Y578930D01*
X255799Y578881D01*
X255852Y578769D01*
X255898Y578653D01*
X255927Y578612D01*
X255949Y578566D01*
X256026Y578469D01*
X256097Y578367D01*
X256135Y578333D01*
X256166Y578294D01*
X256264Y578217D01*
X256356Y578134D01*
X256400Y578109D01*
X256440Y578078D01*
X256657Y577967D01*
X260619Y576326D01*
X263906Y573039D01*
X265685Y568744D01*
X265685Y548856D01*
X263906Y544561D01*
X260619Y541274D01*
X256324Y539495D01*
X251676Y539495D01*
X247381Y541274D01*
X244094Y544561D01*
X242707Y547909D01*
X242659Y547997D01*
X242618Y548089D01*
X242574Y548149D01*
X242538Y548214D01*
X242471Y548288D01*
X242411Y548369D01*
X242354Y548417D01*
X242304Y548472D01*
X242221Y548529D01*
X242145Y548594D01*
X242078Y548628D01*
X242017Y548670D01*
X241924Y548707D01*
X241834Y548753D01*
X241762Y548771D01*
X241693Y548798D01*
X241594Y548813D01*
X241496Y548837D01*
X241422Y548838D01*
X241348Y548849D01*
X241248Y548841D01*
X241148Y548842D01*
X241075Y548826D01*
X241001Y548820D01*
X240905Y548789D01*
X240807Y548768D01*
X240740Y548736D01*
X240669Y548713D01*
X240583Y548661D01*
X240492Y548618D01*
X240434Y548572D01*
X240371Y548533D01*
X240298Y548463D01*
X240220Y548401D01*
X240174Y548342D01*
X240121Y548290D01*
X240066Y548206D01*
X240004Y548127D01*
X239958Y548038D01*
X239932Y547997D01*
X239920Y547963D01*
X239893Y547909D01*
X238506Y544561D01*
X235219Y541274D01*
X230924Y539495D01*
X226276Y539495D01*
X221981Y541274D01*
X218694Y544561D01*
X216915Y548856D01*
X216915Y568744D01*
X218694Y573039D01*
X221981Y576326D01*
X225943Y577967D01*
X225987Y577991D01*
X226034Y578008D01*
X226139Y578076D01*
X226247Y578136D01*
X226285Y578170D01*
X226327Y578197D01*
X226413Y578287D01*
X226505Y578370D01*
X226534Y578412D01*
X226569Y578448D01*
X226633Y578555D01*
X226704Y578657D01*
X226722Y578704D01*
X226748Y578747D01*
X226786Y578865D01*
X226831Y578981D01*
X226839Y579031D01*
X226854Y579079D01*
X226864Y579203D01*
X226882Y579326D01*
X226878Y579376D01*
X226882Y579426D01*
X226864Y579549D01*
X226853Y579673D01*
X226838Y579721D01*
X226830Y579771D01*
X226784Y579886D01*
X226746Y580005D01*
X226720Y580048D01*
X226702Y580095D01*
X226631Y580197D01*
X226567Y580303D01*
X226531Y580340D01*
X226503Y580381D01*
X226411Y580464D01*
X226324Y580553D01*
X226281Y580581D01*
X226244Y580614D01*
X226135Y580674D01*
X226030Y580742D01*
X225983Y580759D01*
X225939Y580783D01*
X225819Y580817D01*
X225702Y580858D01*
X225652Y580864D01*
X225603Y580878D01*
X225360Y580897D01*
X188759Y580897D01*
X188659Y580886D01*
X188559Y580884D01*
X188487Y580866D01*
X188413Y580857D01*
X188318Y580824D01*
X188221Y580799D01*
X188155Y580765D01*
X188085Y580740D01*
X188000Y580685D01*
X187911Y580639D01*
X187854Y580591D01*
X187792Y580551D01*
X187722Y580479D01*
X187646Y580414D01*
X187601Y580354D01*
X187550Y580300D01*
X187498Y580214D01*
X187438Y580133D01*
X187409Y580065D01*
X187371Y580001D01*
X187340Y579905D01*
X187300Y579813D01*
X187287Y579740D01*
X187265Y579669D01*
X187257Y579569D01*
X187239Y579470D01*
X187243Y579396D01*
X187237Y579322D01*
X187252Y579222D01*
X187257Y579122D01*
X187277Y579051D01*
X187288Y578977D01*
X187325Y578884D01*
X187353Y578787D01*
X187390Y578722D01*
X187417Y578653D01*
X187474Y578571D01*
X187523Y578483D01*
X187589Y578407D01*
X187616Y578367D01*
X187642Y578343D01*
X187682Y578297D01*
X189321Y576658D01*
X191390Y571663D01*
X191390Y566257D01*
X189321Y561262D01*
X185498Y557439D01*
X180503Y555370D01*
X175097Y555370D01*
X170102Y557439D01*
X166279Y561262D01*
X164210Y566257D01*
X164210Y571663D01*
X166279Y576658D01*
X167918Y578297D01*
X167981Y578376D01*
X168050Y578448D01*
X168089Y578512D01*
X168135Y578570D01*
X168178Y578661D01*
X168229Y578747D01*
X168252Y578818D01*
X168284Y578885D01*
X168305Y578983D01*
X168335Y579079D01*
X168341Y579153D01*
X168357Y579226D01*
X168355Y579326D01*
X168363Y579426D01*
X168352Y579500D01*
X168351Y579574D01*
X168327Y579671D01*
X168312Y579771D01*
X168284Y579840D01*
X168266Y579912D01*
X168220Y580001D01*
X168183Y580095D01*
X168141Y580156D01*
X168106Y580222D01*
X168041Y580298D01*
X167984Y580381D01*
X167929Y580431D01*
X167881Y580487D01*
X167800Y580547D01*
X167725Y580614D01*
X167660Y580650D01*
X167600Y580695D01*
X167508Y580734D01*
X167420Y580783D01*
X167349Y580803D01*
X167280Y580833D01*
X167182Y580850D01*
X167085Y580878D01*
X166985Y580886D01*
X166937Y580894D01*
X166902Y580892D01*
X166841Y580897D01*
X90692Y580897D01*
X90561Y580882D01*
X90430Y580875D01*
X90388Y580862D01*
X90346Y580857D01*
X90222Y580813D01*
X90095Y580776D01*
X90058Y580754D01*
X90017Y580740D01*
X89907Y580669D01*
X89792Y580603D01*
X89761Y580574D01*
X89725Y580551D01*
X89633Y580456D01*
X89536Y580367D01*
X89512Y580331D01*
X89482Y580300D01*
X89415Y580187D01*
X89341Y580078D01*
X89326Y580038D01*
X89304Y580001D01*
X89264Y579876D01*
X89216Y579753D01*
X89210Y579710D01*
X89197Y579669D01*
X89187Y579538D01*
X89169Y579408D01*
X89173Y579365D01*
X89169Y579322D01*
X89189Y579192D01*
X89201Y579061D01*
X89215Y579020D01*
X89221Y578977D01*
X89270Y578855D01*
X89311Y578730D01*
X89334Y578693D01*
X89350Y578653D01*
X89425Y578545D01*
X89494Y578433D01*
X89524Y578402D01*
X89549Y578367D01*
X89646Y578279D01*
X89739Y578185D01*
X89776Y578162D01*
X89808Y578134D01*
X89923Y578070D01*
X90034Y578000D01*
X90084Y577981D01*
X90113Y577965D01*
X90160Y577952D01*
X90263Y577912D01*
X94765Y576591D01*
X105465Y569714D01*
X113795Y560101D01*
X119079Y548530D01*
X120889Y535940D01*
X119079Y523350D01*
X113795Y511779D01*
X105465Y502166D01*
X94765Y495289D01*
X82560Y491706D01*
X69840Y491706D01*
X57635Y495289D01*
X46935Y502166D01*
X38605Y511779D01*
X33321Y523350D01*
X31511Y535940D01*
X33321Y548530D01*
X38605Y560101D01*
X46935Y569714D01*
X57635Y576591D01*
X62137Y577912D01*
X62259Y577964D01*
X62383Y578008D01*
X62419Y578031D01*
X62458Y578048D01*
X62565Y578126D01*
X62675Y578197D01*
X62705Y578228D01*
X62740Y578253D01*
X62826Y578353D01*
X62918Y578448D01*
X62940Y578485D01*
X62968Y578517D01*
X63029Y578634D01*
X63096Y578747D01*
X63110Y578788D01*
X63130Y578826D01*
X63163Y578953D01*
X63203Y579079D01*
X63206Y579122D01*
X63217Y579163D01*
X63220Y579295D01*
X63231Y579426D01*
X63224Y579469D01*
X63225Y579512D01*
X63198Y579640D01*
X63179Y579771D01*
X63163Y579811D01*
X63154Y579853D01*
X63099Y579972D01*
X63050Y580095D01*
X63026Y580130D01*
X63008Y580169D01*
X62926Y580273D01*
X62851Y580381D01*
X62819Y580410D01*
X62793Y580444D01*
X62690Y580526D01*
X62592Y580614D01*
X62555Y580635D01*
X62521Y580662D01*
X62403Y580719D01*
X62287Y580783D01*
X62246Y580795D01*
X62207Y580813D01*
X62079Y580842D01*
X61952Y580878D01*
X61899Y580882D01*
X61867Y580889D01*
X61818Y580888D01*
X61708Y580897D01*
X25146Y580897D01*
X25120Y580894D01*
X25094Y580896D01*
X24947Y580874D01*
X24800Y580857D01*
X24775Y580849D01*
X24749Y580845D01*
X24611Y580790D01*
X24472Y580740D01*
X24450Y580726D01*
X24425Y580716D01*
X24304Y580631D01*
X24179Y580551D01*
X24161Y580532D01*
X24139Y580517D01*
X24040Y580407D01*
X23937Y580300D01*
X23923Y580278D01*
X23906Y580258D01*
X23834Y580128D01*
X23758Y580001D01*
X23750Y579976D01*
X23737Y579953D01*
X23697Y579810D01*
X23652Y579669D01*
X23650Y579643D01*
X23642Y579618D01*
X23623Y579374D01*
X23623Y12446D01*
X23626Y12420D01*
X23624Y12394D01*
X23646Y12247D01*
X23663Y12100D01*
X23671Y12075D01*
X23675Y12049D01*
X23730Y11911D01*
X23780Y11772D01*
X23794Y11750D01*
X23804Y11725D01*
X23889Y11604D01*
X23969Y11479D01*
X23988Y11461D01*
X24003Y11439D01*
X24113Y11340D01*
X24220Y11237D01*
X24242Y11223D01*
X24262Y11206D01*
X24392Y11134D01*
X24519Y11058D01*
X24544Y11050D01*
X24567Y11037D01*
X24710Y10997D01*
X24851Y10952D01*
X24877Y10950D01*
X24902Y10942D01*
X25146Y10923D01*
X538734Y10923D01*
X538760Y10926D01*
G37*
%LPC*%
G36*
X69840Y44666D02*
X69840Y44666D01*
X57635Y48249D01*
X46935Y55126D01*
X38605Y64739D01*
X33321Y76310D01*
X31511Y88900D01*
X33321Y101490D01*
X38605Y113061D01*
X46935Y122674D01*
X57635Y129551D01*
X69840Y133134D01*
X76937Y133134D01*
X76963Y133137D01*
X76989Y133135D01*
X77136Y133157D01*
X77283Y133174D01*
X77308Y133183D01*
X77334Y133187D01*
X77472Y133242D01*
X77611Y133292D01*
X77633Y133306D01*
X77658Y133316D01*
X77779Y133400D01*
X77904Y133481D01*
X77922Y133500D01*
X77944Y133514D01*
X78043Y133624D01*
X78146Y133731D01*
X78160Y133754D01*
X78177Y133773D01*
X78249Y133903D01*
X78325Y134030D01*
X78333Y134055D01*
X78346Y134078D01*
X78386Y134221D01*
X78431Y134362D01*
X78433Y134388D01*
X78441Y134414D01*
X78460Y134657D01*
X78460Y136697D01*
X80050Y140534D01*
X82738Y143222D01*
X82817Y143321D01*
X82901Y143415D01*
X82925Y143457D01*
X82955Y143495D01*
X83009Y143609D01*
X83070Y143720D01*
X83083Y143767D01*
X83104Y143810D01*
X83130Y143934D01*
X83165Y144055D01*
X83170Y144116D01*
X83177Y144151D01*
X83176Y144199D01*
X83184Y144299D01*
X83184Y168121D01*
X83170Y168246D01*
X83163Y168373D01*
X83150Y168419D01*
X83144Y168467D01*
X83102Y168586D01*
X83067Y168707D01*
X83043Y168750D01*
X83027Y168795D01*
X82958Y168901D01*
X82897Y169012D01*
X82857Y169058D01*
X82838Y169088D01*
X82803Y169121D01*
X82738Y169198D01*
X80050Y171886D01*
X78460Y175723D01*
X78460Y179877D01*
X80050Y183714D01*
X82986Y186650D01*
X86823Y188240D01*
X90977Y188240D01*
X94814Y186650D01*
X97750Y183714D01*
X99340Y179877D01*
X99340Y175723D01*
X97750Y171886D01*
X95062Y169198D01*
X94983Y169099D01*
X94899Y169005D01*
X94875Y168963D01*
X94845Y168925D01*
X94791Y168811D01*
X94730Y168700D01*
X94717Y168653D01*
X94696Y168610D01*
X94670Y168486D01*
X94635Y168365D01*
X94630Y168304D01*
X94623Y168269D01*
X94624Y168221D01*
X94616Y168121D01*
X94616Y144299D01*
X94630Y144174D01*
X94637Y144047D01*
X94650Y144001D01*
X94656Y143953D01*
X94698Y143834D01*
X94733Y143713D01*
X94757Y143670D01*
X94773Y143625D01*
X94842Y143519D01*
X94903Y143408D01*
X94943Y143362D01*
X94962Y143332D01*
X94997Y143299D01*
X95062Y143222D01*
X97750Y140534D01*
X99340Y136697D01*
X99340Y132543D01*
X97886Y129034D01*
X97868Y128971D01*
X97842Y128912D01*
X97820Y128804D01*
X97790Y128699D01*
X97787Y128634D01*
X97775Y128570D01*
X97779Y128460D01*
X97773Y128351D01*
X97785Y128287D01*
X97787Y128222D01*
X97816Y128116D01*
X97836Y128008D01*
X97862Y127948D01*
X97879Y127885D01*
X97931Y127789D01*
X97975Y127688D01*
X98014Y127636D01*
X98044Y127579D01*
X98117Y127497D01*
X98183Y127408D01*
X98232Y127366D01*
X98275Y127318D01*
X98421Y127206D01*
X98449Y127183D01*
X98458Y127179D01*
X98470Y127169D01*
X105465Y122674D01*
X113795Y113061D01*
X119079Y101490D01*
X120889Y88900D01*
X119079Y76310D01*
X113795Y64739D01*
X105465Y55126D01*
X94765Y48249D01*
X82560Y44666D01*
X69840Y44666D01*
G37*
%LPD*%
%LPC*%
G36*
X196043Y32740D02*
X196043Y32740D01*
X192206Y34330D01*
X189270Y37266D01*
X187680Y41103D01*
X187680Y45257D01*
X189270Y49094D01*
X192206Y52030D01*
X196043Y53620D01*
X200197Y53620D01*
X204034Y52030D01*
X206722Y49342D01*
X206821Y49263D01*
X206915Y49179D01*
X206957Y49155D01*
X206995Y49125D01*
X207109Y49071D01*
X207220Y49010D01*
X207267Y48997D01*
X207310Y48976D01*
X207434Y48950D01*
X207555Y48915D01*
X207616Y48910D01*
X207651Y48903D01*
X207699Y48904D01*
X207799Y48896D01*
X226746Y48896D01*
X226872Y48910D01*
X226998Y48917D01*
X227045Y48930D01*
X227093Y48936D01*
X227211Y48978D01*
X227333Y49013D01*
X227375Y49037D01*
X227421Y49053D01*
X227527Y49122D01*
X227637Y49183D01*
X227683Y49223D01*
X227713Y49242D01*
X227747Y49277D01*
X227823Y49342D01*
X228204Y49723D01*
X228221Y49743D01*
X228241Y49760D01*
X228329Y49880D01*
X228421Y49996D01*
X228432Y50020D01*
X228448Y50041D01*
X228507Y50177D01*
X228570Y50311D01*
X228576Y50337D01*
X228586Y50361D01*
X228612Y50507D01*
X228643Y50652D01*
X228643Y50678D01*
X228648Y50704D01*
X228640Y50852D01*
X228637Y51000D01*
X228631Y51026D01*
X228630Y51052D01*
X228589Y51194D01*
X228552Y51338D01*
X228540Y51361D01*
X228533Y51387D01*
X228461Y51516D01*
X228393Y51648D01*
X228376Y51668D01*
X228363Y51691D01*
X228204Y51877D01*
X227193Y52888D01*
X227094Y52967D01*
X227001Y53051D01*
X226958Y53075D01*
X226920Y53105D01*
X226806Y53159D01*
X226696Y53220D01*
X226649Y53233D01*
X226605Y53254D01*
X226482Y53280D01*
X226360Y53315D01*
X226299Y53320D01*
X226265Y53327D01*
X226217Y53326D01*
X226116Y53334D01*
X217573Y53334D01*
X215472Y54204D01*
X211324Y58352D01*
X210454Y60453D01*
X210454Y78951D01*
X210440Y79076D01*
X210433Y79203D01*
X210420Y79249D01*
X210414Y79297D01*
X210372Y79416D01*
X210337Y79537D01*
X210313Y79580D01*
X210297Y79625D01*
X210228Y79731D01*
X210167Y79842D01*
X210127Y79888D01*
X210108Y79918D01*
X210073Y79951D01*
X210008Y80028D01*
X207050Y82986D01*
X205460Y86823D01*
X205460Y90977D01*
X207050Y94814D01*
X209986Y97750D01*
X213823Y99340D01*
X217977Y99340D01*
X221814Y97750D01*
X224750Y94814D01*
X226340Y90977D01*
X226340Y86823D01*
X224750Y82986D01*
X222332Y80568D01*
X222253Y80469D01*
X222169Y80375D01*
X222145Y80333D01*
X222115Y80295D01*
X222061Y80181D01*
X222000Y80070D01*
X221987Y80023D01*
X221966Y79980D01*
X221940Y79856D01*
X221905Y79735D01*
X221900Y79674D01*
X221893Y79639D01*
X221894Y79591D01*
X221886Y79491D01*
X221886Y66289D01*
X221889Y66263D01*
X221887Y66237D01*
X221909Y66090D01*
X221926Y65943D01*
X221934Y65918D01*
X221938Y65892D01*
X221993Y65754D01*
X222043Y65615D01*
X222057Y65593D01*
X222067Y65568D01*
X222152Y65447D01*
X222232Y65322D01*
X222251Y65304D01*
X222266Y65282D01*
X222376Y65183D01*
X222483Y65080D01*
X222505Y65066D01*
X222525Y65049D01*
X222655Y64977D01*
X222782Y64901D01*
X222807Y64893D01*
X222830Y64880D01*
X222973Y64840D01*
X223114Y64795D01*
X223140Y64793D01*
X223165Y64785D01*
X223409Y64766D01*
X226116Y64766D01*
X226242Y64780D01*
X226368Y64787D01*
X226415Y64800D01*
X226463Y64806D01*
X226582Y64848D01*
X226703Y64883D01*
X226745Y64907D01*
X226791Y64923D01*
X226897Y64992D01*
X227007Y65053D01*
X227053Y65093D01*
X227083Y65112D01*
X227117Y65147D01*
X227193Y65212D01*
X229846Y67865D01*
X248214Y67865D01*
X250595Y65484D01*
X250595Y52616D01*
X249856Y51877D01*
X249839Y51857D01*
X249819Y51840D01*
X249731Y51720D01*
X249639Y51604D01*
X249628Y51580D01*
X249612Y51559D01*
X249553Y51423D01*
X249490Y51289D01*
X249484Y51263D01*
X249474Y51239D01*
X249448Y51093D01*
X249417Y50948D01*
X249417Y50922D01*
X249412Y50896D01*
X249420Y50748D01*
X249423Y50600D01*
X249429Y50574D01*
X249430Y50548D01*
X249471Y50406D01*
X249508Y50262D01*
X249520Y50238D01*
X249527Y50213D01*
X249599Y50084D01*
X249667Y49952D01*
X249684Y49932D01*
X249697Y49909D01*
X249856Y49723D01*
X250595Y48984D01*
X250595Y36116D01*
X248214Y33735D01*
X229846Y33735D01*
X227442Y36139D01*
X227442Y36140D01*
X227425Y36287D01*
X227417Y36312D01*
X227413Y36338D01*
X227358Y36476D01*
X227308Y36615D01*
X227294Y36637D01*
X227284Y36662D01*
X227199Y36783D01*
X227119Y36908D01*
X227100Y36926D01*
X227085Y36948D01*
X226975Y37047D01*
X226868Y37150D01*
X226846Y37164D01*
X226826Y37181D01*
X226696Y37253D01*
X226569Y37329D01*
X226544Y37337D01*
X226521Y37350D01*
X226378Y37390D01*
X226237Y37435D01*
X226211Y37437D01*
X226186Y37445D01*
X225942Y37464D01*
X207799Y37464D01*
X207674Y37450D01*
X207547Y37443D01*
X207501Y37430D01*
X207453Y37424D01*
X207334Y37382D01*
X207213Y37347D01*
X207170Y37323D01*
X207125Y37307D01*
X207019Y37238D01*
X206908Y37177D01*
X206862Y37137D01*
X206832Y37118D01*
X206799Y37083D01*
X206722Y37018D01*
X204034Y34330D01*
X200197Y32740D01*
X196043Y32740D01*
G37*
%LPD*%
%LPC*%
G36*
X366223Y286740D02*
X366223Y286740D01*
X362386Y288330D01*
X359450Y291266D01*
X357860Y295103D01*
X357860Y299257D01*
X359450Y303094D01*
X362386Y306030D01*
X366223Y307620D01*
X370377Y307620D01*
X374214Y306030D01*
X376902Y303342D01*
X377001Y303263D01*
X377095Y303179D01*
X377137Y303155D01*
X377175Y303125D01*
X377289Y303071D01*
X377400Y303010D01*
X377447Y302997D01*
X377490Y302976D01*
X377614Y302950D01*
X377735Y302915D01*
X377796Y302910D01*
X377831Y302903D01*
X377879Y302904D01*
X377979Y302896D01*
X396721Y302896D01*
X396846Y302910D01*
X396973Y302917D01*
X397019Y302930D01*
X397067Y302936D01*
X397186Y302978D01*
X397307Y303013D01*
X397350Y303037D01*
X397395Y303053D01*
X397501Y303122D01*
X397612Y303183D01*
X397658Y303223D01*
X397688Y303242D01*
X397721Y303277D01*
X397798Y303342D01*
X400586Y306130D01*
X400629Y306169D01*
X400710Y306229D01*
X400758Y306286D01*
X400813Y306336D01*
X400870Y306418D01*
X400935Y306495D01*
X400969Y306561D01*
X401011Y306622D01*
X401048Y306716D01*
X401094Y306806D01*
X401112Y306877D01*
X401139Y306946D01*
X401154Y307046D01*
X401178Y307144D01*
X401179Y307218D01*
X401190Y307291D01*
X401182Y307392D01*
X401183Y307492D01*
X401167Y307565D01*
X401161Y307638D01*
X401131Y307734D01*
X401109Y307833D01*
X401077Y307900D01*
X401054Y307970D01*
X401003Y308056D01*
X400959Y308147D01*
X400913Y308205D01*
X400875Y308269D01*
X400805Y308341D01*
X400742Y308420D01*
X400684Y308466D01*
X400632Y308519D01*
X400590Y308546D01*
X397798Y311338D01*
X397699Y311417D01*
X397605Y311501D01*
X397563Y311525D01*
X397525Y311555D01*
X397411Y311609D01*
X397300Y311670D01*
X397253Y311683D01*
X397210Y311704D01*
X397086Y311730D01*
X396965Y311765D01*
X396904Y311770D01*
X396869Y311777D01*
X396821Y311776D01*
X396721Y311784D01*
X360199Y311784D01*
X360074Y311770D01*
X359947Y311763D01*
X359901Y311750D01*
X359853Y311744D01*
X359734Y311702D01*
X359613Y311667D01*
X359570Y311643D01*
X359525Y311627D01*
X359419Y311558D01*
X359308Y311497D01*
X359262Y311457D01*
X359232Y311438D01*
X359199Y311403D01*
X359122Y311338D01*
X356434Y308650D01*
X352597Y307060D01*
X348443Y307060D01*
X344606Y308650D01*
X341670Y311586D01*
X340080Y315423D01*
X340080Y319577D01*
X341670Y323414D01*
X344606Y326350D01*
X348443Y327940D01*
X352597Y327940D01*
X356434Y326350D01*
X359122Y323662D01*
X359221Y323583D01*
X359315Y323499D01*
X359357Y323475D01*
X359395Y323445D01*
X359509Y323391D01*
X359620Y323330D01*
X359667Y323317D01*
X359710Y323296D01*
X359834Y323270D01*
X359955Y323235D01*
X360016Y323230D01*
X360051Y323223D01*
X360099Y323224D01*
X360199Y323216D01*
X396721Y323216D01*
X396846Y323230D01*
X396973Y323237D01*
X397019Y323250D01*
X397067Y323256D01*
X397186Y323298D01*
X397307Y323333D01*
X397350Y323357D01*
X397395Y323373D01*
X397501Y323442D01*
X397612Y323503D01*
X397658Y323543D01*
X397688Y323562D01*
X397721Y323597D01*
X397798Y323662D01*
X400486Y326350D01*
X404323Y327940D01*
X408477Y327940D01*
X412314Y326350D01*
X415250Y323414D01*
X416840Y319577D01*
X416840Y315423D01*
X415250Y311586D01*
X412214Y308550D01*
X412170Y308510D01*
X412089Y308450D01*
X412041Y308393D01*
X411987Y308344D01*
X411929Y308261D01*
X411864Y308184D01*
X411831Y308118D01*
X411788Y308057D01*
X411751Y307963D01*
X411706Y307874D01*
X411688Y307802D01*
X411661Y307733D01*
X411646Y307633D01*
X411622Y307535D01*
X411621Y307461D01*
X411610Y307388D01*
X411618Y307288D01*
X411617Y307187D01*
X411633Y307115D01*
X411639Y307041D01*
X411670Y306945D01*
X411691Y306846D01*
X411723Y306779D01*
X411746Y306709D01*
X411798Y306623D01*
X411841Y306532D01*
X411887Y306474D01*
X411926Y306410D01*
X411996Y306338D01*
X412059Y306259D01*
X412117Y306214D01*
X412168Y306160D01*
X412211Y306133D01*
X415250Y303094D01*
X416840Y299257D01*
X416840Y295103D01*
X415250Y291266D01*
X412314Y288330D01*
X408477Y286740D01*
X404323Y286740D01*
X400486Y288330D01*
X397798Y291018D01*
X397699Y291097D01*
X397605Y291181D01*
X397563Y291205D01*
X397525Y291235D01*
X397411Y291289D01*
X397300Y291350D01*
X397253Y291363D01*
X397210Y291384D01*
X397086Y291410D01*
X396965Y291445D01*
X396904Y291450D01*
X396869Y291457D01*
X396821Y291456D01*
X396721Y291464D01*
X377979Y291464D01*
X377854Y291450D01*
X377727Y291443D01*
X377681Y291430D01*
X377633Y291424D01*
X377514Y291382D01*
X377393Y291347D01*
X377350Y291323D01*
X377305Y291307D01*
X377199Y291238D01*
X377088Y291177D01*
X377042Y291137D01*
X377012Y291118D01*
X376979Y291083D01*
X376902Y291018D01*
X374214Y288330D01*
X370377Y286740D01*
X366223Y286740D01*
G37*
%LPD*%
%LPC*%
G36*
X259846Y33735D02*
X259846Y33735D01*
X257465Y36116D01*
X257465Y48984D01*
X258204Y49723D01*
X258221Y49743D01*
X258241Y49760D01*
X258329Y49880D01*
X258421Y49996D01*
X258432Y50020D01*
X258448Y50041D01*
X258507Y50177D01*
X258570Y50311D01*
X258576Y50337D01*
X258586Y50361D01*
X258612Y50507D01*
X258643Y50652D01*
X258643Y50678D01*
X258648Y50704D01*
X258640Y50852D01*
X258637Y51000D01*
X258631Y51026D01*
X258630Y51052D01*
X258589Y51194D01*
X258552Y51338D01*
X258540Y51361D01*
X258533Y51387D01*
X258461Y51516D01*
X258393Y51648D01*
X258376Y51668D01*
X258363Y51691D01*
X258204Y51877D01*
X257465Y52616D01*
X257465Y65484D01*
X259846Y67865D01*
X278214Y67865D01*
X278494Y67585D01*
X278572Y67522D01*
X278645Y67452D01*
X278709Y67414D01*
X278767Y67368D01*
X278858Y67325D01*
X278944Y67273D01*
X279015Y67251D01*
X279082Y67219D01*
X279180Y67198D01*
X279276Y67167D01*
X279350Y67161D01*
X279423Y67146D01*
X279523Y67147D01*
X279623Y67139D01*
X279697Y67150D01*
X279771Y67152D01*
X279868Y67176D01*
X279968Y67191D01*
X280037Y67218D01*
X280109Y67237D01*
X280198Y67283D01*
X280292Y67320D01*
X280353Y67362D01*
X280419Y67396D01*
X280496Y67461D01*
X280578Y67519D01*
X280628Y67574D01*
X280684Y67622D01*
X280744Y67703D01*
X280811Y67777D01*
X280847Y67842D01*
X280892Y67902D01*
X280931Y67994D01*
X280980Y68082D01*
X281000Y68154D01*
X281030Y68222D01*
X281047Y68321D01*
X281075Y68418D01*
X281083Y68518D01*
X281091Y68565D01*
X281089Y68601D01*
X281094Y68662D01*
X281094Y79431D01*
X281080Y79556D01*
X281073Y79683D01*
X281060Y79729D01*
X281054Y79777D01*
X281012Y79896D01*
X280977Y80017D01*
X280953Y80060D01*
X280937Y80105D01*
X280868Y80211D01*
X280807Y80322D01*
X280767Y80368D01*
X280748Y80398D01*
X280713Y80431D01*
X280678Y80473D01*
X280676Y80476D01*
X280674Y80478D01*
X280648Y80508D01*
X278170Y82986D01*
X276580Y86823D01*
X276580Y90977D01*
X278170Y94814D01*
X281106Y97750D01*
X284943Y99340D01*
X289097Y99340D01*
X292934Y97750D01*
X295870Y94814D01*
X297460Y90977D01*
X297460Y86823D01*
X295870Y82986D01*
X292972Y80088D01*
X292893Y79989D01*
X292809Y79895D01*
X292785Y79853D01*
X292755Y79815D01*
X292701Y79701D01*
X292640Y79590D01*
X292627Y79543D01*
X292606Y79500D01*
X292580Y79376D01*
X292545Y79255D01*
X292540Y79194D01*
X292533Y79159D01*
X292534Y79111D01*
X292526Y79011D01*
X292526Y60453D01*
X291656Y58352D01*
X287508Y54204D01*
X285407Y53334D01*
X281944Y53334D01*
X281818Y53320D01*
X281692Y53313D01*
X281645Y53300D01*
X281597Y53294D01*
X281478Y53252D01*
X281357Y53217D01*
X281315Y53193D01*
X281269Y53177D01*
X281163Y53108D01*
X281053Y53047D01*
X281007Y53007D01*
X280977Y52988D01*
X280943Y52953D01*
X280867Y52888D01*
X279856Y51877D01*
X279839Y51857D01*
X279819Y51840D01*
X279731Y51720D01*
X279639Y51604D01*
X279628Y51580D01*
X279612Y51559D01*
X279553Y51423D01*
X279490Y51289D01*
X279484Y51263D01*
X279474Y51239D01*
X279448Y51093D01*
X279417Y50948D01*
X279417Y50922D01*
X279412Y50896D01*
X279420Y50748D01*
X279423Y50600D01*
X279429Y50574D01*
X279430Y50548D01*
X279471Y50406D01*
X279508Y50262D01*
X279520Y50238D01*
X279527Y50213D01*
X279599Y50084D01*
X279667Y49952D01*
X279684Y49932D01*
X279697Y49909D01*
X279856Y49723D01*
X280595Y48984D01*
X280595Y36116D01*
X278214Y33735D01*
X259846Y33735D01*
G37*
%LPD*%
%LPC*%
G36*
X114763Y258800D02*
X114763Y258800D01*
X110926Y260390D01*
X107990Y263326D01*
X106400Y267163D01*
X106400Y271317D01*
X107990Y275154D01*
X110926Y278090D01*
X114763Y279680D01*
X118917Y279680D01*
X122754Y278090D01*
X125442Y275402D01*
X125541Y275323D01*
X125635Y275239D01*
X125677Y275215D01*
X125715Y275185D01*
X125829Y275131D01*
X125940Y275070D01*
X125987Y275057D01*
X126030Y275036D01*
X126154Y275010D01*
X126275Y274975D01*
X126336Y274970D01*
X126371Y274963D01*
X126419Y274964D01*
X126519Y274956D01*
X178281Y274956D01*
X178406Y274970D01*
X178533Y274977D01*
X178579Y274990D01*
X178627Y274996D01*
X178746Y275038D01*
X178867Y275073D01*
X178910Y275097D01*
X178955Y275113D01*
X179061Y275182D01*
X179172Y275243D01*
X179218Y275283D01*
X179248Y275302D01*
X179281Y275337D01*
X179358Y275402D01*
X182046Y278090D01*
X185883Y279680D01*
X190037Y279680D01*
X193874Y278090D01*
X196810Y275154D01*
X198400Y271317D01*
X198400Y267163D01*
X196810Y263326D01*
X193874Y260390D01*
X190037Y258800D01*
X185883Y258800D01*
X182046Y260390D01*
X179358Y263078D01*
X179259Y263157D01*
X179165Y263241D01*
X179123Y263265D01*
X179085Y263295D01*
X178971Y263349D01*
X178860Y263410D01*
X178813Y263423D01*
X178770Y263444D01*
X178646Y263470D01*
X178525Y263505D01*
X178464Y263510D01*
X178429Y263517D01*
X178381Y263516D01*
X178281Y263524D01*
X126519Y263524D01*
X126394Y263510D01*
X126267Y263503D01*
X126221Y263490D01*
X126173Y263484D01*
X126054Y263442D01*
X125933Y263407D01*
X125890Y263383D01*
X125845Y263367D01*
X125739Y263298D01*
X125628Y263237D01*
X125582Y263197D01*
X125552Y263178D01*
X125519Y263143D01*
X125442Y263078D01*
X122754Y260390D01*
X118917Y258800D01*
X114763Y258800D01*
G37*
%LPD*%
%LPC*%
G36*
X366223Y230860D02*
X366223Y230860D01*
X362386Y232450D01*
X359450Y235386D01*
X357860Y239223D01*
X357860Y243377D01*
X359450Y247214D01*
X362386Y250150D01*
X366223Y251740D01*
X370377Y251740D01*
X374214Y250150D01*
X376902Y247462D01*
X377001Y247383D01*
X377095Y247299D01*
X377137Y247275D01*
X377175Y247245D01*
X377289Y247191D01*
X377400Y247130D01*
X377447Y247117D01*
X377490Y247096D01*
X377614Y247070D01*
X377735Y247035D01*
X377796Y247030D01*
X377831Y247023D01*
X377879Y247024D01*
X377979Y247016D01*
X409421Y247016D01*
X409546Y247030D01*
X409673Y247037D01*
X409719Y247050D01*
X409767Y247056D01*
X409886Y247098D01*
X410007Y247133D01*
X410050Y247157D01*
X410095Y247173D01*
X410201Y247242D01*
X410312Y247303D01*
X410358Y247343D01*
X410388Y247362D01*
X410398Y247372D01*
X410399Y247373D01*
X410423Y247399D01*
X410498Y247462D01*
X413186Y250150D01*
X417023Y251740D01*
X421177Y251740D01*
X425014Y250150D01*
X427950Y247214D01*
X429540Y243377D01*
X429540Y239223D01*
X427950Y235386D01*
X425014Y232450D01*
X421177Y230860D01*
X417023Y230860D01*
X413186Y232450D01*
X410498Y235138D01*
X410399Y235217D01*
X410305Y235301D01*
X410263Y235325D01*
X410225Y235355D01*
X410111Y235409D01*
X410000Y235470D01*
X409953Y235483D01*
X409910Y235504D01*
X409786Y235530D01*
X409665Y235565D01*
X409604Y235570D01*
X409569Y235577D01*
X409521Y235576D01*
X409421Y235584D01*
X377979Y235584D01*
X377854Y235570D01*
X377727Y235563D01*
X377681Y235550D01*
X377633Y235544D01*
X377514Y235502D01*
X377393Y235467D01*
X377350Y235443D01*
X377305Y235427D01*
X377199Y235358D01*
X377088Y235297D01*
X377042Y235257D01*
X377012Y235238D01*
X376979Y235203D01*
X376902Y235138D01*
X374214Y232450D01*
X370377Y230860D01*
X366223Y230860D01*
G37*
%LPD*%
%LPC*%
G36*
X404323Y434060D02*
X404323Y434060D01*
X400486Y435650D01*
X397516Y438620D01*
X397417Y438699D01*
X397323Y438783D01*
X397281Y438807D01*
X397243Y438837D01*
X397129Y438891D01*
X397018Y438952D01*
X396971Y438965D01*
X396928Y438986D01*
X396804Y439012D01*
X396683Y439047D01*
X396622Y439052D01*
X396587Y439059D01*
X396539Y439058D01*
X396439Y439066D01*
X375439Y439066D01*
X375314Y439052D01*
X375187Y439045D01*
X375141Y439032D01*
X375093Y439026D01*
X374974Y438984D01*
X374853Y438949D01*
X374810Y438925D01*
X374765Y438909D01*
X374659Y438840D01*
X374548Y438779D01*
X374502Y438739D01*
X374472Y438720D01*
X374439Y438685D01*
X374362Y438620D01*
X371674Y435932D01*
X367837Y434342D01*
X363683Y434342D01*
X359846Y435932D01*
X356910Y438868D01*
X355320Y442705D01*
X355320Y446859D01*
X356910Y450696D01*
X359846Y453632D01*
X363683Y455222D01*
X367837Y455222D01*
X371674Y453632D01*
X374362Y450944D01*
X374461Y450865D01*
X374555Y450781D01*
X374597Y450757D01*
X374635Y450727D01*
X374749Y450673D01*
X374860Y450612D01*
X374907Y450599D01*
X374950Y450578D01*
X375074Y450552D01*
X375195Y450517D01*
X375256Y450512D01*
X375291Y450505D01*
X375339Y450506D01*
X375439Y450498D01*
X397003Y450498D01*
X397128Y450512D01*
X397255Y450519D01*
X397301Y450532D01*
X397349Y450538D01*
X397468Y450580D01*
X397589Y450615D01*
X397632Y450639D01*
X397677Y450655D01*
X397783Y450724D01*
X397894Y450785D01*
X397940Y450825D01*
X397970Y450844D01*
X398003Y450879D01*
X398080Y450944D01*
X400486Y453350D01*
X404323Y454940D01*
X408477Y454940D01*
X412314Y453350D01*
X415250Y450414D01*
X416840Y446577D01*
X416840Y442423D01*
X415250Y438586D01*
X412314Y435650D01*
X408477Y434060D01*
X404323Y434060D01*
G37*
%LPD*%
%LPC*%
G36*
X175097Y481710D02*
X175097Y481710D01*
X170102Y483779D01*
X166279Y487602D01*
X164210Y492597D01*
X164210Y498003D01*
X166279Y502998D01*
X170012Y506731D01*
X170028Y506751D01*
X170048Y506768D01*
X170136Y506888D01*
X170228Y507004D01*
X170240Y507027D01*
X170255Y507048D01*
X170314Y507185D01*
X170377Y507319D01*
X170383Y507344D01*
X170393Y507368D01*
X170419Y507515D01*
X170451Y507659D01*
X170450Y507685D01*
X170455Y507711D01*
X170447Y507860D01*
X170445Y508008D01*
X170438Y508033D01*
X170437Y508059D01*
X170396Y508202D01*
X170360Y508346D01*
X170348Y508369D01*
X170340Y508394D01*
X170268Y508524D01*
X170200Y508656D01*
X170183Y508676D01*
X170170Y508698D01*
X170012Y508885D01*
X165734Y513162D01*
X165734Y516129D01*
X177292Y516129D01*
X177318Y516132D01*
X177344Y516130D01*
X177491Y516152D01*
X177638Y516169D01*
X177663Y516177D01*
X177689Y516181D01*
X177796Y516224D01*
X177872Y516203D01*
X178013Y516158D01*
X178039Y516155D01*
X178064Y516148D01*
X178308Y516129D01*
X189866Y516129D01*
X189866Y513162D01*
X185588Y508885D01*
X185572Y508864D01*
X185552Y508847D01*
X185464Y508728D01*
X185372Y508612D01*
X185360Y508588D01*
X185345Y508567D01*
X185286Y508431D01*
X185223Y508297D01*
X185217Y508271D01*
X185207Y508247D01*
X185181Y508101D01*
X185149Y507956D01*
X185150Y507930D01*
X185145Y507904D01*
X185153Y507755D01*
X185155Y507607D01*
X185162Y507582D01*
X185163Y507556D01*
X185204Y507413D01*
X185240Y507269D01*
X185252Y507246D01*
X185260Y507221D01*
X185332Y507091D01*
X185400Y506960D01*
X185417Y506940D01*
X185430Y506917D01*
X185588Y506731D01*
X189321Y502998D01*
X191390Y498003D01*
X191390Y492597D01*
X189321Y487602D01*
X185498Y483779D01*
X180503Y481710D01*
X175097Y481710D01*
G37*
%LPD*%
%LPC*%
G36*
X219276Y394795D02*
X219276Y394795D01*
X216895Y397176D01*
X216895Y415624D01*
X219276Y418005D01*
X237724Y418005D01*
X240105Y415624D01*
X240105Y397176D01*
X237724Y394795D01*
X219276Y394795D01*
G37*
%LPD*%
%LPC*%
G36*
X219276Y343995D02*
X219276Y343995D01*
X216895Y346376D01*
X216895Y364824D01*
X219276Y367205D01*
X237724Y367205D01*
X240105Y364824D01*
X240105Y346376D01*
X237724Y343995D01*
X219276Y343995D01*
G37*
%LPD*%
%LPC*%
G36*
X219276Y293195D02*
X219276Y293195D01*
X216895Y295576D01*
X216895Y314024D01*
X219276Y316405D01*
X237724Y316405D01*
X240105Y314024D01*
X240105Y295576D01*
X237724Y293195D01*
X219276Y293195D01*
G37*
%LPD*%
%LPC*%
G36*
X281939Y561339D02*
X281939Y561339D01*
X281939Y576279D01*
X283300Y575836D01*
X284725Y575110D01*
X286019Y574170D01*
X287150Y573039D01*
X288090Y571745D01*
X288816Y570320D01*
X289311Y568799D01*
X289561Y567220D01*
X289561Y561339D01*
X281939Y561339D01*
G37*
%LPD*%
%LPC*%
G36*
X281939Y556261D02*
X281939Y556261D01*
X289561Y556261D01*
X289561Y550380D01*
X289311Y548801D01*
X288816Y547280D01*
X288090Y545855D01*
X287150Y544561D01*
X286019Y543430D01*
X284725Y542490D01*
X283300Y541764D01*
X281939Y541321D01*
X281939Y556261D01*
G37*
%LPD*%
%LPC*%
G36*
X269239Y561339D02*
X269239Y561339D01*
X269239Y567220D01*
X269489Y568799D01*
X269984Y570320D01*
X270710Y571745D01*
X271650Y573039D01*
X272781Y574170D01*
X274075Y575110D01*
X275500Y575836D01*
X276861Y576279D01*
X276861Y561339D01*
X269239Y561339D01*
G37*
%LPD*%
%LPC*%
G36*
X275500Y541764D02*
X275500Y541764D01*
X274075Y542490D01*
X272781Y543430D01*
X271650Y544561D01*
X270710Y545855D01*
X269984Y547280D01*
X269489Y548801D01*
X269239Y550380D01*
X269239Y556261D01*
X276861Y556261D01*
X276861Y541321D01*
X275500Y541764D01*
G37*
%LPD*%
%LPC*%
G36*
X179831Y520191D02*
X179831Y520191D01*
X179831Y530226D01*
X182798Y530226D01*
X189866Y523158D01*
X189866Y520191D01*
X179831Y520191D01*
G37*
%LPD*%
%LPC*%
G36*
X179831Y446531D02*
X179831Y446531D01*
X179831Y456566D01*
X182798Y456566D01*
X189866Y449498D01*
X189866Y446531D01*
X179831Y446531D01*
G37*
%LPD*%
%LPC*%
G36*
X165734Y520191D02*
X165734Y520191D01*
X165734Y523158D01*
X172802Y530226D01*
X175769Y530226D01*
X175769Y520191D01*
X165734Y520191D01*
G37*
%LPD*%
%LPC*%
G36*
X165734Y446531D02*
X165734Y446531D01*
X165734Y449498D01*
X172802Y456566D01*
X175769Y456566D01*
X175769Y446531D01*
X165734Y446531D01*
G37*
%LPD*%
%LPC*%
G36*
X179831Y432434D02*
X179831Y432434D01*
X179831Y442469D01*
X189866Y442469D01*
X189866Y439502D01*
X182798Y432434D01*
X179831Y432434D01*
G37*
%LPD*%
%LPC*%
G36*
X172802Y432434D02*
X172802Y432434D01*
X165734Y439502D01*
X165734Y442469D01*
X175769Y442469D01*
X175769Y432434D01*
X172802Y432434D01*
G37*
%LPD*%
%LPC*%
G36*
X281999Y408899D02*
X281999Y408899D01*
X281999Y416187D01*
X283370Y415742D01*
X284783Y415022D01*
X286067Y414089D01*
X287189Y412967D01*
X288122Y411683D01*
X288842Y410270D01*
X289287Y408899D01*
X281999Y408899D01*
G37*
%LPD*%
%LPC*%
G36*
X281999Y358099D02*
X281999Y358099D01*
X281999Y365387D01*
X283370Y364942D01*
X284783Y364222D01*
X286067Y363289D01*
X287189Y362167D01*
X288122Y360883D01*
X288842Y359470D01*
X289287Y358099D01*
X281999Y358099D01*
G37*
%LPD*%
%LPC*%
G36*
X281999Y307299D02*
X281999Y307299D01*
X281999Y314587D01*
X283370Y314142D01*
X284783Y313422D01*
X286067Y312489D01*
X287189Y311367D01*
X288122Y310083D01*
X288842Y308670D01*
X289287Y307299D01*
X281999Y307299D01*
G37*
%LPD*%
%LPC*%
G36*
X269713Y408899D02*
X269713Y408899D01*
X270158Y410270D01*
X270878Y411683D01*
X271811Y412967D01*
X272933Y414089D01*
X274217Y415022D01*
X275630Y415742D01*
X277001Y416187D01*
X277001Y408899D01*
X269713Y408899D01*
G37*
%LPD*%
%LPC*%
G36*
X269713Y358099D02*
X269713Y358099D01*
X270158Y359470D01*
X270878Y360883D01*
X271811Y362167D01*
X272933Y363289D01*
X274217Y364222D01*
X275630Y364942D01*
X277001Y365387D01*
X277001Y358099D01*
X269713Y358099D01*
G37*
%LPD*%
%LPC*%
G36*
X281999Y353101D02*
X281999Y353101D01*
X289287Y353101D01*
X288842Y351730D01*
X288122Y350317D01*
X287189Y349033D01*
X286067Y347911D01*
X284783Y346978D01*
X283370Y346258D01*
X281999Y345813D01*
X281999Y353101D01*
G37*
%LPD*%
%LPC*%
G36*
X269713Y307299D02*
X269713Y307299D01*
X270158Y308670D01*
X270878Y310083D01*
X271811Y311367D01*
X272933Y312489D01*
X274217Y313422D01*
X275630Y314142D01*
X277001Y314587D01*
X277001Y307299D01*
X269713Y307299D01*
G37*
%LPD*%
%LPC*%
G36*
X281999Y302301D02*
X281999Y302301D01*
X289287Y302301D01*
X288842Y300930D01*
X288122Y299517D01*
X287189Y298233D01*
X286067Y297111D01*
X284783Y296178D01*
X283370Y295458D01*
X281999Y295013D01*
X281999Y302301D01*
G37*
%LPD*%
%LPC*%
G36*
X281999Y403901D02*
X281999Y403901D01*
X289287Y403901D01*
X288842Y402530D01*
X288122Y401117D01*
X287189Y399833D01*
X286067Y398711D01*
X284783Y397778D01*
X283370Y397058D01*
X281999Y396613D01*
X281999Y403901D01*
G37*
%LPD*%
%LPC*%
G36*
X275630Y346258D02*
X275630Y346258D01*
X274217Y346978D01*
X272933Y347911D01*
X271811Y349033D01*
X270878Y350317D01*
X270158Y351730D01*
X269713Y353101D01*
X277001Y353101D01*
X277001Y345813D01*
X275630Y346258D01*
G37*
%LPD*%
%LPC*%
G36*
X275630Y295458D02*
X275630Y295458D01*
X274217Y296178D01*
X272933Y297111D01*
X271811Y298233D01*
X270878Y299517D01*
X270158Y300930D01*
X269713Y302301D01*
X277001Y302301D01*
X277001Y295013D01*
X275630Y295458D01*
G37*
%LPD*%
%LPC*%
G36*
X275630Y397058D02*
X275630Y397058D01*
X274217Y397778D01*
X272933Y398711D01*
X271811Y399833D01*
X270878Y401117D01*
X270158Y402530D01*
X269713Y403901D01*
X277001Y403901D01*
X277001Y396613D01*
X275630Y397058D01*
G37*
%LPD*%
D10*
X228500Y304800D03*
D11*
X279500Y304800D03*
D10*
X228500Y355600D03*
D11*
X279500Y355600D03*
D10*
X228500Y406400D03*
D11*
X279500Y406400D03*
D12*
X269030Y42550D03*
X239030Y42550D03*
X269030Y59050D03*
X239030Y59050D03*
D13*
X228600Y551180D02*
X228600Y566420D01*
X254000Y566420D02*
X254000Y551180D01*
X279400Y551180D02*
X279400Y566420D01*
X304800Y566420D02*
X304800Y551180D01*
X330200Y551180D02*
X330200Y566420D01*
X355600Y566420D02*
X355600Y551180D01*
X381000Y551180D02*
X381000Y566420D01*
X406400Y566420D02*
X406400Y551180D01*
X431800Y551180D02*
X431800Y566420D01*
X457200Y566420D02*
X457200Y551180D01*
X482600Y551180D02*
X482600Y566420D01*
X508000Y566420D02*
X508000Y551180D01*
D14*
X177800Y568960D03*
D15*
X177800Y518160D03*
D14*
X177800Y495300D03*
D15*
X177800Y444500D03*
D16*
X314960Y205740D03*
X353060Y78740D03*
X292100Y129540D03*
X287020Y228600D03*
X101600Y304800D03*
X50800Y304800D03*
X431800Y436880D03*
X335280Y297180D03*
X228600Y254000D03*
X210820Y127000D03*
X203200Y167640D03*
X368300Y297180D03*
D17*
X406400Y297180D01*
D16*
X406400Y297180D03*
X406400Y317500D03*
D17*
X350520Y317500D01*
D16*
X350520Y317500D03*
X88900Y134620D03*
D17*
X88900Y177800D01*
D16*
X88900Y177800D03*
D17*
X269030Y59050D02*
X284270Y59050D01*
X286810Y61590D01*
X286810Y88690D02*
X287020Y88900D01*
X286810Y88690D02*
X286810Y61590D01*
D16*
X287020Y88900D03*
X187960Y269240D03*
D17*
X116840Y269240D01*
D16*
X116840Y269240D03*
X365760Y444782D03*
D17*
X406118Y444782D01*
X406400Y444500D01*
D16*
X406400Y444500D03*
X368300Y241300D03*
D17*
X419100Y241300D01*
D16*
X419100Y241300D03*
X215900Y88900D03*
D17*
X216170Y88630D01*
X216170Y61590D01*
X218710Y59050D02*
X239030Y59050D01*
X218710Y59050D02*
X216170Y61590D01*
D16*
X198120Y43180D03*
D17*
X238400Y43180D01*
X239030Y42550D01*
M02*
