G04 EAGLE Gerber RS-274X export*
G75*
%MOMM*%
%FSLAX34Y34*%
%LPD*%
%INTop Copper*%
%IPPOS*%
%AMOC8*
5,1,8,0,0,1.08239X$1,22.5*%
G01*
%ADD10R,1.300000X1.500000*%
%ADD11R,1.270000X1.120000*%
%ADD12R,1.508000X1.508000*%
%ADD13C,1.508000*%
%ADD14R,1.120000X1.270000*%
%ADD15R,2.200000X0.600000*%
%ADD16R,1.400000X0.300000*%
%ADD17R,1.500000X1.300000*%
%ADD18R,0.889000X0.787400*%
%ADD19C,1.524000*%
%ADD20C,1.905000*%
%ADD21P,2.061953X8X292.500000*%
%ADD22R,1.800000X0.450000*%
%ADD23C,0.330200*%
%ADD24C,1.275000*%
%ADD25C,0.330200*%

G36*
X211200Y215621D02*
X211200Y215621D01*
X211252Y215619D01*
X211321Y215639D01*
X211392Y215649D01*
X211439Y215673D01*
X211489Y215688D01*
X211548Y215728D01*
X211612Y215761D01*
X211648Y215798D01*
X211691Y215828D01*
X211734Y215885D01*
X211784Y215937D01*
X211807Y215979D01*
X213546Y217719D01*
X215787Y218647D01*
X231278Y218647D01*
X231323Y218654D01*
X231369Y218652D01*
X231444Y218674D01*
X231521Y218686D01*
X231561Y218708D01*
X231605Y218721D01*
X231669Y218765D01*
X231738Y218802D01*
X231770Y218835D01*
X231807Y218861D01*
X231854Y218924D01*
X231907Y218980D01*
X231927Y219022D01*
X231954Y219058D01*
X231978Y219132D01*
X232011Y219203D01*
X232016Y219249D01*
X232030Y219292D01*
X232029Y219370D01*
X232038Y219447D01*
X232028Y219492D01*
X232028Y219538D01*
X231990Y219670D01*
X231986Y219688D01*
X231983Y219692D01*
X231981Y219699D01*
X231903Y219887D01*
X231903Y237313D01*
X232831Y239554D01*
X234546Y241269D01*
X236787Y242197D01*
X239204Y242197D01*
X239295Y242211D01*
X239386Y242219D01*
X239415Y242231D01*
X239447Y242236D01*
X239528Y242279D01*
X239612Y242315D01*
X239644Y242341D01*
X239665Y242352D01*
X239687Y242375D01*
X239743Y242420D01*
X240218Y242895D01*
X242905Y245582D01*
X245191Y247868D01*
X248039Y249048D01*
X316579Y249048D01*
X316675Y249063D01*
X316772Y249073D01*
X316796Y249083D01*
X316822Y249087D01*
X316908Y249133D01*
X316997Y249173D01*
X317016Y249190D01*
X317039Y249203D01*
X317106Y249273D01*
X317178Y249339D01*
X317191Y249362D01*
X317209Y249381D01*
X317250Y249469D01*
X317297Y249555D01*
X317301Y249580D01*
X317312Y249604D01*
X317323Y249701D01*
X317340Y249797D01*
X317336Y249823D01*
X317339Y249848D01*
X317319Y249944D01*
X317304Y250040D01*
X317293Y250063D01*
X317287Y250089D01*
X317237Y250172D01*
X317193Y250259D01*
X317174Y250278D01*
X317161Y250300D01*
X317087Y250363D01*
X317017Y250431D01*
X316989Y250447D01*
X316974Y250460D01*
X316943Y250472D01*
X316870Y250512D01*
X314506Y251491D01*
X312791Y253206D01*
X312608Y253649D01*
X312546Y253749D01*
X312486Y253849D01*
X312482Y253853D01*
X312478Y253858D01*
X312388Y253933D01*
X312300Y254009D01*
X312294Y254011D01*
X312289Y254015D01*
X312181Y254057D01*
X312071Y254101D01*
X312064Y254102D01*
X312059Y254103D01*
X312041Y254104D01*
X311905Y254119D01*
X306983Y254119D01*
X306983Y263398D01*
X306980Y263418D01*
X306982Y263437D01*
X306960Y263539D01*
X306943Y263641D01*
X306934Y263658D01*
X306930Y263678D01*
X306877Y263767D01*
X306828Y263858D01*
X306814Y263872D01*
X306804Y263889D01*
X306725Y263956D01*
X306650Y264027D01*
X306632Y264036D01*
X306617Y264049D01*
X306521Y264087D01*
X306427Y264131D01*
X306407Y264133D01*
X306389Y264141D01*
X306222Y264159D01*
X305459Y264159D01*
X305459Y264161D01*
X306222Y264161D01*
X306242Y264164D01*
X306261Y264162D01*
X306363Y264184D01*
X306465Y264201D01*
X306482Y264210D01*
X306502Y264214D01*
X306591Y264267D01*
X306682Y264316D01*
X306696Y264330D01*
X306713Y264340D01*
X306780Y264419D01*
X306851Y264494D01*
X306860Y264512D01*
X306873Y264527D01*
X306912Y264623D01*
X306955Y264717D01*
X306957Y264737D01*
X306965Y264755D01*
X306983Y264922D01*
X306983Y274201D01*
X311905Y274201D01*
X312019Y274220D01*
X312136Y274237D01*
X312141Y274239D01*
X312147Y274240D01*
X312250Y274295D01*
X312355Y274348D01*
X312359Y274353D01*
X312365Y274356D01*
X312445Y274440D01*
X312527Y274524D01*
X312531Y274530D01*
X312534Y274534D01*
X312542Y274551D01*
X312608Y274671D01*
X312791Y275114D01*
X314506Y276829D01*
X316242Y277548D01*
X316342Y277609D01*
X316442Y277669D01*
X316446Y277674D01*
X316451Y277677D01*
X316526Y277768D01*
X316602Y277856D01*
X316604Y277862D01*
X316608Y277867D01*
X316650Y277975D01*
X316694Y278084D01*
X316695Y278092D01*
X316696Y278096D01*
X316697Y278115D01*
X316712Y278251D01*
X316712Y278415D01*
X316698Y278505D01*
X316690Y278596D01*
X316678Y278626D01*
X316673Y278658D01*
X316630Y278739D01*
X316594Y278823D01*
X316568Y278855D01*
X316557Y278876D01*
X316534Y278898D01*
X316489Y278954D01*
X310723Y284720D01*
X310707Y284731D01*
X310695Y284747D01*
X310607Y284803D01*
X310524Y284863D01*
X310505Y284869D01*
X310488Y284880D01*
X310387Y284905D01*
X310288Y284936D01*
X310269Y284935D01*
X310249Y284940D01*
X310146Y284932D01*
X310043Y284929D01*
X310024Y284922D01*
X310004Y284921D01*
X309909Y284881D01*
X309812Y284845D01*
X309796Y284832D01*
X309778Y284825D01*
X309647Y284720D01*
X300427Y275500D01*
X300385Y275442D01*
X300336Y275390D01*
X300314Y275343D01*
X300284Y275301D01*
X300263Y275232D01*
X300232Y275167D01*
X300227Y275115D01*
X300211Y275065D01*
X300213Y274994D01*
X300205Y274923D01*
X300216Y274872D01*
X300218Y274820D01*
X300242Y274752D01*
X300258Y274682D01*
X300284Y274637D01*
X300302Y274589D01*
X300347Y274533D01*
X300384Y274471D01*
X300423Y274437D01*
X300456Y274397D01*
X300516Y274358D01*
X300571Y274311D01*
X300619Y274292D01*
X300663Y274264D01*
X300732Y274246D01*
X300799Y274219D01*
X300870Y274211D01*
X300901Y274203D01*
X300925Y274205D01*
X300965Y274201D01*
X303937Y274201D01*
X303937Y265683D01*
X296419Y265683D01*
X296419Y269655D01*
X296408Y269725D01*
X296406Y269797D01*
X296388Y269846D01*
X296380Y269897D01*
X296346Y269961D01*
X296321Y270028D01*
X296289Y270069D01*
X296264Y270115D01*
X296212Y270164D01*
X296168Y270220D01*
X296124Y270248D01*
X296086Y270284D01*
X296021Y270314D01*
X295961Y270353D01*
X295910Y270366D01*
X295863Y270388D01*
X295792Y270396D01*
X295722Y270413D01*
X295670Y270409D01*
X295619Y270415D01*
X295548Y270399D01*
X295477Y270394D01*
X295429Y270374D01*
X295378Y270362D01*
X295317Y270326D01*
X295251Y270298D01*
X295195Y270253D01*
X295167Y270236D01*
X295152Y270219D01*
X295120Y270193D01*
X289885Y264958D01*
X287599Y262672D01*
X284751Y261492D01*
X198165Y261492D01*
X198075Y261478D01*
X197984Y261470D01*
X197955Y261458D01*
X197923Y261453D01*
X197842Y261410D01*
X197758Y261374D01*
X197726Y261348D01*
X197705Y261337D01*
X197683Y261314D01*
X197627Y261269D01*
X195025Y258667D01*
X190441Y256768D01*
X185479Y256768D01*
X180895Y258667D01*
X177387Y262175D01*
X175488Y266759D01*
X175488Y271721D01*
X177387Y276305D01*
X180895Y279813D01*
X185479Y281712D01*
X190441Y281712D01*
X195025Y279813D01*
X197627Y277211D01*
X197701Y277158D01*
X197770Y277098D01*
X197801Y277086D01*
X197827Y277067D01*
X197914Y277040D01*
X197999Y277006D01*
X198040Y277002D01*
X198062Y276995D01*
X198094Y276996D01*
X198165Y276988D01*
X279685Y276988D01*
X279776Y277002D01*
X279866Y277010D01*
X279896Y277022D01*
X279928Y277027D01*
X280009Y277070D01*
X280093Y277106D01*
X280125Y277132D01*
X280146Y277143D01*
X280147Y277144D01*
X280168Y277166D01*
X280224Y277211D01*
X301909Y298896D01*
X301962Y298970D01*
X302022Y299040D01*
X302034Y299070D01*
X302053Y299096D01*
X302080Y299183D01*
X302114Y299268D01*
X302118Y299309D01*
X302125Y299331D01*
X302124Y299363D01*
X302132Y299435D01*
X302132Y339361D01*
X303312Y342209D01*
X312921Y351818D01*
X315769Y352998D01*
X316942Y352998D01*
X316962Y353001D01*
X316981Y352999D01*
X317083Y353021D01*
X317185Y353037D01*
X317202Y353047D01*
X317222Y353051D01*
X317311Y353104D01*
X317402Y353153D01*
X317416Y353167D01*
X317433Y353177D01*
X317500Y353256D01*
X317572Y353331D01*
X317580Y353349D01*
X317593Y353364D01*
X317632Y353460D01*
X317675Y353554D01*
X317677Y353574D01*
X317685Y353592D01*
X317703Y353759D01*
X317703Y400713D01*
X318631Y402954D01*
X318890Y403212D01*
X318901Y403228D01*
X318917Y403240D01*
X318973Y403328D01*
X319033Y403411D01*
X319039Y403430D01*
X319050Y403447D01*
X319075Y403548D01*
X319106Y403647D01*
X319105Y403667D01*
X319110Y403686D01*
X319102Y403789D01*
X319099Y403892D01*
X319092Y403911D01*
X319091Y403931D01*
X319050Y404026D01*
X319015Y404123D01*
X319002Y404139D01*
X318994Y404157D01*
X318890Y404288D01*
X318631Y404546D01*
X317703Y406787D01*
X317703Y413713D01*
X318631Y415954D01*
X320346Y417669D01*
X320789Y417852D01*
X320889Y417914D01*
X320989Y417974D01*
X320993Y417978D01*
X320998Y417982D01*
X321073Y418072D01*
X321149Y418160D01*
X321151Y418166D01*
X321155Y418171D01*
X321197Y418279D01*
X321241Y418389D01*
X321242Y418396D01*
X321243Y418401D01*
X321244Y418419D01*
X321259Y418555D01*
X321259Y419334D01*
X321432Y419981D01*
X321767Y420560D01*
X322240Y421033D01*
X322819Y421368D01*
X323466Y421541D01*
X331676Y421541D01*
X331676Y419358D01*
X331679Y419338D01*
X331677Y419319D01*
X331699Y419217D01*
X331715Y419115D01*
X331725Y419098D01*
X331729Y419078D01*
X331782Y418989D01*
X331831Y418898D01*
X331845Y418884D01*
X331855Y418867D01*
X331934Y418800D01*
X332009Y418728D01*
X332027Y418720D01*
X332042Y418707D01*
X332138Y418668D01*
X332232Y418625D01*
X332252Y418623D01*
X332270Y418615D01*
X332437Y418597D01*
X333163Y418597D01*
X333183Y418600D01*
X333202Y418598D01*
X333304Y418620D01*
X333406Y418636D01*
X333423Y418646D01*
X333443Y418650D01*
X333532Y418703D01*
X333623Y418752D01*
X333637Y418766D01*
X333654Y418776D01*
X333721Y418855D01*
X333793Y418930D01*
X333801Y418948D01*
X333814Y418963D01*
X333853Y419059D01*
X333896Y419153D01*
X333898Y419173D01*
X333906Y419191D01*
X333924Y419358D01*
X333924Y421541D01*
X342011Y421541D01*
X342031Y421544D01*
X342050Y421542D01*
X342152Y421564D01*
X342254Y421580D01*
X342271Y421590D01*
X342291Y421594D01*
X342380Y421647D01*
X342471Y421696D01*
X342485Y421710D01*
X342502Y421720D01*
X342569Y421799D01*
X342641Y421874D01*
X342649Y421892D01*
X342662Y421907D01*
X342701Y422003D01*
X342744Y422097D01*
X342746Y422117D01*
X342754Y422135D01*
X342772Y422302D01*
X342772Y537481D01*
X343952Y540329D01*
X344964Y541341D01*
X344976Y541357D01*
X344991Y541370D01*
X345047Y541457D01*
X345108Y541541D01*
X345113Y541560D01*
X345124Y541577D01*
X345150Y541677D01*
X345180Y541776D01*
X345179Y541796D01*
X345184Y541815D01*
X345176Y541918D01*
X345174Y542022D01*
X345167Y542040D01*
X345165Y542060D01*
X345125Y542155D01*
X345089Y542253D01*
X345077Y542268D01*
X345069Y542287D01*
X344985Y542392D01*
X344983Y542395D01*
X344981Y542397D01*
X344964Y542418D01*
X343972Y543410D01*
X343603Y544299D01*
X343566Y544360D01*
X343536Y544425D01*
X343501Y544464D01*
X343474Y544508D01*
X343418Y544554D01*
X343370Y544607D01*
X343324Y544632D01*
X343284Y544665D01*
X343217Y544691D01*
X343154Y544725D01*
X343103Y544734D01*
X343055Y544753D01*
X342983Y544756D01*
X342912Y544769D01*
X342861Y544761D01*
X342809Y544763D01*
X342740Y544744D01*
X342669Y544733D01*
X342623Y544709D01*
X342573Y544695D01*
X342514Y544654D01*
X342450Y544622D01*
X342413Y544584D01*
X342371Y544555D01*
X342328Y544497D01*
X342278Y544446D01*
X342243Y544383D01*
X342224Y544357D01*
X342216Y544335D01*
X342197Y544299D01*
X341828Y543410D01*
X338171Y539752D01*
X338118Y539678D01*
X338058Y539609D01*
X338046Y539579D01*
X338027Y539553D01*
X338000Y539465D01*
X337966Y539381D01*
X337962Y539340D01*
X337955Y539317D01*
X337956Y539285D01*
X337948Y539214D01*
X337948Y460739D01*
X336768Y457891D01*
X329509Y450632D01*
X326661Y449452D01*
X254985Y449452D01*
X254894Y449438D01*
X254804Y449430D01*
X254774Y449418D01*
X254742Y449413D01*
X254661Y449370D01*
X254577Y449334D01*
X254545Y449308D01*
X254524Y449297D01*
X254502Y449274D01*
X254446Y449229D01*
X226553Y421336D01*
X226511Y421278D01*
X226462Y421226D01*
X226440Y421179D01*
X226410Y421137D01*
X226389Y421068D01*
X226358Y421003D01*
X226353Y420951D01*
X226337Y420901D01*
X226339Y420830D01*
X226331Y420759D01*
X226342Y420708D01*
X226344Y420656D01*
X226368Y420588D01*
X226384Y420518D01*
X226410Y420473D01*
X226428Y420425D01*
X226473Y420369D01*
X226510Y420307D01*
X226549Y420273D01*
X226582Y420233D01*
X226642Y420194D01*
X226697Y420147D01*
X226745Y420128D01*
X226789Y420100D01*
X226858Y420082D01*
X226925Y420055D01*
X226996Y420047D01*
X227027Y420039D01*
X227051Y420041D01*
X227091Y420037D01*
X237253Y420037D01*
X239494Y419109D01*
X241209Y417394D01*
X242137Y415153D01*
X242137Y397647D01*
X241209Y395406D01*
X239494Y393691D01*
X237253Y392763D01*
X226136Y392763D01*
X226045Y392749D01*
X225955Y392741D01*
X225925Y392729D01*
X225893Y392724D01*
X225812Y392681D01*
X225728Y392645D01*
X225696Y392619D01*
X225675Y392608D01*
X225653Y392585D01*
X225597Y392540D01*
X214427Y381370D01*
X214400Y381333D01*
X214366Y381302D01*
X214329Y381233D01*
X214283Y381170D01*
X214270Y381126D01*
X214248Y381086D01*
X214234Y381009D01*
X214211Y380935D01*
X214212Y380889D01*
X214204Y380844D01*
X214215Y380767D01*
X214217Y380689D01*
X214233Y380646D01*
X214240Y380601D01*
X214275Y380531D01*
X214302Y380458D01*
X214331Y380422D01*
X214351Y380381D01*
X214407Y380327D01*
X214456Y380266D01*
X214494Y380241D01*
X214527Y380209D01*
X214647Y380143D01*
X214662Y380133D01*
X214667Y380132D01*
X214674Y380128D01*
X215109Y379948D01*
X225597Y369460D01*
X225671Y369407D01*
X225741Y369347D01*
X225771Y369335D01*
X225797Y369316D01*
X225884Y369289D01*
X225969Y369255D01*
X226010Y369251D01*
X226032Y369244D01*
X226064Y369245D01*
X226136Y369237D01*
X237253Y369237D01*
X239494Y368309D01*
X241209Y366594D01*
X242137Y364353D01*
X242137Y346847D01*
X241209Y344606D01*
X239494Y342891D01*
X237253Y341963D01*
X219747Y341963D01*
X217506Y342891D01*
X215791Y344606D01*
X214863Y346847D01*
X214863Y357964D01*
X214849Y358055D01*
X214841Y358145D01*
X214829Y358175D01*
X214824Y358207D01*
X214781Y358288D01*
X214745Y358372D01*
X214719Y358404D01*
X214708Y358425D01*
X214685Y358447D01*
X214640Y358503D01*
X207734Y365409D01*
X207660Y365462D01*
X207590Y365522D01*
X207560Y365534D01*
X207534Y365553D01*
X207447Y365580D01*
X207362Y365614D01*
X207321Y365618D01*
X207299Y365625D01*
X207267Y365624D01*
X207195Y365632D01*
X198342Y365632D01*
X198272Y365621D01*
X198200Y365619D01*
X198151Y365601D01*
X198100Y365593D01*
X198036Y365559D01*
X197969Y365534D01*
X197928Y365502D01*
X197882Y365477D01*
X197833Y365425D01*
X197777Y365381D01*
X197749Y365337D01*
X197713Y365299D01*
X197683Y365234D01*
X197644Y365174D01*
X197631Y365123D01*
X197609Y365076D01*
X197601Y365005D01*
X197584Y364935D01*
X197588Y364883D01*
X197582Y364832D01*
X197598Y364761D01*
X197603Y364690D01*
X197623Y364642D01*
X197635Y364591D01*
X197671Y364530D01*
X197699Y364464D01*
X197744Y364408D01*
X197761Y364380D01*
X197778Y364365D01*
X197804Y364333D01*
X209768Y352369D01*
X210948Y349521D01*
X210948Y333625D01*
X210962Y333534D01*
X210970Y333444D01*
X210982Y333414D01*
X210987Y333382D01*
X211030Y333301D01*
X211066Y333217D01*
X211092Y333185D01*
X211103Y333164D01*
X211126Y333142D01*
X211171Y333086D01*
X225597Y318660D01*
X225671Y318607D01*
X225741Y318547D01*
X225771Y318535D01*
X225797Y318516D01*
X225884Y318489D01*
X225969Y318455D01*
X226010Y318451D01*
X226032Y318444D01*
X226064Y318445D01*
X226136Y318437D01*
X237253Y318437D01*
X239494Y317509D01*
X241209Y315794D01*
X242137Y313553D01*
X242137Y296047D01*
X241209Y293806D01*
X239494Y292091D01*
X237253Y291163D01*
X219747Y291163D01*
X217506Y292091D01*
X215791Y293806D01*
X214863Y296047D01*
X214863Y307164D01*
X214849Y307255D01*
X214841Y307345D01*
X214829Y307375D01*
X214824Y307407D01*
X214781Y307488D01*
X214745Y307572D01*
X214719Y307604D01*
X214708Y307625D01*
X214685Y307647D01*
X214640Y307703D01*
X196632Y325711D01*
X195452Y328559D01*
X195452Y344455D01*
X195438Y344546D01*
X195430Y344636D01*
X195418Y344666D01*
X195413Y344698D01*
X195370Y344779D01*
X195334Y344863D01*
X195308Y344895D01*
X195297Y344916D01*
X195274Y344938D01*
X195229Y344994D01*
X178896Y361327D01*
X178838Y361369D01*
X178786Y361418D01*
X178739Y361440D01*
X178697Y361470D01*
X178628Y361491D01*
X178563Y361522D01*
X178511Y361527D01*
X178461Y361543D01*
X178390Y361541D01*
X178319Y361549D01*
X178268Y361538D01*
X178216Y361536D01*
X178148Y361512D01*
X178078Y361496D01*
X178033Y361470D01*
X177985Y361452D01*
X177929Y361407D01*
X177867Y361370D01*
X177833Y361331D01*
X177793Y361298D01*
X177754Y361238D01*
X177707Y361183D01*
X177688Y361135D01*
X177660Y361091D01*
X177642Y361022D01*
X177615Y360955D01*
X177607Y360884D01*
X177599Y360853D01*
X177601Y360829D01*
X177597Y360789D01*
X177597Y341787D01*
X176669Y339546D01*
X174954Y337831D01*
X172713Y336903D01*
X157676Y336903D01*
X157585Y336889D01*
X157494Y336881D01*
X157465Y336869D01*
X157433Y336864D01*
X157352Y336821D01*
X157268Y336785D01*
X157236Y336759D01*
X157215Y336748D01*
X157193Y336725D01*
X157137Y336680D01*
X156682Y336225D01*
X150871Y330414D01*
X150818Y330340D01*
X150758Y330270D01*
X150746Y330240D01*
X150727Y330214D01*
X150700Y330127D01*
X150666Y330042D01*
X150662Y330001D01*
X150655Y329979D01*
X150656Y329947D01*
X150648Y329875D01*
X150648Y268091D01*
X150667Y267976D01*
X150684Y267860D01*
X150686Y267854D01*
X150687Y267848D01*
X150742Y267745D01*
X150795Y267641D01*
X150800Y267636D01*
X150803Y267631D01*
X150887Y267550D01*
X150971Y267468D01*
X150977Y267465D01*
X150981Y267461D01*
X150998Y267453D01*
X151118Y267388D01*
X152109Y266977D01*
X152198Y266956D01*
X152284Y266928D01*
X152317Y266928D01*
X152348Y266921D01*
X152439Y266929D01*
X152530Y266930D01*
X152570Y266942D01*
X152593Y266944D01*
X152622Y266957D01*
X152691Y266977D01*
X154187Y267597D01*
X169613Y267597D01*
X171854Y266669D01*
X173569Y264954D01*
X174497Y262713D01*
X174497Y245287D01*
X173569Y243046D01*
X172360Y241838D01*
X172349Y241822D01*
X172333Y241810D01*
X172277Y241722D01*
X172217Y241639D01*
X172211Y241620D01*
X172200Y241603D01*
X172175Y241502D01*
X172144Y241403D01*
X172145Y241384D01*
X172140Y241364D01*
X172148Y241261D01*
X172151Y241158D01*
X172158Y241139D01*
X172159Y241119D01*
X172200Y241024D01*
X172235Y240927D01*
X172248Y240911D01*
X172256Y240893D01*
X172360Y240762D01*
X173569Y239554D01*
X174497Y237313D01*
X174497Y237109D01*
X174500Y237089D01*
X174498Y237070D01*
X174520Y236968D01*
X174536Y236866D01*
X174546Y236849D01*
X174550Y236829D01*
X174603Y236740D01*
X174652Y236649D01*
X174666Y236635D01*
X174676Y236618D01*
X174755Y236551D01*
X174830Y236479D01*
X174848Y236471D01*
X174863Y236458D01*
X174959Y236419D01*
X175053Y236376D01*
X175073Y236374D01*
X175091Y236366D01*
X175258Y236348D01*
X189501Y236348D01*
X192349Y235168D01*
X209768Y217749D01*
X210458Y216083D01*
X210496Y216022D01*
X210525Y215957D01*
X210560Y215919D01*
X210588Y215874D01*
X210643Y215829D01*
X210691Y215776D01*
X210737Y215751D01*
X210777Y215718D01*
X210844Y215692D01*
X210907Y215657D01*
X210958Y215648D01*
X211007Y215629D01*
X211078Y215626D01*
X211149Y215614D01*
X211200Y215621D01*
G37*
G36*
X400426Y20462D02*
X400426Y20462D01*
X400516Y20470D01*
X400546Y20482D01*
X400578Y20487D01*
X400659Y20530D01*
X400743Y20566D01*
X400775Y20592D01*
X400796Y20603D01*
X400818Y20626D01*
X400874Y20671D01*
X412456Y32253D01*
X412498Y32311D01*
X412547Y32363D01*
X412569Y32410D01*
X412599Y32452D01*
X412620Y32521D01*
X412651Y32586D01*
X412656Y32638D01*
X412672Y32688D01*
X412670Y32759D01*
X412678Y32830D01*
X412667Y32881D01*
X412665Y32933D01*
X412641Y33001D01*
X412625Y33071D01*
X412599Y33116D01*
X412581Y33164D01*
X412536Y33220D01*
X412499Y33282D01*
X412460Y33316D01*
X412427Y33356D01*
X412367Y33395D01*
X412312Y33442D01*
X412264Y33461D01*
X412220Y33489D01*
X412151Y33507D01*
X412084Y33534D01*
X412013Y33542D01*
X411982Y33550D01*
X411958Y33548D01*
X411918Y33552D01*
X395091Y33552D01*
X394976Y33533D01*
X394860Y33516D01*
X394854Y33514D01*
X394848Y33513D01*
X394745Y33458D01*
X394641Y33405D01*
X394636Y33400D01*
X394631Y33397D01*
X394551Y33313D01*
X394468Y33229D01*
X394465Y33223D01*
X394461Y33219D01*
X394454Y33202D01*
X394388Y33082D01*
X393669Y31346D01*
X391954Y29631D01*
X389713Y28703D01*
X372287Y28703D01*
X370046Y29631D01*
X368331Y31346D01*
X367781Y32676D01*
X367719Y32776D01*
X367659Y32876D01*
X367654Y32880D01*
X367651Y32885D01*
X367561Y32960D01*
X367472Y33036D01*
X367466Y33038D01*
X367462Y33042D01*
X367353Y33084D01*
X367244Y33128D01*
X367236Y33129D01*
X367232Y33130D01*
X367214Y33131D01*
X367077Y33146D01*
X362632Y33146D01*
X362542Y33132D01*
X362451Y33124D01*
X362421Y33112D01*
X362389Y33107D01*
X362308Y33064D01*
X362224Y33028D01*
X362192Y33002D01*
X362172Y32991D01*
X362149Y32968D01*
X362093Y32923D01*
X360959Y31788D01*
X358718Y30860D01*
X347402Y30860D01*
X345161Y31788D01*
X343446Y33503D01*
X342518Y35744D01*
X342518Y41482D01*
X342507Y41553D01*
X342505Y41625D01*
X342487Y41674D01*
X342479Y41725D01*
X342445Y41788D01*
X342420Y41856D01*
X342388Y41896D01*
X342363Y41943D01*
X342311Y41992D01*
X342267Y42048D01*
X342223Y42076D01*
X342185Y42112D01*
X342120Y42142D01*
X342060Y42181D01*
X342009Y42194D01*
X341962Y42216D01*
X341891Y42223D01*
X341821Y42241D01*
X341769Y42237D01*
X341718Y42243D01*
X341647Y42227D01*
X341576Y42222D01*
X341528Y42201D01*
X341477Y42190D01*
X341416Y42154D01*
X341350Y42125D01*
X341294Y42081D01*
X341266Y42064D01*
X341251Y42046D01*
X341219Y42021D01*
X340638Y41440D01*
X338398Y40512D01*
X328645Y40512D01*
X328554Y40498D01*
X328464Y40490D01*
X328434Y40478D01*
X328402Y40473D01*
X328321Y40430D01*
X328237Y40394D01*
X328205Y40368D01*
X328184Y40357D01*
X328162Y40334D01*
X328106Y40289D01*
X317470Y29653D01*
X317417Y29579D01*
X317357Y29509D01*
X317345Y29479D01*
X317326Y29453D01*
X317299Y29366D01*
X317265Y29281D01*
X317261Y29240D01*
X317254Y29218D01*
X317255Y29186D01*
X317247Y29114D01*
X317247Y27987D01*
X316319Y25746D01*
X314604Y24031D01*
X312363Y23103D01*
X297237Y23103D01*
X294996Y24031D01*
X293281Y25746D01*
X292353Y27987D01*
X292353Y41613D01*
X293281Y43854D01*
X294996Y45569D01*
X297237Y46497D01*
X312084Y46497D01*
X312175Y46511D01*
X312265Y46519D01*
X312295Y46531D01*
X312327Y46536D01*
X312408Y46579D01*
X312492Y46615D01*
X312524Y46641D01*
X312545Y46652D01*
X312567Y46675D01*
X312623Y46720D01*
X322515Y56612D01*
X322553Y56665D01*
X322599Y56712D01*
X322639Y56785D01*
X322659Y56812D01*
X322664Y56830D01*
X322680Y56859D01*
X323126Y57937D01*
X324841Y59652D01*
X327082Y60580D01*
X338398Y60580D01*
X340639Y59652D01*
X342354Y57937D01*
X343282Y55696D01*
X343282Y49958D01*
X343293Y49887D01*
X343295Y49815D01*
X343313Y49766D01*
X343321Y49715D01*
X343355Y49652D01*
X343380Y49584D01*
X343412Y49544D01*
X343437Y49497D01*
X343489Y49448D01*
X343533Y49392D01*
X343577Y49364D01*
X343615Y49328D01*
X343680Y49298D01*
X343740Y49259D01*
X343791Y49246D01*
X343838Y49224D01*
X343909Y49217D01*
X343979Y49199D01*
X344031Y49203D01*
X344082Y49197D01*
X344153Y49213D01*
X344224Y49218D01*
X344272Y49239D01*
X344323Y49250D01*
X344384Y49286D01*
X344450Y49315D01*
X344506Y49359D01*
X344534Y49376D01*
X344549Y49394D01*
X344581Y49419D01*
X345162Y50000D01*
X347402Y50928D01*
X358718Y50928D01*
X360959Y50000D01*
X362093Y48865D01*
X362167Y48812D01*
X362237Y48752D01*
X362267Y48740D01*
X362293Y48721D01*
X362380Y48694D01*
X362465Y48660D01*
X362506Y48656D01*
X362528Y48649D01*
X362560Y48650D01*
X362632Y48642D01*
X366741Y48642D01*
X366856Y48661D01*
X366972Y48678D01*
X366978Y48680D01*
X366984Y48681D01*
X367086Y48736D01*
X367191Y48789D01*
X367196Y48794D01*
X367201Y48797D01*
X367281Y48881D01*
X367363Y48965D01*
X367367Y48971D01*
X367370Y48975D01*
X367378Y48992D01*
X367444Y49112D01*
X368331Y51254D01*
X370046Y52969D01*
X370489Y53152D01*
X370589Y53214D01*
X370689Y53274D01*
X370693Y53278D01*
X370698Y53282D01*
X370773Y53372D01*
X370849Y53460D01*
X370851Y53466D01*
X370855Y53471D01*
X370897Y53579D01*
X370941Y53689D01*
X370942Y53696D01*
X370943Y53701D01*
X370944Y53719D01*
X370959Y53855D01*
X370959Y58777D01*
X380238Y58777D01*
X380258Y58780D01*
X380277Y58778D01*
X380379Y58800D01*
X380481Y58817D01*
X380498Y58826D01*
X380518Y58830D01*
X380607Y58883D01*
X380698Y58932D01*
X380712Y58946D01*
X380729Y58956D01*
X380796Y59035D01*
X380867Y59110D01*
X380876Y59128D01*
X380889Y59143D01*
X380928Y59239D01*
X380971Y59333D01*
X380973Y59353D01*
X380981Y59371D01*
X380999Y59538D01*
X380999Y60301D01*
X381001Y60301D01*
X381001Y59538D01*
X381004Y59518D01*
X381002Y59499D01*
X381024Y59397D01*
X381041Y59295D01*
X381050Y59278D01*
X381054Y59258D01*
X381107Y59169D01*
X381156Y59078D01*
X381170Y59064D01*
X381180Y59047D01*
X381259Y58980D01*
X381334Y58909D01*
X381352Y58900D01*
X381367Y58887D01*
X381463Y58848D01*
X381557Y58805D01*
X381577Y58803D01*
X381595Y58795D01*
X381762Y58777D01*
X391041Y58777D01*
X391041Y53855D01*
X391060Y53741D01*
X391077Y53624D01*
X391079Y53619D01*
X391080Y53613D01*
X391135Y53510D01*
X391188Y53405D01*
X391193Y53401D01*
X391196Y53395D01*
X391280Y53315D01*
X391364Y53233D01*
X391370Y53229D01*
X391374Y53226D01*
X391391Y53218D01*
X391511Y53152D01*
X391954Y52969D01*
X393669Y51254D01*
X394388Y49518D01*
X394450Y49417D01*
X394509Y49318D01*
X394514Y49314D01*
X394517Y49309D01*
X394608Y49234D01*
X394696Y49158D01*
X394702Y49156D01*
X394707Y49152D01*
X394815Y49110D01*
X394924Y49066D01*
X394932Y49065D01*
X394936Y49064D01*
X394955Y49063D01*
X395091Y49048D01*
X408615Y49048D01*
X408706Y49062D01*
X408796Y49070D01*
X408826Y49082D01*
X408858Y49087D01*
X408939Y49130D01*
X409023Y49166D01*
X409055Y49192D01*
X409076Y49203D01*
X409098Y49226D01*
X409154Y49271D01*
X423829Y63946D01*
X423882Y64020D01*
X423942Y64090D01*
X423954Y64120D01*
X423973Y64146D01*
X424000Y64233D01*
X424034Y64318D01*
X424038Y64359D01*
X424045Y64381D01*
X424044Y64413D01*
X424052Y64485D01*
X424052Y110761D01*
X425232Y113609D01*
X461963Y150340D01*
X462005Y150398D01*
X462054Y150450D01*
X462076Y150497D01*
X462106Y150539D01*
X462127Y150608D01*
X462158Y150673D01*
X462163Y150725D01*
X462179Y150775D01*
X462177Y150846D01*
X462185Y150917D01*
X462174Y150968D01*
X462172Y151020D01*
X462148Y151088D01*
X462132Y151158D01*
X462106Y151203D01*
X462088Y151251D01*
X462043Y151307D01*
X462006Y151369D01*
X461967Y151403D01*
X461934Y151443D01*
X461874Y151482D01*
X461819Y151529D01*
X461771Y151548D01*
X461727Y151576D01*
X461658Y151594D01*
X461591Y151621D01*
X461520Y151629D01*
X461489Y151637D01*
X461465Y151635D01*
X461425Y151639D01*
X458723Y151639D01*
X458723Y159918D01*
X458720Y159938D01*
X458722Y159957D01*
X458700Y160059D01*
X458683Y160161D01*
X458674Y160178D01*
X458670Y160198D01*
X458617Y160287D01*
X458568Y160378D01*
X458554Y160392D01*
X458544Y160409D01*
X458465Y160476D01*
X458390Y160547D01*
X458372Y160556D01*
X458357Y160569D01*
X458261Y160608D01*
X458167Y160651D01*
X458147Y160653D01*
X458129Y160661D01*
X457962Y160679D01*
X457199Y160679D01*
X457199Y161442D01*
X457196Y161462D01*
X457198Y161481D01*
X457176Y161583D01*
X457159Y161685D01*
X457150Y161702D01*
X457146Y161722D01*
X457093Y161811D01*
X457044Y161902D01*
X457030Y161916D01*
X457020Y161933D01*
X456941Y162000D01*
X456866Y162071D01*
X456848Y162080D01*
X456833Y162093D01*
X456737Y162132D01*
X456643Y162175D01*
X456623Y162177D01*
X456605Y162185D01*
X456438Y162203D01*
X447159Y162203D01*
X447159Y167125D01*
X447140Y167239D01*
X447123Y167356D01*
X447121Y167361D01*
X447120Y167367D01*
X447065Y167470D01*
X447012Y167575D01*
X447007Y167579D01*
X447004Y167585D01*
X446920Y167665D01*
X446836Y167747D01*
X446830Y167751D01*
X446826Y167754D01*
X446809Y167762D01*
X446689Y167828D01*
X446246Y168011D01*
X445038Y169220D01*
X445022Y169231D01*
X445010Y169247D01*
X444922Y169303D01*
X444839Y169363D01*
X444820Y169369D01*
X444803Y169380D01*
X444702Y169405D01*
X444603Y169436D01*
X444584Y169435D01*
X444564Y169440D01*
X444461Y169432D01*
X444358Y169429D01*
X444339Y169422D01*
X444319Y169421D01*
X444224Y169380D01*
X444127Y169345D01*
X444111Y169332D01*
X444093Y169324D01*
X443962Y169220D01*
X442754Y168011D01*
X442311Y167828D01*
X442211Y167766D01*
X442111Y167706D01*
X442107Y167702D01*
X442102Y167698D01*
X442027Y167608D01*
X441951Y167520D01*
X441949Y167514D01*
X441945Y167509D01*
X441903Y167401D01*
X441859Y167291D01*
X441858Y167284D01*
X441857Y167279D01*
X441856Y167261D01*
X441841Y167125D01*
X441841Y162203D01*
X432562Y162203D01*
X432542Y162200D01*
X432523Y162202D01*
X432421Y162180D01*
X432319Y162163D01*
X432302Y162154D01*
X432282Y162150D01*
X432193Y162097D01*
X432102Y162048D01*
X432088Y162034D01*
X432071Y162024D01*
X432004Y161945D01*
X431933Y161870D01*
X431924Y161852D01*
X431911Y161837D01*
X431872Y161741D01*
X431829Y161647D01*
X431827Y161627D01*
X431819Y161609D01*
X431801Y161442D01*
X431801Y160679D01*
X431038Y160679D01*
X431018Y160676D01*
X430999Y160678D01*
X430897Y160656D01*
X430795Y160639D01*
X430778Y160630D01*
X430758Y160626D01*
X430669Y160573D01*
X430578Y160524D01*
X430564Y160510D01*
X430547Y160500D01*
X430480Y160421D01*
X430409Y160346D01*
X430400Y160328D01*
X430387Y160313D01*
X430348Y160217D01*
X430305Y160123D01*
X430303Y160103D01*
X430295Y160085D01*
X430277Y159918D01*
X430277Y151639D01*
X423966Y151639D01*
X423319Y151812D01*
X422910Y152049D01*
X422820Y152083D01*
X422734Y152123D01*
X422706Y152126D01*
X422680Y152136D01*
X422584Y152139D01*
X422490Y152150D01*
X422462Y152144D01*
X422434Y152145D01*
X422342Y152118D01*
X422249Y152098D01*
X422225Y152083D01*
X422198Y152075D01*
X422120Y152020D01*
X422038Y151972D01*
X422020Y151950D01*
X421997Y151934D01*
X421940Y151857D01*
X421910Y151822D01*
X421899Y151811D01*
X421898Y151808D01*
X421878Y151785D01*
X421868Y151758D01*
X421851Y151736D01*
X421822Y151645D01*
X421818Y151636D01*
X421796Y151588D01*
X421795Y151578D01*
X421786Y151556D01*
X421782Y151521D01*
X421776Y151501D01*
X421776Y151469D01*
X421768Y151390D01*
X421768Y135619D01*
X420588Y132771D01*
X410789Y122972D01*
X407941Y121792D01*
X407517Y121792D01*
X407403Y121773D01*
X407287Y121756D01*
X407281Y121754D01*
X407275Y121753D01*
X407172Y121698D01*
X407067Y121645D01*
X407063Y121640D01*
X407057Y121637D01*
X406978Y121553D01*
X406895Y121469D01*
X406891Y121463D01*
X406888Y121459D01*
X406880Y121442D01*
X406814Y121322D01*
X406369Y120246D01*
X404654Y118531D01*
X402413Y117603D01*
X384987Y117603D01*
X382746Y118531D01*
X381538Y119740D01*
X381522Y119751D01*
X381510Y119767D01*
X381422Y119823D01*
X381339Y119883D01*
X381320Y119889D01*
X381303Y119900D01*
X381202Y119925D01*
X381103Y119956D01*
X381084Y119955D01*
X381064Y119960D01*
X380961Y119952D01*
X380858Y119949D01*
X380839Y119942D01*
X380819Y119941D01*
X380724Y119900D01*
X380627Y119865D01*
X380611Y119852D01*
X380593Y119844D01*
X380462Y119740D01*
X379254Y118531D01*
X377013Y117603D01*
X376809Y117603D01*
X376789Y117600D01*
X376770Y117602D01*
X376668Y117580D01*
X376566Y117564D01*
X376549Y117554D01*
X376529Y117550D01*
X376440Y117497D01*
X376349Y117448D01*
X376335Y117434D01*
X376318Y117424D01*
X376251Y117345D01*
X376179Y117270D01*
X376171Y117252D01*
X376158Y117237D01*
X376119Y117141D01*
X376076Y117047D01*
X376074Y117027D01*
X376066Y117009D01*
X376048Y116842D01*
X376048Y112759D01*
X374868Y109911D01*
X359989Y95032D01*
X357141Y93852D01*
X299607Y93852D01*
X299562Y93845D01*
X299516Y93847D01*
X299441Y93825D01*
X299365Y93813D01*
X299324Y93791D01*
X299280Y93778D01*
X299216Y93734D01*
X299147Y93697D01*
X299116Y93664D01*
X299078Y93638D01*
X299031Y93575D01*
X298978Y93519D01*
X298958Y93477D01*
X298931Y93441D01*
X298907Y93367D01*
X298874Y93296D01*
X298869Y93250D01*
X298855Y93207D01*
X298856Y93129D01*
X298847Y93052D01*
X298857Y93007D01*
X298857Y92961D01*
X298895Y92829D01*
X298899Y92811D01*
X298902Y92807D01*
X298904Y92800D01*
X299492Y91381D01*
X299492Y86419D01*
X297852Y82460D01*
X297841Y82416D01*
X297822Y82374D01*
X297814Y82297D01*
X297796Y82221D01*
X297800Y82175D01*
X297795Y82130D01*
X297812Y82053D01*
X297819Y81976D01*
X297837Y81934D01*
X297847Y81889D01*
X297887Y81822D01*
X297919Y81751D01*
X297950Y81717D01*
X297973Y81678D01*
X298033Y81627D01*
X298085Y81570D01*
X298125Y81548D01*
X298160Y81518D01*
X298233Y81489D01*
X298301Y81452D01*
X298346Y81443D01*
X298388Y81426D01*
X298524Y81411D01*
X298543Y81408D01*
X298548Y81409D01*
X298555Y81408D01*
X304561Y81408D01*
X307409Y80228D01*
X308917Y78720D01*
X308991Y78667D01*
X309061Y78607D01*
X309091Y78595D01*
X309117Y78576D01*
X309204Y78549D01*
X309289Y78515D01*
X309330Y78511D01*
X309352Y78504D01*
X309384Y78505D01*
X309456Y78497D01*
X312363Y78497D01*
X314604Y77569D01*
X316319Y75854D01*
X317247Y73613D01*
X317247Y59987D01*
X316319Y57746D01*
X314604Y56031D01*
X312363Y55103D01*
X297237Y55103D01*
X294996Y56031D01*
X293281Y57746D01*
X292353Y59987D01*
X292353Y65151D01*
X292350Y65171D01*
X292352Y65190D01*
X292330Y65292D01*
X292314Y65394D01*
X292304Y65411D01*
X292300Y65431D01*
X292247Y65520D01*
X292198Y65611D01*
X292184Y65625D01*
X292174Y65642D01*
X292095Y65709D01*
X292020Y65781D01*
X292002Y65789D01*
X291987Y65802D01*
X291891Y65841D01*
X291797Y65884D01*
X291777Y65886D01*
X291759Y65894D01*
X291592Y65912D01*
X249919Y65912D01*
X247071Y67092D01*
X233234Y80929D01*
X233160Y80982D01*
X233090Y81042D01*
X233060Y81054D01*
X233034Y81073D01*
X232947Y81100D01*
X232862Y81134D01*
X232821Y81138D01*
X232799Y81145D01*
X232767Y81144D01*
X232695Y81152D01*
X226105Y81152D01*
X226015Y81138D01*
X225924Y81130D01*
X225895Y81118D01*
X225863Y81113D01*
X225782Y81070D01*
X225698Y81034D01*
X225666Y81008D01*
X225645Y80997D01*
X225623Y80974D01*
X225567Y80929D01*
X222965Y78327D01*
X218381Y76428D01*
X213419Y76428D01*
X209089Y78222D01*
X209045Y78232D01*
X209003Y78252D01*
X208926Y78260D01*
X208850Y78278D01*
X208804Y78274D01*
X208759Y78279D01*
X208682Y78262D01*
X208605Y78255D01*
X208563Y78236D01*
X208518Y78226D01*
X208451Y78186D01*
X208380Y78155D01*
X208346Y78124D01*
X208307Y78100D01*
X208256Y78041D01*
X208199Y77988D01*
X208177Y77948D01*
X208147Y77913D01*
X208118Y77841D01*
X208081Y77773D01*
X208072Y77728D01*
X208055Y77685D01*
X208040Y77549D01*
X208037Y77531D01*
X208038Y77526D01*
X208037Y77518D01*
X208037Y76257D01*
X207109Y74016D01*
X205394Y72301D01*
X204558Y71955D01*
X204458Y71893D01*
X204358Y71834D01*
X204354Y71829D01*
X204349Y71826D01*
X204274Y71735D01*
X204198Y71647D01*
X204196Y71641D01*
X204192Y71636D01*
X204150Y71528D01*
X204106Y71419D01*
X204105Y71411D01*
X204104Y71407D01*
X204103Y71388D01*
X204088Y71252D01*
X204088Y54716D01*
X204107Y54601D01*
X204124Y54485D01*
X204126Y54479D01*
X204127Y54473D01*
X204182Y54371D01*
X204235Y54266D01*
X204240Y54261D01*
X204243Y54256D01*
X204327Y54176D01*
X204411Y54094D01*
X204417Y54090D01*
X204421Y54087D01*
X204438Y54079D01*
X204481Y54055D01*
X204483Y54053D01*
X204487Y54052D01*
X204558Y54013D01*
X205185Y53753D01*
X208693Y50245D01*
X210592Y45661D01*
X210592Y40699D01*
X208693Y36115D01*
X205185Y32607D01*
X200601Y30708D01*
X195639Y30708D01*
X191055Y32607D01*
X187547Y36115D01*
X185648Y40699D01*
X185648Y42600D01*
X185637Y42671D01*
X185635Y42743D01*
X185617Y42792D01*
X185609Y42843D01*
X185575Y42906D01*
X185550Y42974D01*
X185518Y43014D01*
X185493Y43061D01*
X185441Y43110D01*
X185397Y43166D01*
X185353Y43194D01*
X185315Y43230D01*
X185250Y43260D01*
X185190Y43299D01*
X185139Y43312D01*
X185092Y43334D01*
X185021Y43341D01*
X184951Y43359D01*
X184899Y43355D01*
X184848Y43361D01*
X184777Y43345D01*
X184706Y43340D01*
X184658Y43319D01*
X184607Y43308D01*
X184546Y43272D01*
X184480Y43243D01*
X184424Y43199D01*
X184396Y43182D01*
X184381Y43164D01*
X184349Y43139D01*
X183159Y41948D01*
X180918Y41020D01*
X169602Y41020D01*
X167361Y41948D01*
X165646Y43663D01*
X164718Y45904D01*
X164718Y51642D01*
X164707Y51713D01*
X164705Y51785D01*
X164687Y51834D01*
X164679Y51885D01*
X164645Y51948D01*
X164620Y52016D01*
X164588Y52056D01*
X164563Y52103D01*
X164511Y52152D01*
X164467Y52208D01*
X164423Y52236D01*
X164385Y52272D01*
X164320Y52302D01*
X164260Y52341D01*
X164209Y52354D01*
X164162Y52376D01*
X164091Y52383D01*
X164021Y52401D01*
X163969Y52397D01*
X163918Y52403D01*
X163847Y52387D01*
X163776Y52382D01*
X163728Y52361D01*
X163677Y52350D01*
X163616Y52314D01*
X163550Y52285D01*
X163494Y52241D01*
X163466Y52224D01*
X163451Y52206D01*
X163419Y52181D01*
X162838Y51600D01*
X160598Y50672D01*
X149282Y50672D01*
X147041Y51600D01*
X146313Y52329D01*
X146239Y52382D01*
X146169Y52442D01*
X146139Y52454D01*
X146113Y52473D01*
X146026Y52500D01*
X145941Y52534D01*
X145900Y52538D01*
X145878Y52545D01*
X145846Y52544D01*
X145774Y52552D01*
X141091Y52552D01*
X140976Y52533D01*
X140860Y52516D01*
X140854Y52514D01*
X140848Y52513D01*
X140745Y52458D01*
X140641Y52405D01*
X140636Y52400D01*
X140631Y52397D01*
X140551Y52313D01*
X140468Y52229D01*
X140465Y52223D01*
X140461Y52219D01*
X140454Y52202D01*
X140388Y52082D01*
X139669Y50346D01*
X137954Y48631D01*
X137511Y48448D01*
X137411Y48386D01*
X137311Y48326D01*
X137307Y48322D01*
X137302Y48318D01*
X137227Y48228D01*
X137151Y48140D01*
X137149Y48134D01*
X137145Y48129D01*
X137103Y48021D01*
X137059Y47911D01*
X137058Y47904D01*
X137057Y47899D01*
X137056Y47881D01*
X137041Y47745D01*
X137041Y42823D01*
X127762Y42823D01*
X127742Y42820D01*
X127723Y42822D01*
X127621Y42800D01*
X127519Y42783D01*
X127502Y42774D01*
X127482Y42770D01*
X127393Y42717D01*
X127302Y42668D01*
X127288Y42654D01*
X127271Y42644D01*
X127204Y42565D01*
X127133Y42490D01*
X127124Y42472D01*
X127111Y42457D01*
X127072Y42361D01*
X127029Y42267D01*
X127027Y42247D01*
X127019Y42229D01*
X127001Y42062D01*
X127001Y41299D01*
X126999Y41299D01*
X126999Y42062D01*
X126996Y42082D01*
X126998Y42101D01*
X126976Y42203D01*
X126959Y42305D01*
X126950Y42322D01*
X126946Y42342D01*
X126893Y42431D01*
X126844Y42522D01*
X126830Y42536D01*
X126820Y42553D01*
X126741Y42620D01*
X126666Y42691D01*
X126648Y42700D01*
X126633Y42713D01*
X126537Y42752D01*
X126443Y42795D01*
X126423Y42797D01*
X126405Y42805D01*
X126238Y42823D01*
X116959Y42823D01*
X116959Y47745D01*
X116940Y47859D01*
X116923Y47976D01*
X116921Y47981D01*
X116920Y47987D01*
X116865Y48090D01*
X116812Y48195D01*
X116807Y48199D01*
X116804Y48205D01*
X116721Y48284D01*
X116636Y48367D01*
X116630Y48371D01*
X116626Y48374D01*
X116609Y48382D01*
X116489Y48448D01*
X116046Y48631D01*
X115026Y49652D01*
X115010Y49664D01*
X114997Y49679D01*
X114910Y49736D01*
X114826Y49796D01*
X114807Y49802D01*
X114790Y49812D01*
X114690Y49838D01*
X114591Y49868D01*
X114571Y49868D01*
X114552Y49872D01*
X114449Y49864D01*
X114345Y49862D01*
X114326Y49855D01*
X114306Y49853D01*
X114212Y49813D01*
X114114Y49777D01*
X114098Y49765D01*
X114080Y49757D01*
X113949Y49652D01*
X112111Y47814D01*
X112058Y47740D01*
X111998Y47670D01*
X111986Y47640D01*
X111967Y47614D01*
X111940Y47527D01*
X111906Y47442D01*
X111902Y47401D01*
X111895Y47379D01*
X111896Y47347D01*
X111888Y47275D01*
X111888Y39085D01*
X111902Y38994D01*
X111910Y38904D01*
X111922Y38874D01*
X111927Y38842D01*
X111970Y38761D01*
X112006Y38677D01*
X112032Y38645D01*
X112043Y38624D01*
X112066Y38602D01*
X112111Y38546D01*
X115660Y34997D01*
X115718Y34955D01*
X115770Y34906D01*
X115817Y34884D01*
X115859Y34854D01*
X115928Y34833D01*
X115993Y34802D01*
X116045Y34797D01*
X116095Y34781D01*
X116166Y34783D01*
X116237Y34775D01*
X116288Y34786D01*
X116340Y34788D01*
X116408Y34812D01*
X116478Y34828D01*
X116522Y34854D01*
X116571Y34872D01*
X116627Y34917D01*
X116689Y34954D01*
X116723Y34993D01*
X116763Y35026D01*
X116802Y35086D01*
X116849Y35141D01*
X116868Y35189D01*
X116896Y35233D01*
X116914Y35302D01*
X116941Y35369D01*
X116949Y35440D01*
X116957Y35471D01*
X116955Y35495D01*
X116959Y35535D01*
X116959Y39777D01*
X125477Y39777D01*
X125477Y32259D01*
X120235Y32259D01*
X120165Y32248D01*
X120093Y32246D01*
X120044Y32228D01*
X119993Y32220D01*
X119929Y32186D01*
X119862Y32161D01*
X119821Y32129D01*
X119775Y32104D01*
X119726Y32052D01*
X119670Y32008D01*
X119642Y31964D01*
X119606Y31926D01*
X119576Y31861D01*
X119537Y31801D01*
X119524Y31750D01*
X119502Y31703D01*
X119494Y31632D01*
X119477Y31562D01*
X119481Y31510D01*
X119475Y31459D01*
X119491Y31388D01*
X119496Y31317D01*
X119516Y31269D01*
X119528Y31218D01*
X119564Y31157D01*
X119592Y31091D01*
X119637Y31035D01*
X119654Y31007D01*
X119671Y30992D01*
X119697Y30960D01*
X129986Y20671D01*
X130060Y20618D01*
X130130Y20558D01*
X130160Y20546D01*
X130186Y20527D01*
X130273Y20500D01*
X130358Y20466D01*
X130399Y20462D01*
X130421Y20455D01*
X130453Y20456D01*
X130525Y20448D01*
X400335Y20448D01*
X400426Y20462D01*
G37*
G36*
X136266Y160162D02*
X136266Y160162D01*
X136356Y160170D01*
X136386Y160182D01*
X136418Y160187D01*
X136499Y160230D01*
X136583Y160266D01*
X136615Y160292D01*
X136636Y160303D01*
X136658Y160326D01*
X136714Y160371D01*
X144429Y168086D01*
X144482Y168160D01*
X144542Y168230D01*
X144554Y168260D01*
X144573Y168286D01*
X144600Y168373D01*
X144634Y168458D01*
X144638Y168499D01*
X144645Y168521D01*
X144644Y168553D01*
X144652Y168625D01*
X144652Y190278D01*
X144641Y190348D01*
X144639Y190420D01*
X144621Y190469D01*
X144613Y190520D01*
X144579Y190584D01*
X144554Y190651D01*
X144522Y190692D01*
X144497Y190738D01*
X144446Y190787D01*
X144401Y190843D01*
X144357Y190871D01*
X144319Y190907D01*
X144254Y190937D01*
X144194Y190976D01*
X144143Y190989D01*
X144096Y191011D01*
X144025Y191019D01*
X143955Y191036D01*
X143903Y191032D01*
X143852Y191038D01*
X143781Y191022D01*
X143710Y191017D01*
X143662Y190997D01*
X143611Y190985D01*
X143550Y190949D01*
X143484Y190921D01*
X143428Y190876D01*
X143400Y190859D01*
X143385Y190842D01*
X143353Y190816D01*
X142819Y190282D01*
X142336Y190082D01*
X142280Y190047D01*
X142220Y190022D01*
X142155Y189970D01*
X142127Y189952D01*
X142114Y189937D01*
X142089Y189917D01*
X140854Y188681D01*
X140360Y188477D01*
X140281Y188428D01*
X140198Y188385D01*
X140177Y188363D01*
X140151Y188347D01*
X140092Y188276D01*
X140026Y188209D01*
X140013Y188181D01*
X139994Y188158D01*
X139961Y188071D01*
X139920Y187987D01*
X139917Y187957D01*
X139906Y187928D01*
X139902Y187835D01*
X139891Y187742D01*
X139896Y187705D01*
X139896Y187683D01*
X139905Y187651D01*
X139916Y187577D01*
X139941Y187484D01*
X139941Y185649D01*
X127138Y185649D01*
X127119Y185646D01*
X127099Y185648D01*
X126997Y185626D01*
X126895Y185610D01*
X126878Y185600D01*
X126858Y185596D01*
X126769Y185543D01*
X126678Y185494D01*
X126664Y185480D01*
X126647Y185470D01*
X126580Y185391D01*
X126509Y185316D01*
X126500Y185298D01*
X126487Y185283D01*
X126449Y185187D01*
X126405Y185093D01*
X126403Y185073D01*
X126396Y185055D01*
X126383Y185131D01*
X126374Y185148D01*
X126370Y185168D01*
X126317Y185257D01*
X126268Y185348D01*
X126254Y185362D01*
X126244Y185379D01*
X126165Y185446D01*
X126090Y185518D01*
X126072Y185526D01*
X126057Y185539D01*
X125960Y185578D01*
X125867Y185621D01*
X125847Y185623D01*
X125829Y185631D01*
X125662Y185649D01*
X112859Y185649D01*
X112859Y187484D01*
X112884Y187577D01*
X112893Y187670D01*
X112910Y187761D01*
X112905Y187791D01*
X112908Y187821D01*
X112888Y187912D01*
X112874Y188005D01*
X112860Y188032D01*
X112854Y188061D01*
X112805Y188141D01*
X112763Y188224D01*
X112741Y188245D01*
X112725Y188271D01*
X112653Y188331D01*
X112587Y188396D01*
X112553Y188415D01*
X112536Y188429D01*
X112506Y188441D01*
X112440Y188477D01*
X111946Y188681D01*
X110231Y190396D01*
X109303Y192637D01*
X109303Y201063D01*
X110068Y202909D01*
X110076Y202942D01*
X110076Y202943D01*
X110076Y202944D01*
X110089Y202997D01*
X110117Y203084D01*
X110117Y203117D01*
X110124Y203148D01*
X110116Y203239D01*
X110115Y203330D01*
X110103Y203370D01*
X110101Y203393D01*
X110088Y203422D01*
X110068Y203491D01*
X109303Y205337D01*
X109303Y213763D01*
X110231Y216004D01*
X111946Y217719D01*
X114187Y218647D01*
X129678Y218647D01*
X129723Y218654D01*
X129769Y218652D01*
X129844Y218674D01*
X129921Y218686D01*
X129961Y218708D01*
X130005Y218721D01*
X130069Y218765D01*
X130138Y218802D01*
X130170Y218835D01*
X130207Y218861D01*
X130254Y218924D01*
X130307Y218980D01*
X130327Y219022D01*
X130354Y219058D01*
X130378Y219132D01*
X130411Y219203D01*
X130416Y219249D01*
X130430Y219292D01*
X130430Y219370D01*
X130438Y219447D01*
X130428Y219492D01*
X130428Y219538D01*
X130390Y219670D01*
X130386Y219688D01*
X130383Y219692D01*
X130381Y219699D01*
X130303Y219887D01*
X130303Y237313D01*
X131231Y239554D01*
X132440Y240762D01*
X132451Y240778D01*
X132467Y240790D01*
X132523Y240878D01*
X132583Y240961D01*
X132589Y240980D01*
X132600Y240997D01*
X132625Y241098D01*
X132656Y241197D01*
X132655Y241216D01*
X132660Y241236D01*
X132652Y241339D01*
X132649Y241442D01*
X132642Y241461D01*
X132641Y241481D01*
X132600Y241576D01*
X132565Y241673D01*
X132552Y241689D01*
X132544Y241707D01*
X132440Y241838D01*
X131231Y243046D01*
X130303Y245287D01*
X130303Y262713D01*
X131231Y264954D01*
X132946Y266669D01*
X134682Y267388D01*
X134782Y267449D01*
X134882Y267509D01*
X134886Y267514D01*
X134891Y267517D01*
X134966Y267608D01*
X135042Y267696D01*
X135044Y267702D01*
X135048Y267707D01*
X135090Y267815D01*
X135134Y267924D01*
X135135Y267932D01*
X135136Y267936D01*
X135137Y267955D01*
X135152Y268091D01*
X135152Y334941D01*
X136332Y337789D01*
X145725Y347182D01*
X147180Y348637D01*
X147233Y348711D01*
X147293Y348781D01*
X147305Y348811D01*
X147324Y348837D01*
X147351Y348924D01*
X147385Y349009D01*
X147389Y349050D01*
X147396Y349072D01*
X147395Y349104D01*
X147403Y349176D01*
X147403Y413713D01*
X148331Y415954D01*
X150046Y417669D01*
X150489Y417852D01*
X150589Y417914D01*
X150689Y417974D01*
X150693Y417978D01*
X150698Y417982D01*
X150773Y418072D01*
X150849Y418160D01*
X150851Y418166D01*
X150855Y418171D01*
X150897Y418279D01*
X150941Y418389D01*
X150942Y418396D01*
X150943Y418401D01*
X150944Y418419D01*
X150959Y418555D01*
X150959Y419334D01*
X151132Y419981D01*
X151467Y420560D01*
X151940Y421033D01*
X152519Y421368D01*
X153166Y421541D01*
X161376Y421541D01*
X161376Y419358D01*
X161379Y419338D01*
X161377Y419319D01*
X161399Y419217D01*
X161415Y419115D01*
X161425Y419098D01*
X161429Y419078D01*
X161482Y418989D01*
X161531Y418898D01*
X161545Y418884D01*
X161555Y418867D01*
X161634Y418800D01*
X161709Y418728D01*
X161727Y418720D01*
X161742Y418707D01*
X161838Y418668D01*
X161932Y418625D01*
X161952Y418623D01*
X161970Y418615D01*
X162137Y418597D01*
X162863Y418597D01*
X162883Y418600D01*
X162902Y418598D01*
X163004Y418620D01*
X163106Y418636D01*
X163123Y418646D01*
X163143Y418650D01*
X163232Y418703D01*
X163323Y418752D01*
X163337Y418766D01*
X163354Y418776D01*
X163421Y418855D01*
X163493Y418930D01*
X163501Y418948D01*
X163514Y418963D01*
X163553Y419059D01*
X163596Y419153D01*
X163598Y419173D01*
X163606Y419191D01*
X163624Y419358D01*
X163624Y421541D01*
X171834Y421541D01*
X172481Y421368D01*
X173059Y421034D01*
X173100Y421018D01*
X173137Y420995D01*
X173214Y420975D01*
X173289Y420947D01*
X173333Y420945D01*
X173375Y420934D01*
X173455Y420941D01*
X173535Y420938D01*
X173577Y420950D01*
X173621Y420954D01*
X173694Y420985D01*
X173771Y421008D01*
X173807Y421033D01*
X173847Y421050D01*
X173961Y421141D01*
X173972Y421149D01*
X173974Y421152D01*
X173978Y421155D01*
X226376Y473553D01*
X226418Y473611D01*
X226467Y473663D01*
X226489Y473710D01*
X226519Y473752D01*
X226540Y473821D01*
X226571Y473886D01*
X226576Y473938D01*
X226592Y473988D01*
X226590Y474059D01*
X226598Y474130D01*
X226587Y474181D01*
X226585Y474233D01*
X226561Y474301D01*
X226545Y474371D01*
X226519Y474415D01*
X226501Y474464D01*
X226456Y474520D01*
X226419Y474582D01*
X226380Y474616D01*
X226347Y474656D01*
X226287Y474695D01*
X226232Y474742D01*
X226184Y474761D01*
X226140Y474789D01*
X226071Y474807D01*
X226004Y474834D01*
X225933Y474842D01*
X225902Y474850D01*
X225878Y474848D01*
X225838Y474852D01*
X188959Y474852D01*
X186111Y476032D01*
X183825Y478318D01*
X182368Y479775D01*
X182273Y479843D01*
X182180Y479913D01*
X182174Y479915D01*
X182169Y479918D01*
X182057Y479953D01*
X181946Y479989D01*
X181939Y479989D01*
X181933Y479991D01*
X181817Y479988D01*
X181700Y479987D01*
X181693Y479984D01*
X181688Y479984D01*
X181670Y479978D01*
X181539Y479940D01*
X180907Y479678D01*
X174693Y479678D01*
X174061Y479940D01*
X173947Y479967D01*
X173834Y479995D01*
X173828Y479995D01*
X173822Y479996D01*
X173705Y479985D01*
X173589Y479976D01*
X173583Y479973D01*
X173577Y479973D01*
X173469Y479925D01*
X173363Y479880D01*
X173357Y479875D01*
X173352Y479873D01*
X173338Y479860D01*
X173232Y479775D01*
X134971Y441514D01*
X134918Y441440D01*
X134858Y441370D01*
X134846Y441340D01*
X134827Y441314D01*
X134800Y441227D01*
X134766Y441142D01*
X134762Y441101D01*
X134755Y441079D01*
X134756Y441047D01*
X134748Y440975D01*
X134748Y364219D01*
X133568Y361371D01*
X110879Y338682D01*
X108031Y337502D01*
X103310Y337502D01*
X103246Y337492D01*
X103180Y337491D01*
X103100Y337468D01*
X103067Y337463D01*
X103050Y337453D01*
X103019Y337444D01*
X101713Y336903D01*
X86556Y336903D01*
X86465Y336889D01*
X86375Y336881D01*
X86345Y336869D01*
X86313Y336864D01*
X86232Y336821D01*
X86148Y336785D01*
X86116Y336759D01*
X86095Y336748D01*
X86073Y336725D01*
X86017Y336680D01*
X79091Y329754D01*
X79038Y329680D01*
X78978Y329610D01*
X78966Y329580D01*
X78947Y329554D01*
X78920Y329467D01*
X78886Y329382D01*
X78882Y329341D01*
X78875Y329319D01*
X78876Y329287D01*
X78868Y329215D01*
X78868Y276858D01*
X78871Y276838D01*
X78869Y276819D01*
X78891Y276717D01*
X78907Y276615D01*
X78917Y276598D01*
X78921Y276578D01*
X78974Y276489D01*
X79023Y276398D01*
X79037Y276384D01*
X79047Y276367D01*
X79126Y276300D01*
X79201Y276228D01*
X79219Y276220D01*
X79234Y276207D01*
X79330Y276168D01*
X79424Y276125D01*
X79444Y276123D01*
X79462Y276115D01*
X79629Y276097D01*
X79833Y276097D01*
X82074Y275169D01*
X83789Y273454D01*
X84362Y272068D01*
X84387Y272029D01*
X84402Y271986D01*
X84451Y271925D01*
X84492Y271859D01*
X84527Y271830D01*
X84556Y271794D01*
X84622Y271752D01*
X84682Y271702D01*
X84724Y271686D01*
X84763Y271661D01*
X84839Y271642D01*
X84911Y271614D01*
X84957Y271612D01*
X85002Y271601D01*
X85079Y271607D01*
X85157Y271604D01*
X85201Y271616D01*
X85247Y271620D01*
X85318Y271650D01*
X85393Y271672D01*
X85431Y271698D01*
X85473Y271716D01*
X85580Y271802D01*
X85595Y271812D01*
X85598Y271816D01*
X85604Y271821D01*
X89591Y275808D01*
X92439Y276988D01*
X106635Y276988D01*
X106725Y277002D01*
X106816Y277010D01*
X106845Y277022D01*
X106877Y277027D01*
X106958Y277070D01*
X107042Y277106D01*
X107074Y277132D01*
X107095Y277143D01*
X107096Y277144D01*
X107117Y277166D01*
X107173Y277211D01*
X109775Y279813D01*
X114359Y281712D01*
X119321Y281712D01*
X123905Y279813D01*
X127413Y276305D01*
X129312Y271721D01*
X129312Y266759D01*
X127413Y262175D01*
X123905Y258667D01*
X119321Y256768D01*
X114359Y256768D01*
X109775Y258667D01*
X107173Y261269D01*
X107099Y261322D01*
X107030Y261382D01*
X106999Y261394D01*
X106973Y261413D01*
X106886Y261440D01*
X106801Y261474D01*
X106760Y261478D01*
X106738Y261485D01*
X106706Y261484D01*
X106635Y261492D01*
X97505Y261492D01*
X97414Y261478D01*
X97324Y261470D01*
X97294Y261458D01*
X97262Y261453D01*
X97181Y261410D01*
X97097Y261374D01*
X97065Y261348D01*
X97044Y261337D01*
X97022Y261314D01*
X96966Y261269D01*
X96871Y261174D01*
X96818Y261100D01*
X96758Y261030D01*
X96746Y261000D01*
X96727Y260974D01*
X96700Y260887D01*
X96666Y260802D01*
X96662Y260761D01*
X96655Y260739D01*
X96656Y260707D01*
X96648Y260635D01*
X96648Y188005D01*
X96662Y187915D01*
X96670Y187824D01*
X96682Y187795D01*
X96687Y187763D01*
X96730Y187682D01*
X96766Y187598D01*
X96792Y187566D01*
X96803Y187545D01*
X96826Y187523D01*
X96871Y187467D01*
X99473Y184865D01*
X101372Y180281D01*
X101372Y175319D01*
X99473Y170735D01*
X95965Y167227D01*
X91381Y165328D01*
X86419Y165328D01*
X81835Y167227D01*
X78327Y170735D01*
X76428Y175319D01*
X76428Y180281D01*
X78327Y184865D01*
X80929Y187467D01*
X80982Y187541D01*
X81042Y187610D01*
X81054Y187641D01*
X81073Y187667D01*
X81100Y187754D01*
X81134Y187839D01*
X81138Y187880D01*
X81145Y187902D01*
X81144Y187934D01*
X81152Y188005D01*
X81152Y235210D01*
X81137Y235304D01*
X81128Y235399D01*
X81117Y235425D01*
X81113Y235452D01*
X81068Y235537D01*
X81030Y235624D01*
X81011Y235645D01*
X80997Y235670D01*
X80928Y235735D01*
X80864Y235806D01*
X80840Y235820D01*
X80819Y235839D01*
X80733Y235879D01*
X80649Y235926D01*
X80622Y235931D01*
X80596Y235943D01*
X80501Y235953D01*
X80408Y235971D01*
X80380Y235967D01*
X80352Y235970D01*
X80258Y235950D01*
X80164Y235936D01*
X80132Y235922D01*
X80111Y235918D01*
X80083Y235901D01*
X80010Y235869D01*
X79601Y235632D01*
X78954Y235459D01*
X72643Y235459D01*
X72643Y243738D01*
X72640Y243758D01*
X72642Y243777D01*
X72620Y243879D01*
X72603Y243981D01*
X72594Y243998D01*
X72590Y244018D01*
X72537Y244107D01*
X72488Y244198D01*
X72474Y244212D01*
X72464Y244229D01*
X72385Y244296D01*
X72310Y244367D01*
X72292Y244376D01*
X72277Y244389D01*
X72181Y244428D01*
X72087Y244471D01*
X72067Y244473D01*
X72049Y244481D01*
X71882Y244499D01*
X71119Y244499D01*
X71119Y245262D01*
X71116Y245282D01*
X71118Y245301D01*
X71096Y245403D01*
X71079Y245505D01*
X71070Y245522D01*
X71066Y245542D01*
X71013Y245631D01*
X70964Y245722D01*
X70950Y245736D01*
X70940Y245753D01*
X70861Y245820D01*
X70786Y245891D01*
X70768Y245900D01*
X70753Y245913D01*
X70657Y245952D01*
X70563Y245995D01*
X70543Y245997D01*
X70525Y246005D01*
X70358Y246023D01*
X61079Y246023D01*
X61079Y250945D01*
X61060Y251059D01*
X61043Y251176D01*
X61041Y251181D01*
X61040Y251187D01*
X60985Y251290D01*
X60932Y251395D01*
X60927Y251399D01*
X60924Y251405D01*
X60840Y251485D01*
X60756Y251567D01*
X60750Y251571D01*
X60746Y251574D01*
X60729Y251582D01*
X60609Y251648D01*
X60166Y251831D01*
X58958Y253040D01*
X58942Y253051D01*
X58930Y253067D01*
X58842Y253123D01*
X58759Y253183D01*
X58740Y253189D01*
X58723Y253200D01*
X58622Y253225D01*
X58523Y253256D01*
X58504Y253255D01*
X58484Y253260D01*
X58381Y253252D01*
X58278Y253249D01*
X58259Y253242D01*
X58239Y253241D01*
X58144Y253200D01*
X58047Y253165D01*
X58031Y253152D01*
X58013Y253144D01*
X57882Y253040D01*
X56674Y251831D01*
X56231Y251648D01*
X56131Y251586D01*
X56031Y251526D01*
X56027Y251522D01*
X56022Y251518D01*
X55947Y251428D01*
X55871Y251340D01*
X55869Y251334D01*
X55865Y251329D01*
X55823Y251221D01*
X55779Y251111D01*
X55778Y251104D01*
X55777Y251099D01*
X55776Y251081D01*
X55761Y250945D01*
X55761Y246023D01*
X46482Y246023D01*
X46462Y246020D01*
X46443Y246022D01*
X46341Y246000D01*
X46239Y245983D01*
X46222Y245974D01*
X46202Y245970D01*
X46113Y245917D01*
X46022Y245868D01*
X46008Y245854D01*
X45991Y245844D01*
X45924Y245765D01*
X45853Y245690D01*
X45844Y245672D01*
X45831Y245657D01*
X45792Y245561D01*
X45749Y245467D01*
X45747Y245447D01*
X45739Y245429D01*
X45721Y245262D01*
X45721Y244499D01*
X44958Y244499D01*
X44938Y244496D01*
X44919Y244498D01*
X44817Y244476D01*
X44715Y244459D01*
X44698Y244450D01*
X44678Y244446D01*
X44589Y244393D01*
X44498Y244344D01*
X44484Y244330D01*
X44467Y244320D01*
X44400Y244241D01*
X44329Y244166D01*
X44320Y244148D01*
X44307Y244133D01*
X44268Y244037D01*
X44225Y243943D01*
X44223Y243923D01*
X44215Y243905D01*
X44197Y243738D01*
X44197Y235459D01*
X37886Y235459D01*
X37239Y235632D01*
X36830Y235869D01*
X36741Y235903D01*
X36654Y235943D01*
X36626Y235946D01*
X36600Y235956D01*
X36504Y235959D01*
X36410Y235970D01*
X36382Y235964D01*
X36354Y235965D01*
X36262Y235938D01*
X36169Y235918D01*
X36145Y235903D01*
X36118Y235895D01*
X36040Y235840D01*
X35958Y235791D01*
X35940Y235770D01*
X35917Y235754D01*
X35860Y235677D01*
X35798Y235605D01*
X35788Y235578D01*
X35771Y235556D01*
X35742Y235465D01*
X35706Y235376D01*
X35702Y235341D01*
X35696Y235321D01*
X35696Y235288D01*
X35688Y235210D01*
X35688Y194025D01*
X35702Y193934D01*
X35710Y193844D01*
X35722Y193814D01*
X35727Y193782D01*
X35752Y193735D01*
X35753Y193733D01*
X35757Y193725D01*
X35770Y193701D01*
X35806Y193617D01*
X35832Y193585D01*
X35843Y193564D01*
X35866Y193542D01*
X35869Y193538D01*
X35879Y193522D01*
X35889Y193513D01*
X35911Y193486D01*
X69026Y160371D01*
X69100Y160318D01*
X69170Y160258D01*
X69200Y160246D01*
X69226Y160227D01*
X69313Y160200D01*
X69398Y160166D01*
X69439Y160162D01*
X69461Y160155D01*
X69493Y160156D01*
X69565Y160148D01*
X136175Y160148D01*
X136266Y160162D01*
G37*
G36*
X58459Y273748D02*
X58459Y273748D01*
X58562Y273751D01*
X58581Y273758D01*
X58601Y273759D01*
X58696Y273800D01*
X58793Y273835D01*
X58809Y273848D01*
X58827Y273856D01*
X58958Y273960D01*
X60166Y275169D01*
X62407Y276097D01*
X62611Y276097D01*
X62631Y276100D01*
X62650Y276098D01*
X62752Y276120D01*
X62854Y276136D01*
X62871Y276146D01*
X62891Y276150D01*
X62980Y276203D01*
X63071Y276252D01*
X63085Y276266D01*
X63102Y276276D01*
X63169Y276355D01*
X63241Y276430D01*
X63249Y276448D01*
X63262Y276463D01*
X63301Y276559D01*
X63344Y276653D01*
X63346Y276673D01*
X63354Y276691D01*
X63372Y276858D01*
X63372Y334281D01*
X64552Y337129D01*
X66838Y339415D01*
X76180Y348757D01*
X76233Y348831D01*
X76293Y348901D01*
X76305Y348931D01*
X76324Y348957D01*
X76351Y349044D01*
X76369Y349089D01*
X76375Y349103D01*
X76375Y349106D01*
X76385Y349129D01*
X76389Y349170D01*
X76396Y349192D01*
X76395Y349224D01*
X76403Y349296D01*
X76403Y400713D01*
X77331Y402954D01*
X79046Y404669D01*
X79489Y404852D01*
X79589Y404914D01*
X79689Y404974D01*
X79693Y404978D01*
X79698Y404982D01*
X79773Y405072D01*
X79849Y405160D01*
X79851Y405166D01*
X79855Y405171D01*
X79897Y405279D01*
X79941Y405389D01*
X79942Y405396D01*
X79943Y405401D01*
X79944Y405419D01*
X79959Y405555D01*
X79959Y406334D01*
X80085Y406803D01*
X80096Y406918D01*
X80110Y407031D01*
X80109Y407041D01*
X80109Y407048D01*
X80104Y407069D01*
X80085Y407197D01*
X79959Y407666D01*
X79959Y409126D01*
X91137Y409126D01*
X91156Y409129D01*
X91176Y409127D01*
X91278Y409149D01*
X91380Y409165D01*
X91397Y409175D01*
X91417Y409179D01*
X91495Y409226D01*
X91565Y409197D01*
X91658Y409154D01*
X91678Y409152D01*
X91696Y409144D01*
X91863Y409126D01*
X103041Y409126D01*
X103041Y407666D01*
X102915Y407197D01*
X102904Y407082D01*
X102890Y406969D01*
X102891Y406959D01*
X102891Y406952D01*
X102896Y406931D01*
X102915Y406803D01*
X103041Y406334D01*
X103041Y405555D01*
X103060Y405441D01*
X103077Y405324D01*
X103079Y405319D01*
X103080Y405313D01*
X103135Y405210D01*
X103188Y405105D01*
X103193Y405101D01*
X103196Y405095D01*
X103280Y405015D01*
X103364Y404933D01*
X103370Y404929D01*
X103374Y404926D01*
X103391Y404918D01*
X103511Y404852D01*
X103954Y404669D01*
X105669Y402954D01*
X106597Y400713D01*
X106597Y358151D01*
X106608Y358081D01*
X106610Y358009D01*
X106628Y357960D01*
X106636Y357909D01*
X106670Y357845D01*
X106695Y357778D01*
X106727Y357737D01*
X106752Y357691D01*
X106804Y357642D01*
X106848Y357586D01*
X106892Y357558D01*
X106930Y357522D01*
X106995Y357492D01*
X107055Y357453D01*
X107106Y357440D01*
X107153Y357418D01*
X107224Y357410D01*
X107294Y357393D01*
X107346Y357397D01*
X107397Y357391D01*
X107468Y357407D01*
X107539Y357412D01*
X107587Y357432D01*
X107638Y357444D01*
X107699Y357480D01*
X107765Y357508D01*
X107821Y357553D01*
X107849Y357570D01*
X107864Y357587D01*
X107896Y357613D01*
X119029Y368746D01*
X119082Y368820D01*
X119142Y368890D01*
X119154Y368920D01*
X119173Y368946D01*
X119200Y369033D01*
X119234Y369118D01*
X119238Y369159D01*
X119245Y369181D01*
X119244Y369213D01*
X119252Y369285D01*
X119252Y446041D01*
X120432Y448889D01*
X122718Y451175D01*
X162275Y490732D01*
X162343Y490827D01*
X162413Y490920D01*
X162415Y490926D01*
X162418Y490931D01*
X162453Y491043D01*
X162489Y491154D01*
X162489Y491161D01*
X162491Y491167D01*
X162488Y491283D01*
X162487Y491400D01*
X162484Y491407D01*
X162484Y491412D01*
X162478Y491430D01*
X162440Y491561D01*
X162178Y492193D01*
X162178Y498407D01*
X164557Y504149D01*
X168962Y508554D01*
X168972Y508558D01*
X169033Y508607D01*
X169099Y508648D01*
X169128Y508683D01*
X169164Y508712D01*
X169206Y508777D01*
X169256Y508837D01*
X169272Y508880D01*
X169297Y508919D01*
X169316Y508994D01*
X169344Y509067D01*
X169346Y509113D01*
X169357Y509157D01*
X169351Y509235D01*
X169354Y509312D01*
X169341Y509357D01*
X169338Y509402D01*
X169308Y509474D01*
X169286Y509549D01*
X169260Y509586D01*
X169242Y509629D01*
X169156Y509735D01*
X169146Y509751D01*
X169142Y509754D01*
X169137Y509760D01*
X165734Y513162D01*
X165734Y516637D01*
X177038Y516637D01*
X177058Y516640D01*
X177077Y516638D01*
X177179Y516660D01*
X177281Y516677D01*
X177298Y516686D01*
X177318Y516690D01*
X177407Y516743D01*
X177498Y516792D01*
X177512Y516806D01*
X177529Y516816D01*
X177596Y516895D01*
X177667Y516970D01*
X177676Y516988D01*
X177689Y517003D01*
X177727Y517099D01*
X177771Y517193D01*
X177773Y517213D01*
X177781Y517231D01*
X177799Y517398D01*
X177799Y518161D01*
X177801Y518161D01*
X177801Y517398D01*
X177804Y517378D01*
X177802Y517359D01*
X177824Y517257D01*
X177841Y517155D01*
X177850Y517138D01*
X177854Y517118D01*
X177907Y517029D01*
X177956Y516938D01*
X177970Y516924D01*
X177980Y516907D01*
X178059Y516840D01*
X178134Y516769D01*
X178152Y516760D01*
X178167Y516747D01*
X178263Y516708D01*
X178357Y516665D01*
X178377Y516663D01*
X178395Y516655D01*
X178562Y516637D01*
X189866Y516637D01*
X189866Y513162D01*
X186463Y509760D01*
X186436Y509722D01*
X186402Y509691D01*
X186365Y509623D01*
X186320Y509560D01*
X186306Y509516D01*
X186284Y509476D01*
X186270Y509399D01*
X186247Y509325D01*
X186248Y509279D01*
X186240Y509234D01*
X186252Y509157D01*
X186254Y509079D01*
X186269Y509036D01*
X186276Y508990D01*
X186311Y508921D01*
X186338Y508848D01*
X186367Y508812D01*
X186388Y508771D01*
X186443Y508717D01*
X186492Y508656D01*
X186531Y508631D01*
X186563Y508599D01*
X186631Y508562D01*
X191043Y504149D01*
X193422Y498407D01*
X193422Y492193D01*
X193160Y491561D01*
X193133Y491447D01*
X193105Y491334D01*
X193105Y491328D01*
X193104Y491322D01*
X193115Y491206D01*
X193124Y491089D01*
X193127Y491083D01*
X193127Y491077D01*
X193175Y490970D01*
X193220Y490863D01*
X193225Y490857D01*
X193227Y490852D01*
X193240Y490838D01*
X193325Y490732D01*
X193486Y490571D01*
X193560Y490517D01*
X193630Y490458D01*
X193660Y490446D01*
X193686Y490427D01*
X193773Y490400D01*
X193858Y490366D01*
X193899Y490362D01*
X193921Y490355D01*
X193953Y490356D01*
X194025Y490348D01*
X255555Y490348D01*
X255646Y490362D01*
X255736Y490370D01*
X255766Y490382D01*
X255798Y490387D01*
X255879Y490430D01*
X255963Y490466D01*
X255995Y490492D01*
X256016Y490503D01*
X256038Y490526D01*
X256094Y490571D01*
X258763Y493240D01*
X258805Y493298D01*
X258854Y493350D01*
X258876Y493397D01*
X258906Y493439D01*
X258927Y493508D01*
X258958Y493573D01*
X258963Y493625D01*
X258979Y493675D01*
X258977Y493746D01*
X258985Y493817D01*
X258974Y493868D01*
X258972Y493920D01*
X258948Y493988D01*
X258932Y494058D01*
X258906Y494103D01*
X258888Y494151D01*
X258843Y494207D01*
X258806Y494269D01*
X258767Y494303D01*
X258734Y494343D01*
X258674Y494382D01*
X258619Y494429D01*
X258571Y494448D01*
X258527Y494476D01*
X258458Y494494D01*
X258391Y494521D01*
X258320Y494529D01*
X258289Y494537D01*
X258265Y494535D01*
X258225Y494539D01*
X255523Y494539D01*
X255523Y502818D01*
X255520Y502838D01*
X255522Y502857D01*
X255500Y502959D01*
X255483Y503061D01*
X255474Y503078D01*
X255470Y503098D01*
X255417Y503187D01*
X255368Y503278D01*
X255354Y503292D01*
X255344Y503309D01*
X255265Y503376D01*
X255190Y503447D01*
X255172Y503456D01*
X255157Y503469D01*
X255061Y503508D01*
X254967Y503551D01*
X254947Y503553D01*
X254929Y503561D01*
X254762Y503579D01*
X253999Y503579D01*
X253999Y504342D01*
X253996Y504362D01*
X253998Y504381D01*
X253976Y504483D01*
X253959Y504585D01*
X253950Y504602D01*
X253946Y504622D01*
X253893Y504711D01*
X253844Y504802D01*
X253830Y504816D01*
X253820Y504833D01*
X253741Y504900D01*
X253666Y504971D01*
X253648Y504980D01*
X253633Y504993D01*
X253537Y505032D01*
X253443Y505075D01*
X253423Y505077D01*
X253405Y505085D01*
X253238Y505103D01*
X243959Y505103D01*
X243959Y510025D01*
X243940Y510139D01*
X243923Y510256D01*
X243921Y510261D01*
X243920Y510267D01*
X243865Y510370D01*
X243812Y510475D01*
X243807Y510479D01*
X243804Y510485D01*
X243720Y510565D01*
X243636Y510647D01*
X243630Y510651D01*
X243626Y510654D01*
X243609Y510662D01*
X243489Y510728D01*
X243046Y510911D01*
X241838Y512120D01*
X241822Y512131D01*
X241810Y512147D01*
X241722Y512203D01*
X241639Y512263D01*
X241620Y512269D01*
X241603Y512280D01*
X241502Y512305D01*
X241403Y512336D01*
X241384Y512335D01*
X241364Y512340D01*
X241261Y512332D01*
X241158Y512329D01*
X241139Y512322D01*
X241119Y512321D01*
X241024Y512280D01*
X240927Y512245D01*
X240911Y512232D01*
X240893Y512224D01*
X240762Y512120D01*
X239554Y510911D01*
X239111Y510728D01*
X239011Y510666D01*
X238911Y510606D01*
X238907Y510602D01*
X238902Y510598D01*
X238827Y510508D01*
X238751Y510420D01*
X238749Y510414D01*
X238745Y510409D01*
X238703Y510300D01*
X238659Y510191D01*
X238658Y510184D01*
X238657Y510179D01*
X238656Y510161D01*
X238641Y510025D01*
X238641Y505103D01*
X229362Y505103D01*
X229342Y505100D01*
X229323Y505102D01*
X229221Y505080D01*
X229119Y505063D01*
X229102Y505054D01*
X229082Y505050D01*
X228993Y504997D01*
X228902Y504948D01*
X228888Y504934D01*
X228871Y504924D01*
X228804Y504845D01*
X228733Y504770D01*
X228724Y504752D01*
X228711Y504737D01*
X228672Y504641D01*
X228629Y504547D01*
X228627Y504527D01*
X228619Y504509D01*
X228601Y504342D01*
X228601Y503579D01*
X228599Y503579D01*
X228599Y504342D01*
X228596Y504362D01*
X228598Y504381D01*
X228576Y504483D01*
X228559Y504585D01*
X228550Y504602D01*
X228546Y504622D01*
X228493Y504711D01*
X228444Y504802D01*
X228430Y504816D01*
X228420Y504833D01*
X228341Y504900D01*
X228266Y504971D01*
X228248Y504980D01*
X228233Y504993D01*
X228137Y505032D01*
X228043Y505075D01*
X228023Y505077D01*
X228005Y505085D01*
X227838Y505103D01*
X218559Y505103D01*
X218559Y510025D01*
X218540Y510139D01*
X218523Y510256D01*
X218521Y510261D01*
X218520Y510267D01*
X218465Y510370D01*
X218412Y510475D01*
X218407Y510479D01*
X218404Y510485D01*
X218320Y510565D01*
X218236Y510647D01*
X218230Y510651D01*
X218226Y510654D01*
X218209Y510662D01*
X218089Y510728D01*
X217646Y510911D01*
X215931Y512626D01*
X215003Y514867D01*
X215003Y530293D01*
X215931Y532534D01*
X217646Y534249D01*
X219887Y535177D01*
X220091Y535177D01*
X220111Y535180D01*
X220130Y535178D01*
X220232Y535200D01*
X220334Y535216D01*
X220351Y535226D01*
X220371Y535230D01*
X220460Y535283D01*
X220551Y535332D01*
X220565Y535346D01*
X220582Y535356D01*
X220649Y535435D01*
X220721Y535510D01*
X220729Y535528D01*
X220742Y535543D01*
X220781Y535639D01*
X220824Y535733D01*
X220826Y535753D01*
X220834Y535771D01*
X220852Y535938D01*
X220852Y539214D01*
X220838Y539304D01*
X220830Y539395D01*
X220818Y539425D01*
X220813Y539457D01*
X220770Y539537D01*
X220734Y539621D01*
X220708Y539654D01*
X220697Y539674D01*
X220674Y539696D01*
X220629Y539752D01*
X216972Y543410D01*
X214883Y548452D01*
X214883Y550291D01*
X214881Y550305D01*
X214882Y550317D01*
X214881Y550322D01*
X214882Y550330D01*
X214860Y550432D01*
X214844Y550534D01*
X214834Y550551D01*
X214830Y550571D01*
X214777Y550660D01*
X214728Y550751D01*
X214714Y550765D01*
X214704Y550782D01*
X214625Y550849D01*
X214550Y550921D01*
X214532Y550929D01*
X214517Y550942D01*
X214421Y550981D01*
X214327Y551024D01*
X214307Y551026D01*
X214289Y551034D01*
X214122Y551052D01*
X204199Y551052D01*
X201351Y552232D01*
X192594Y560989D01*
X192520Y561042D01*
X192450Y561102D01*
X192420Y561114D01*
X192394Y561133D01*
X192307Y561160D01*
X192222Y561194D01*
X192181Y561198D01*
X192159Y561205D01*
X192127Y561204D01*
X192055Y561212D01*
X192008Y561212D01*
X191929Y561199D01*
X191913Y561199D01*
X191902Y561195D01*
X191894Y561194D01*
X191777Y561176D01*
X191772Y561174D01*
X191766Y561173D01*
X191662Y561118D01*
X191558Y561065D01*
X191554Y561060D01*
X191548Y561057D01*
X191467Y560972D01*
X191386Y560889D01*
X191382Y560883D01*
X191379Y560879D01*
X191371Y560862D01*
X191305Y560742D01*
X191043Y560111D01*
X186649Y555717D01*
X180907Y553338D01*
X174693Y553338D01*
X172265Y554344D01*
X172152Y554370D01*
X172038Y554399D01*
X172032Y554398D01*
X172026Y554400D01*
X171909Y554389D01*
X171793Y554380D01*
X171787Y554377D01*
X171781Y554377D01*
X171673Y554329D01*
X171567Y554284D01*
X171561Y554279D01*
X171556Y554277D01*
X171542Y554264D01*
X171436Y554179D01*
X140051Y522794D01*
X139998Y522720D01*
X139938Y522650D01*
X139926Y522620D01*
X139907Y522594D01*
X139880Y522507D01*
X139846Y522422D01*
X139842Y522381D01*
X139835Y522359D01*
X139836Y522327D01*
X139828Y522255D01*
X139828Y511539D01*
X138648Y508691D01*
X35911Y405954D01*
X35858Y405880D01*
X35798Y405810D01*
X35786Y405780D01*
X35767Y405754D01*
X35740Y405667D01*
X35706Y405582D01*
X35702Y405541D01*
X35695Y405519D01*
X35696Y405487D01*
X35688Y405415D01*
X35688Y276689D01*
X35695Y276644D01*
X35693Y276598D01*
X35715Y276523D01*
X35727Y276447D01*
X35749Y276406D01*
X35762Y276362D01*
X35806Y276298D01*
X35843Y276229D01*
X35876Y276198D01*
X35902Y276160D01*
X35965Y276113D01*
X36021Y276060D01*
X36063Y276041D01*
X36099Y276013D01*
X36173Y275989D01*
X36244Y275956D01*
X36290Y275951D01*
X36333Y275937D01*
X36411Y275938D01*
X36488Y275929D01*
X36533Y275939D01*
X36579Y275939D01*
X36710Y275977D01*
X36729Y275981D01*
X36733Y275984D01*
X36740Y275986D01*
X37007Y276097D01*
X54433Y276097D01*
X56674Y275169D01*
X57882Y273960D01*
X57898Y273949D01*
X57910Y273933D01*
X57998Y273877D01*
X58081Y273817D01*
X58100Y273811D01*
X58117Y273800D01*
X58218Y273775D01*
X58317Y273744D01*
X58336Y273745D01*
X58356Y273740D01*
X58459Y273748D01*
G37*
G36*
X419768Y412507D02*
X419768Y412507D01*
X419839Y412512D01*
X419873Y412526D01*
X419902Y412531D01*
X419916Y412539D01*
X419938Y412544D01*
X419999Y412580D01*
X420065Y412608D01*
X420100Y412636D01*
X420119Y412646D01*
X420132Y412660D01*
X420149Y412670D01*
X420164Y412687D01*
X420196Y412713D01*
X427518Y420035D01*
X447580Y440097D01*
X447633Y440171D01*
X447693Y440241D01*
X447705Y440271D01*
X447724Y440297D01*
X447751Y440384D01*
X447785Y440469D01*
X447789Y440510D01*
X447796Y440532D01*
X447795Y440564D01*
X447803Y440636D01*
X447803Y450673D01*
X448731Y452914D01*
X450446Y454629D01*
X452687Y455557D01*
X468113Y455557D01*
X469609Y454937D01*
X469697Y454916D01*
X469784Y454888D01*
X469817Y454888D01*
X469848Y454881D01*
X469939Y454889D01*
X470030Y454890D01*
X470070Y454902D01*
X470093Y454904D01*
X470122Y454917D01*
X470191Y454937D01*
X471687Y455557D01*
X479069Y455557D01*
X479139Y455568D01*
X479211Y455570D01*
X479260Y455588D01*
X479311Y455596D01*
X479374Y455630D01*
X479442Y455655D01*
X479483Y455687D01*
X479529Y455712D01*
X479578Y455763D01*
X479634Y455808D01*
X479662Y455852D01*
X479698Y455890D01*
X479728Y455955D01*
X479767Y456015D01*
X479780Y456066D01*
X479802Y456113D01*
X479810Y456184D01*
X479827Y456254D01*
X479823Y456306D01*
X479829Y456357D01*
X479813Y456428D01*
X479808Y456499D01*
X479788Y456547D01*
X479776Y456598D01*
X479740Y456659D01*
X479712Y456725D01*
X479667Y456781D01*
X479650Y456809D01*
X479633Y456824D01*
X479607Y456856D01*
X427518Y508945D01*
X425232Y511231D01*
X424052Y514079D01*
X424052Y539214D01*
X424038Y539304D01*
X424030Y539395D01*
X424018Y539425D01*
X424013Y539457D01*
X423970Y539537D01*
X423934Y539621D01*
X423908Y539653D01*
X423897Y539674D01*
X423874Y539696D01*
X423829Y539752D01*
X420172Y543410D01*
X419803Y544299D01*
X419766Y544360D01*
X419736Y544425D01*
X419701Y544464D01*
X419674Y544508D01*
X419618Y544554D01*
X419570Y544607D01*
X419524Y544632D01*
X419484Y544665D01*
X419417Y544691D01*
X419354Y544725D01*
X419303Y544734D01*
X419255Y544753D01*
X419183Y544756D01*
X419112Y544769D01*
X419061Y544761D01*
X419009Y544763D01*
X418940Y544744D01*
X418869Y544733D01*
X418823Y544709D01*
X418773Y544695D01*
X418714Y544654D01*
X418650Y544622D01*
X418613Y544584D01*
X418571Y544555D01*
X418528Y544497D01*
X418478Y544446D01*
X418443Y544383D01*
X418424Y544357D01*
X418416Y544335D01*
X418397Y544299D01*
X418028Y543410D01*
X414371Y539752D01*
X414318Y539678D01*
X414258Y539609D01*
X414246Y539579D01*
X414227Y539553D01*
X414200Y539466D01*
X414166Y539381D01*
X414162Y539340D01*
X414155Y539317D01*
X414156Y539285D01*
X414148Y539214D01*
X414148Y454705D01*
X414162Y454615D01*
X414170Y454524D01*
X414182Y454495D01*
X414187Y454463D01*
X414230Y454382D01*
X414266Y454298D01*
X414292Y454266D01*
X414303Y454245D01*
X414326Y454223D01*
X414371Y454167D01*
X416973Y451565D01*
X418872Y446981D01*
X418872Y442019D01*
X416973Y437435D01*
X413465Y433927D01*
X408881Y432028D01*
X403919Y432028D01*
X399335Y433927D01*
X395827Y437435D01*
X393928Y442019D01*
X393928Y446981D01*
X395827Y451565D01*
X398429Y454167D01*
X398482Y454241D01*
X398542Y454310D01*
X398554Y454341D01*
X398573Y454367D01*
X398600Y454454D01*
X398634Y454539D01*
X398638Y454580D01*
X398645Y454602D01*
X398644Y454634D01*
X398652Y454705D01*
X398652Y539214D01*
X398638Y539304D01*
X398630Y539395D01*
X398618Y539425D01*
X398613Y539457D01*
X398570Y539537D01*
X398534Y539621D01*
X398508Y539653D01*
X398497Y539674D01*
X398474Y539696D01*
X398429Y539752D01*
X394772Y543410D01*
X394403Y544299D01*
X394366Y544360D01*
X394336Y544425D01*
X394301Y544464D01*
X394274Y544508D01*
X394218Y544554D01*
X394170Y544607D01*
X394124Y544632D01*
X394084Y544665D01*
X394017Y544691D01*
X393954Y544725D01*
X393903Y544734D01*
X393855Y544753D01*
X393783Y544756D01*
X393712Y544769D01*
X393661Y544761D01*
X393609Y544763D01*
X393540Y544744D01*
X393469Y544733D01*
X393423Y544709D01*
X393373Y544695D01*
X393314Y544654D01*
X393250Y544622D01*
X393213Y544584D01*
X393171Y544555D01*
X393128Y544497D01*
X393078Y544446D01*
X393043Y544383D01*
X393024Y544357D01*
X393016Y544335D01*
X392997Y544299D01*
X392628Y543410D01*
X388971Y539752D01*
X388918Y539678D01*
X388858Y539609D01*
X388846Y539579D01*
X388827Y539553D01*
X388800Y539466D01*
X388766Y539381D01*
X388762Y539340D01*
X388755Y539317D01*
X388756Y539285D01*
X388748Y539214D01*
X388748Y425165D01*
X388762Y425074D01*
X388770Y424984D01*
X388782Y424954D01*
X388787Y424922D01*
X388830Y424841D01*
X388866Y424757D01*
X388892Y424725D01*
X388903Y424704D01*
X388926Y424682D01*
X388971Y424626D01*
X392398Y421199D01*
X392434Y421173D01*
X392463Y421141D01*
X392533Y421102D01*
X392598Y421055D01*
X392640Y421042D01*
X392678Y421021D01*
X392757Y421006D01*
X392833Y420983D01*
X392877Y420984D01*
X392920Y420976D01*
X392999Y420987D01*
X393079Y420989D01*
X393120Y421004D01*
X393164Y421010D01*
X393297Y421069D01*
X393310Y421074D01*
X393313Y421076D01*
X393317Y421078D01*
X393819Y421368D01*
X394466Y421541D01*
X402676Y421541D01*
X402676Y419358D01*
X402679Y419338D01*
X402677Y419319D01*
X402699Y419217D01*
X402715Y419115D01*
X402725Y419098D01*
X402729Y419078D01*
X402782Y418989D01*
X402831Y418898D01*
X402845Y418884D01*
X402855Y418867D01*
X402934Y418800D01*
X403009Y418728D01*
X403027Y418720D01*
X403042Y418707D01*
X403138Y418668D01*
X403232Y418625D01*
X403252Y418623D01*
X403270Y418615D01*
X403437Y418597D01*
X404163Y418597D01*
X404183Y418600D01*
X404202Y418598D01*
X404304Y418620D01*
X404406Y418636D01*
X404423Y418646D01*
X404443Y418650D01*
X404532Y418703D01*
X404623Y418752D01*
X404637Y418766D01*
X404654Y418776D01*
X404721Y418855D01*
X404793Y418930D01*
X404801Y418948D01*
X404814Y418963D01*
X404853Y419059D01*
X404896Y419153D01*
X404898Y419173D01*
X404906Y419191D01*
X404924Y419358D01*
X404924Y421541D01*
X413134Y421541D01*
X413781Y421368D01*
X414360Y421033D01*
X414833Y420560D01*
X415168Y419981D01*
X415341Y419334D01*
X415341Y418555D01*
X415342Y418546D01*
X415342Y418542D01*
X415346Y418521D01*
X415360Y418441D01*
X415377Y418324D01*
X415379Y418319D01*
X415380Y418313D01*
X415435Y418210D01*
X415488Y418105D01*
X415493Y418101D01*
X415496Y418095D01*
X415580Y418015D01*
X415664Y417933D01*
X415670Y417929D01*
X415674Y417926D01*
X415691Y417918D01*
X415811Y417852D01*
X416254Y417669D01*
X417969Y415954D01*
X418897Y413713D01*
X418897Y413251D01*
X418900Y413232D01*
X418898Y413213D01*
X418909Y413163D01*
X418910Y413109D01*
X418928Y413060D01*
X418936Y413009D01*
X418946Y412990D01*
X418950Y412973D01*
X418976Y412930D01*
X418995Y412878D01*
X419027Y412837D01*
X419052Y412791D01*
X419068Y412776D01*
X419076Y412762D01*
X419113Y412731D01*
X419148Y412686D01*
X419192Y412658D01*
X419230Y412622D01*
X419251Y412612D01*
X419263Y412602D01*
X419306Y412585D01*
X419355Y412553D01*
X419406Y412540D01*
X419453Y412518D01*
X419477Y412516D01*
X419491Y412510D01*
X419554Y412503D01*
X419594Y412493D01*
X419624Y412495D01*
X419658Y412491D01*
X419659Y412491D01*
X419674Y412494D01*
X419697Y412491D01*
X419768Y412507D01*
G37*
G36*
X352166Y109362D02*
X352166Y109362D01*
X352256Y109370D01*
X352286Y109382D01*
X352318Y109387D01*
X352399Y109430D01*
X352483Y109466D01*
X352515Y109492D01*
X352536Y109503D01*
X352558Y109526D01*
X352614Y109571D01*
X359531Y116487D01*
X359557Y116525D01*
X359591Y116556D01*
X359629Y116624D01*
X359674Y116687D01*
X359688Y116731D01*
X359710Y116771D01*
X359724Y116848D01*
X359746Y116922D01*
X359745Y116968D01*
X359753Y117013D01*
X359742Y117090D01*
X359740Y117168D01*
X359724Y117211D01*
X359718Y117257D01*
X359682Y117326D01*
X359656Y117399D01*
X359627Y117435D01*
X359606Y117476D01*
X359551Y117530D01*
X359502Y117591D01*
X359463Y117616D01*
X359431Y117648D01*
X359311Y117714D01*
X359295Y117724D01*
X359290Y117725D01*
X359284Y117729D01*
X357346Y118531D01*
X355631Y120246D01*
X354703Y122487D01*
X354703Y136744D01*
X354696Y136789D01*
X354698Y136835D01*
X354676Y136910D01*
X354664Y136987D01*
X354642Y137027D01*
X354629Y137072D01*
X354585Y137136D01*
X354548Y137204D01*
X354515Y137236D01*
X354489Y137274D01*
X354426Y137320D01*
X354370Y137374D01*
X354329Y137393D01*
X354292Y137420D01*
X354217Y137445D01*
X354147Y137477D01*
X354101Y137482D01*
X354058Y137497D01*
X353980Y137496D01*
X353903Y137504D01*
X353858Y137495D01*
X353812Y137494D01*
X353681Y137456D01*
X353662Y137452D01*
X353658Y137450D01*
X353651Y137447D01*
X353411Y137348D01*
X353311Y137286D01*
X353211Y137226D01*
X353207Y137222D01*
X353202Y137218D01*
X353127Y137129D01*
X353051Y137040D01*
X353049Y137034D01*
X353045Y137029D01*
X353003Y136921D01*
X352959Y136811D01*
X352958Y136804D01*
X352957Y136799D01*
X352956Y136781D01*
X352941Y136645D01*
X352941Y131723D01*
X343662Y131723D01*
X343642Y131720D01*
X343623Y131722D01*
X343521Y131700D01*
X343419Y131683D01*
X343402Y131674D01*
X343382Y131670D01*
X343293Y131617D01*
X343202Y131568D01*
X343188Y131554D01*
X343171Y131544D01*
X343104Y131465D01*
X343033Y131390D01*
X343024Y131372D01*
X343011Y131357D01*
X342972Y131261D01*
X342929Y131167D01*
X342927Y131147D01*
X342919Y131129D01*
X342901Y130962D01*
X342901Y130199D01*
X342899Y130199D01*
X342899Y130962D01*
X342896Y130982D01*
X342898Y131001D01*
X342876Y131103D01*
X342859Y131205D01*
X342850Y131222D01*
X342846Y131242D01*
X342793Y131331D01*
X342744Y131422D01*
X342730Y131436D01*
X342720Y131453D01*
X342641Y131520D01*
X342566Y131591D01*
X342548Y131600D01*
X342533Y131613D01*
X342437Y131652D01*
X342343Y131695D01*
X342323Y131697D01*
X342305Y131705D01*
X342138Y131723D01*
X332859Y131723D01*
X332859Y136645D01*
X332840Y136759D01*
X332823Y136876D01*
X332821Y136881D01*
X332820Y136887D01*
X332765Y136990D01*
X332712Y137095D01*
X332707Y137099D01*
X332704Y137105D01*
X332620Y137185D01*
X332536Y137267D01*
X332530Y137271D01*
X332526Y137274D01*
X332509Y137282D01*
X332389Y137348D01*
X331946Y137531D01*
X330738Y138740D01*
X330722Y138751D01*
X330710Y138767D01*
X330622Y138823D01*
X330539Y138883D01*
X330520Y138889D01*
X330503Y138900D01*
X330402Y138925D01*
X330303Y138956D01*
X330284Y138955D01*
X330264Y138960D01*
X330161Y138952D01*
X330058Y138949D01*
X330039Y138942D01*
X330019Y138941D01*
X329924Y138900D01*
X329827Y138865D01*
X329811Y138852D01*
X329793Y138844D01*
X329662Y138740D01*
X328454Y137531D01*
X328011Y137348D01*
X327911Y137286D01*
X327811Y137226D01*
X327807Y137222D01*
X327802Y137218D01*
X327727Y137128D01*
X327651Y137040D01*
X327649Y137034D01*
X327645Y137029D01*
X327603Y136921D01*
X327559Y136811D01*
X327558Y136804D01*
X327557Y136799D01*
X327556Y136781D01*
X327541Y136645D01*
X327541Y131723D01*
X318262Y131723D01*
X318242Y131720D01*
X318223Y131722D01*
X318121Y131700D01*
X318019Y131683D01*
X318002Y131674D01*
X317982Y131670D01*
X317893Y131617D01*
X317802Y131568D01*
X317788Y131554D01*
X317771Y131544D01*
X317704Y131465D01*
X317633Y131390D01*
X317624Y131372D01*
X317611Y131357D01*
X317572Y131261D01*
X317529Y131167D01*
X317527Y131147D01*
X317519Y131129D01*
X317501Y130962D01*
X317501Y130199D01*
X317499Y130199D01*
X317499Y130962D01*
X317496Y130982D01*
X317498Y131001D01*
X317476Y131103D01*
X317459Y131205D01*
X317450Y131222D01*
X317446Y131242D01*
X317393Y131331D01*
X317344Y131422D01*
X317330Y131436D01*
X317320Y131453D01*
X317241Y131520D01*
X317166Y131591D01*
X317148Y131600D01*
X317133Y131613D01*
X317037Y131652D01*
X316943Y131695D01*
X316923Y131697D01*
X316905Y131705D01*
X316738Y131723D01*
X307459Y131723D01*
X307459Y136645D01*
X307440Y136759D01*
X307423Y136876D01*
X307421Y136881D01*
X307420Y136887D01*
X307365Y136990D01*
X307312Y137095D01*
X307307Y137099D01*
X307304Y137105D01*
X307220Y137185D01*
X307136Y137267D01*
X307130Y137271D01*
X307126Y137274D01*
X307109Y137282D01*
X306989Y137348D01*
X306546Y137531D01*
X304831Y139246D01*
X303903Y141487D01*
X303903Y156913D01*
X304831Y159154D01*
X306546Y160869D01*
X308787Y161797D01*
X308991Y161797D01*
X309011Y161800D01*
X309030Y161798D01*
X309132Y161820D01*
X309234Y161836D01*
X309251Y161846D01*
X309271Y161850D01*
X309360Y161903D01*
X309451Y161952D01*
X309465Y161966D01*
X309482Y161976D01*
X309549Y162055D01*
X309621Y162130D01*
X309629Y162148D01*
X309642Y162163D01*
X309681Y162259D01*
X309724Y162353D01*
X309726Y162373D01*
X309734Y162391D01*
X309752Y162558D01*
X309752Y164101D01*
X310932Y166949D01*
X319086Y175103D01*
X319128Y175161D01*
X319177Y175213D01*
X319199Y175260D01*
X319229Y175302D01*
X319250Y175371D01*
X319281Y175436D01*
X319286Y175488D01*
X319302Y175538D01*
X319300Y175609D01*
X319308Y175680D01*
X319297Y175731D01*
X319295Y175783D01*
X319271Y175851D01*
X319255Y175921D01*
X319229Y175966D01*
X319211Y176014D01*
X319166Y176070D01*
X319129Y176132D01*
X319090Y176166D01*
X319057Y176206D01*
X318997Y176245D01*
X318942Y176292D01*
X318894Y176311D01*
X318850Y176339D01*
X318781Y176357D01*
X318714Y176384D01*
X318643Y176392D01*
X318612Y176400D01*
X318588Y176398D01*
X318548Y176402D01*
X297858Y176402D01*
X297838Y176399D01*
X297819Y176401D01*
X297717Y176379D01*
X297615Y176363D01*
X297598Y176353D01*
X297578Y176349D01*
X297489Y176296D01*
X297398Y176247D01*
X297384Y176233D01*
X297367Y176223D01*
X297300Y176144D01*
X297228Y176069D01*
X297220Y176051D01*
X297207Y176036D01*
X297168Y175940D01*
X297125Y175846D01*
X297123Y175826D01*
X297115Y175808D01*
X297097Y175641D01*
X297097Y167237D01*
X296169Y164996D01*
X294454Y163281D01*
X292213Y162353D01*
X267787Y162353D01*
X265546Y163281D01*
X263831Y164996D01*
X263212Y166491D01*
X263161Y166574D01*
X263115Y166660D01*
X263097Y166678D01*
X263083Y166700D01*
X263008Y166763D01*
X262937Y166829D01*
X262913Y166840D01*
X262893Y166857D01*
X262802Y166892D01*
X262714Y166933D01*
X262688Y166936D01*
X262664Y166945D01*
X262566Y166949D01*
X262470Y166960D01*
X262444Y166955D01*
X262418Y166956D01*
X262324Y166929D01*
X262229Y166908D01*
X262207Y166895D01*
X262182Y166887D01*
X262102Y166832D01*
X262018Y166782D01*
X262001Y166762D01*
X261980Y166747D01*
X261921Y166669D01*
X261858Y166595D01*
X261848Y166571D01*
X261833Y166550D01*
X261803Y166457D01*
X261766Y166367D01*
X261763Y166334D01*
X261757Y166316D01*
X261757Y166283D01*
X261748Y166200D01*
X261748Y152725D01*
X261762Y152634D01*
X261770Y152544D01*
X261782Y152514D01*
X261787Y152482D01*
X261830Y152401D01*
X261866Y152317D01*
X261892Y152285D01*
X261903Y152264D01*
X261926Y152242D01*
X261971Y152186D01*
X264837Y149320D01*
X264911Y149267D01*
X264981Y149207D01*
X265011Y149195D01*
X265037Y149176D01*
X265124Y149149D01*
X265209Y149115D01*
X265250Y149111D01*
X265272Y149104D01*
X265304Y149105D01*
X265376Y149097D01*
X275413Y149097D01*
X277654Y148169D01*
X279369Y146454D01*
X280297Y144213D01*
X280297Y128787D01*
X279369Y126546D01*
X277654Y124831D01*
X277211Y124648D01*
X277111Y124586D01*
X277011Y124526D01*
X277007Y124522D01*
X277002Y124518D01*
X276927Y124428D01*
X276851Y124340D01*
X276849Y124334D01*
X276845Y124329D01*
X276803Y124221D01*
X276759Y124111D01*
X276758Y124104D01*
X276757Y124099D01*
X276756Y124081D01*
X276741Y123945D01*
X276741Y119023D01*
X267462Y119023D01*
X267442Y119020D01*
X267423Y119022D01*
X267321Y119000D01*
X267219Y118983D01*
X267202Y118974D01*
X267182Y118970D01*
X267093Y118917D01*
X267002Y118868D01*
X266988Y118854D01*
X266971Y118844D01*
X266904Y118765D01*
X266833Y118690D01*
X266824Y118672D01*
X266811Y118657D01*
X266772Y118561D01*
X266729Y118467D01*
X266727Y118447D01*
X266719Y118429D01*
X266701Y118262D01*
X266701Y116738D01*
X266704Y116718D01*
X266702Y116699D01*
X266724Y116597D01*
X266741Y116495D01*
X266750Y116478D01*
X266754Y116458D01*
X266807Y116369D01*
X266856Y116278D01*
X266870Y116264D01*
X266880Y116247D01*
X266959Y116180D01*
X267034Y116109D01*
X267052Y116100D01*
X267067Y116087D01*
X267163Y116048D01*
X267257Y116005D01*
X267277Y116003D01*
X267295Y115995D01*
X267462Y115977D01*
X276741Y115977D01*
X276741Y110666D01*
X276644Y110306D01*
X276632Y110187D01*
X276619Y110070D01*
X276620Y110065D01*
X276620Y110061D01*
X276646Y109946D01*
X276672Y109829D01*
X276674Y109826D01*
X276675Y109822D01*
X276737Y109720D01*
X276798Y109618D01*
X276801Y109615D01*
X276803Y109612D01*
X276894Y109536D01*
X276985Y109458D01*
X276989Y109457D01*
X276992Y109454D01*
X277101Y109411D01*
X277213Y109366D01*
X277218Y109366D01*
X277221Y109364D01*
X277235Y109364D01*
X277380Y109348D01*
X352075Y109348D01*
X352166Y109362D01*
G37*
G36*
X296286Y477662D02*
X296286Y477662D01*
X296376Y477670D01*
X296406Y477682D01*
X296438Y477687D01*
X296519Y477730D01*
X296603Y477766D01*
X296635Y477792D01*
X296656Y477803D01*
X296678Y477826D01*
X296734Y477871D01*
X296829Y477966D01*
X296882Y478040D01*
X296942Y478110D01*
X296954Y478140D01*
X296973Y478166D01*
X297000Y478253D01*
X297034Y478338D01*
X297038Y478379D01*
X297045Y478401D01*
X297044Y478433D01*
X297052Y478505D01*
X297052Y539214D01*
X297038Y539304D01*
X297030Y539395D01*
X297018Y539425D01*
X297013Y539457D01*
X296970Y539537D01*
X296934Y539621D01*
X296908Y539653D01*
X296897Y539674D01*
X296874Y539696D01*
X296829Y539752D01*
X293172Y543410D01*
X291083Y548452D01*
X291083Y569148D01*
X293172Y574190D01*
X297030Y578048D01*
X300372Y579433D01*
X300455Y579484D01*
X300541Y579530D01*
X300559Y579548D01*
X300581Y579562D01*
X300643Y579638D01*
X300710Y579708D01*
X300721Y579732D01*
X300738Y579752D01*
X300773Y579843D01*
X300814Y579931D01*
X300817Y579957D01*
X300826Y579981D01*
X300830Y580079D01*
X300841Y580175D01*
X300835Y580201D01*
X300836Y580227D01*
X300809Y580321D01*
X300789Y580416D01*
X300775Y580438D01*
X300768Y580463D01*
X300712Y580543D01*
X300662Y580627D01*
X300643Y580644D01*
X300628Y580665D01*
X300549Y580724D01*
X300476Y580787D01*
X300451Y580797D01*
X300430Y580812D01*
X300338Y580842D01*
X300247Y580879D01*
X300215Y580882D01*
X300196Y580888D01*
X300163Y580888D01*
X300081Y580897D01*
X258719Y580897D01*
X258623Y580882D01*
X258526Y580872D01*
X258502Y580862D01*
X258477Y580858D01*
X258391Y580812D01*
X258302Y580772D01*
X258282Y580755D01*
X258259Y580742D01*
X258192Y580672D01*
X258120Y580606D01*
X258108Y580583D01*
X258090Y580564D01*
X258049Y580476D01*
X258002Y580390D01*
X257997Y580365D01*
X257986Y580341D01*
X257976Y580244D01*
X257958Y580148D01*
X257962Y580122D01*
X257959Y580097D01*
X257980Y580001D01*
X257994Y579905D01*
X258006Y579882D01*
X258011Y579856D01*
X258061Y579773D01*
X258105Y579686D01*
X258124Y579667D01*
X258138Y579645D01*
X258211Y579582D01*
X258281Y579514D01*
X258310Y579498D01*
X258324Y579485D01*
X258355Y579473D01*
X258428Y579433D01*
X261770Y578048D01*
X265628Y574190D01*
X267717Y569148D01*
X267717Y548452D01*
X265628Y543410D01*
X261971Y539752D01*
X261918Y539678D01*
X261858Y539609D01*
X261846Y539579D01*
X261827Y539553D01*
X261800Y539465D01*
X261766Y539381D01*
X261762Y539340D01*
X261755Y539317D01*
X261756Y539285D01*
X261748Y539214D01*
X261748Y535938D01*
X261751Y535918D01*
X261749Y535899D01*
X261771Y535797D01*
X261787Y535695D01*
X261797Y535678D01*
X261801Y535658D01*
X261854Y535569D01*
X261903Y535478D01*
X261917Y535464D01*
X261927Y535447D01*
X262006Y535380D01*
X262081Y535308D01*
X262099Y535300D01*
X262114Y535287D01*
X262210Y535248D01*
X262304Y535205D01*
X262324Y535203D01*
X262342Y535195D01*
X262509Y535177D01*
X262713Y535177D01*
X264954Y534249D01*
X266669Y532534D01*
X267605Y530272D01*
X267616Y530210D01*
X267633Y530094D01*
X267635Y530088D01*
X267636Y530082D01*
X267691Y529979D01*
X267744Y529874D01*
X267749Y529870D01*
X267752Y529864D01*
X267836Y529785D01*
X267920Y529702D01*
X267926Y529699D01*
X267930Y529695D01*
X267947Y529687D01*
X268067Y529621D01*
X269209Y529148D01*
X278348Y520009D01*
X279528Y517161D01*
X279528Y493759D01*
X278348Y490911D01*
X276062Y488625D01*
X266384Y478947D01*
X266342Y478889D01*
X266293Y478837D01*
X266271Y478790D01*
X266241Y478748D01*
X266220Y478679D01*
X266189Y478614D01*
X266184Y478562D01*
X266168Y478512D01*
X266170Y478441D01*
X266162Y478370D01*
X266173Y478319D01*
X266175Y478267D01*
X266199Y478199D01*
X266215Y478129D01*
X266241Y478084D01*
X266259Y478036D01*
X266304Y477980D01*
X266341Y477918D01*
X266380Y477884D01*
X266413Y477844D01*
X266473Y477805D01*
X266528Y477758D01*
X266576Y477739D01*
X266620Y477711D01*
X266689Y477693D01*
X266756Y477666D01*
X266827Y477658D01*
X266858Y477650D01*
X266882Y477652D01*
X266922Y477648D01*
X296195Y477648D01*
X296286Y477662D01*
G37*
G36*
X385211Y236351D02*
X385211Y236351D01*
X385230Y236349D01*
X385332Y236371D01*
X385434Y236387D01*
X385451Y236397D01*
X385471Y236401D01*
X385560Y236454D01*
X385651Y236503D01*
X385665Y236517D01*
X385682Y236527D01*
X385749Y236606D01*
X385821Y236681D01*
X385829Y236699D01*
X385842Y236714D01*
X385881Y236810D01*
X385924Y236904D01*
X385926Y236924D01*
X385934Y236942D01*
X385952Y237109D01*
X385952Y275875D01*
X385938Y275966D01*
X385930Y276056D01*
X385918Y276086D01*
X385913Y276118D01*
X385870Y276199D01*
X385834Y276283D01*
X385808Y276315D01*
X385797Y276336D01*
X385774Y276358D01*
X385729Y276414D01*
X376972Y285171D01*
X376517Y286270D01*
X376492Y286309D01*
X376477Y286352D01*
X376428Y286413D01*
X376387Y286479D01*
X376352Y286509D01*
X376323Y286544D01*
X376257Y286587D01*
X376197Y286636D01*
X376155Y286653D01*
X376116Y286677D01*
X376040Y286696D01*
X375968Y286724D01*
X375922Y286726D01*
X375877Y286738D01*
X375800Y286731D01*
X375722Y286735D01*
X375678Y286722D01*
X375632Y286718D01*
X375561Y286688D01*
X375486Y286666D01*
X375454Y286644D01*
X370781Y284708D01*
X365819Y284708D01*
X361235Y286607D01*
X357727Y290115D01*
X355828Y294699D01*
X355828Y299661D01*
X357727Y304245D01*
X360329Y306847D01*
X360382Y306921D01*
X360442Y306990D01*
X360454Y307021D01*
X360473Y307047D01*
X360500Y307134D01*
X360534Y307219D01*
X360538Y307260D01*
X360545Y307282D01*
X360544Y307314D01*
X360552Y307385D01*
X360552Y308057D01*
X360541Y308127D01*
X360539Y308199D01*
X360521Y308248D01*
X360513Y308300D01*
X360479Y308363D01*
X360454Y308430D01*
X360422Y308471D01*
X360397Y308517D01*
X360345Y308566D01*
X360301Y308622D01*
X360257Y308650D01*
X360219Y308686D01*
X360154Y308716D01*
X360094Y308755D01*
X360043Y308768D01*
X359996Y308790D01*
X359925Y308798D01*
X359855Y308815D01*
X359803Y308811D01*
X359752Y308817D01*
X359681Y308802D01*
X359610Y308796D01*
X359562Y308776D01*
X359511Y308765D01*
X359450Y308728D01*
X359384Y308700D01*
X359328Y308655D01*
X359300Y308639D01*
X359285Y308621D01*
X359253Y308595D01*
X357585Y306927D01*
X353001Y305028D01*
X348039Y305028D01*
X343455Y306927D01*
X339947Y310435D01*
X338048Y315019D01*
X338048Y319981D01*
X339947Y324565D01*
X342549Y327167D01*
X342602Y327241D01*
X342662Y327310D01*
X342674Y327341D01*
X342693Y327367D01*
X342720Y327454D01*
X342754Y327539D01*
X342758Y327580D01*
X342765Y327602D01*
X342764Y327634D01*
X342772Y327705D01*
X342772Y336142D01*
X342769Y336162D01*
X342771Y336181D01*
X342749Y336283D01*
X342733Y336385D01*
X342723Y336402D01*
X342719Y336422D01*
X342666Y336511D01*
X342617Y336602D01*
X342603Y336616D01*
X342593Y336633D01*
X342514Y336700D01*
X342439Y336772D01*
X342421Y336780D01*
X342406Y336793D01*
X342310Y336832D01*
X342216Y336875D01*
X342196Y336877D01*
X342178Y336885D01*
X342011Y336903D01*
X322587Y336903D01*
X321281Y337444D01*
X321217Y337459D01*
X321156Y337484D01*
X321074Y337493D01*
X321042Y337500D01*
X321022Y337499D01*
X320990Y337502D01*
X320835Y337502D01*
X320744Y337488D01*
X320654Y337480D01*
X320624Y337468D01*
X320592Y337463D01*
X320511Y337420D01*
X320427Y337384D01*
X320395Y337358D01*
X320374Y337347D01*
X320352Y337324D01*
X320296Y337279D01*
X317851Y334834D01*
X317798Y334760D01*
X317738Y334690D01*
X317726Y334660D01*
X317707Y334634D01*
X317680Y334547D01*
X317646Y334462D01*
X317642Y334421D01*
X317635Y334399D01*
X317636Y334367D01*
X317628Y334295D01*
X317628Y300045D01*
X317642Y299954D01*
X317650Y299864D01*
X317662Y299834D01*
X317667Y299802D01*
X317710Y299721D01*
X317746Y299637D01*
X317772Y299605D01*
X317783Y299584D01*
X317806Y299562D01*
X317851Y299506D01*
X328742Y288615D01*
X331028Y286329D01*
X332208Y283481D01*
X332208Y278251D01*
X332227Y278136D01*
X332244Y278020D01*
X332246Y278014D01*
X332247Y278008D01*
X332302Y277905D01*
X332355Y277801D01*
X332360Y277796D01*
X332363Y277791D01*
X332447Y277710D01*
X332531Y277628D01*
X332537Y277625D01*
X332541Y277621D01*
X332558Y277614D01*
X332678Y277548D01*
X334414Y276829D01*
X336129Y275114D01*
X337057Y272873D01*
X337057Y272669D01*
X337060Y272649D01*
X337058Y272630D01*
X337080Y272528D01*
X337096Y272426D01*
X337106Y272409D01*
X337110Y272389D01*
X337163Y272300D01*
X337212Y272209D01*
X337226Y272195D01*
X337236Y272178D01*
X337315Y272111D01*
X337390Y272039D01*
X337408Y272031D01*
X337423Y272018D01*
X337519Y271979D01*
X337613Y271936D01*
X337633Y271934D01*
X337651Y271926D01*
X337818Y271908D01*
X340362Y271908D01*
X340382Y271911D01*
X340401Y271909D01*
X340503Y271931D01*
X340605Y271947D01*
X340622Y271957D01*
X340642Y271961D01*
X340731Y272014D01*
X340822Y272063D01*
X340836Y272077D01*
X340853Y272087D01*
X340920Y272166D01*
X340992Y272241D01*
X341000Y272259D01*
X341013Y272274D01*
X341052Y272370D01*
X341095Y272464D01*
X341097Y272484D01*
X341105Y272502D01*
X341123Y272669D01*
X341123Y272873D01*
X342051Y275114D01*
X343766Y276829D01*
X346007Y277757D01*
X361433Y277757D01*
X363674Y276829D01*
X365389Y275114D01*
X365572Y274671D01*
X365634Y274571D01*
X365694Y274471D01*
X365698Y274467D01*
X365702Y274462D01*
X365792Y274387D01*
X365880Y274311D01*
X365886Y274309D01*
X365891Y274305D01*
X365999Y274263D01*
X366109Y274219D01*
X366116Y274218D01*
X366121Y274217D01*
X366139Y274216D01*
X366275Y274201D01*
X371197Y274201D01*
X371197Y264922D01*
X371200Y264902D01*
X371198Y264883D01*
X371220Y264781D01*
X371237Y264679D01*
X371246Y264662D01*
X371250Y264642D01*
X371303Y264553D01*
X371352Y264462D01*
X371366Y264448D01*
X371376Y264431D01*
X371455Y264364D01*
X371530Y264293D01*
X371548Y264284D01*
X371563Y264271D01*
X371659Y264232D01*
X371753Y264189D01*
X371773Y264187D01*
X371791Y264179D01*
X371958Y264161D01*
X372721Y264161D01*
X372721Y263398D01*
X372724Y263378D01*
X372722Y263359D01*
X372744Y263257D01*
X372761Y263155D01*
X372770Y263138D01*
X372774Y263118D01*
X372827Y263029D01*
X372876Y262938D01*
X372890Y262924D01*
X372900Y262907D01*
X372979Y262840D01*
X373054Y262769D01*
X373072Y262760D01*
X373087Y262747D01*
X373183Y262708D01*
X373277Y262665D01*
X373297Y262663D01*
X373315Y262655D01*
X373482Y262637D01*
X381761Y262637D01*
X381761Y256326D01*
X381588Y255679D01*
X381253Y255100D01*
X380780Y254627D01*
X380201Y254292D01*
X379554Y254119D01*
X373769Y254119D01*
X373673Y254104D01*
X373576Y254094D01*
X373552Y254084D01*
X373526Y254080D01*
X373440Y254034D01*
X373351Y253994D01*
X373332Y253977D01*
X373309Y253964D01*
X373242Y253894D01*
X373170Y253828D01*
X373157Y253805D01*
X373139Y253786D01*
X373098Y253698D01*
X373051Y253612D01*
X373047Y253587D01*
X373036Y253563D01*
X373025Y253466D01*
X373008Y253370D01*
X373011Y253344D01*
X373009Y253319D01*
X373029Y253223D01*
X373043Y253127D01*
X373055Y253104D01*
X373061Y253078D01*
X373111Y252995D01*
X373155Y252908D01*
X373174Y252889D01*
X373187Y252867D01*
X373261Y252804D01*
X373331Y252736D01*
X373359Y252720D01*
X373374Y252707D01*
X373405Y252695D01*
X373477Y252655D01*
X375365Y251873D01*
X378873Y248365D01*
X380772Y243781D01*
X380772Y238819D01*
X380184Y237400D01*
X380174Y237356D01*
X380154Y237314D01*
X380146Y237237D01*
X380128Y237161D01*
X380132Y237115D01*
X380127Y237070D01*
X380144Y236993D01*
X380151Y236916D01*
X380170Y236874D01*
X380179Y236829D01*
X380219Y236762D01*
X380251Y236691D01*
X380282Y236657D01*
X380306Y236618D01*
X380365Y236567D01*
X380417Y236510D01*
X380458Y236488D01*
X380492Y236458D01*
X380565Y236429D01*
X380633Y236392D01*
X380678Y236383D01*
X380721Y236366D01*
X380857Y236351D01*
X380875Y236348D01*
X380880Y236349D01*
X380887Y236348D01*
X385191Y236348D01*
X385211Y236351D01*
G37*
G36*
X230737Y109367D02*
X230737Y109367D01*
X230855Y109385D01*
X230859Y109387D01*
X230863Y109387D01*
X230967Y109443D01*
X231074Y109498D01*
X231077Y109501D01*
X231080Y109503D01*
X231162Y109588D01*
X231245Y109674D01*
X231247Y109678D01*
X231250Y109681D01*
X231300Y109788D01*
X231351Y109896D01*
X231352Y109900D01*
X231353Y109904D01*
X231366Y110022D01*
X231381Y110140D01*
X231380Y110145D01*
X231381Y110148D01*
X231378Y110162D01*
X231356Y110306D01*
X231259Y110666D01*
X231259Y115977D01*
X240538Y115977D01*
X240558Y115980D01*
X240577Y115978D01*
X240679Y116000D01*
X240781Y116017D01*
X240798Y116026D01*
X240818Y116030D01*
X240907Y116083D01*
X240998Y116132D01*
X241012Y116146D01*
X241029Y116156D01*
X241096Y116235D01*
X241167Y116310D01*
X241176Y116328D01*
X241189Y116343D01*
X241228Y116439D01*
X241271Y116533D01*
X241273Y116553D01*
X241281Y116571D01*
X241299Y116738D01*
X241299Y118262D01*
X241296Y118282D01*
X241298Y118301D01*
X241276Y118403D01*
X241259Y118505D01*
X241250Y118522D01*
X241246Y118542D01*
X241193Y118631D01*
X241144Y118722D01*
X241130Y118736D01*
X241120Y118753D01*
X241041Y118820D01*
X240966Y118891D01*
X240948Y118900D01*
X240933Y118913D01*
X240837Y118952D01*
X240743Y118995D01*
X240723Y118997D01*
X240705Y119005D01*
X240538Y119023D01*
X231259Y119023D01*
X231259Y123945D01*
X231240Y124059D01*
X231223Y124176D01*
X231221Y124181D01*
X231220Y124187D01*
X231165Y124290D01*
X231112Y124395D01*
X231107Y124399D01*
X231104Y124405D01*
X231020Y124485D01*
X230936Y124567D01*
X230930Y124571D01*
X230926Y124574D01*
X230909Y124582D01*
X230789Y124648D01*
X230346Y124831D01*
X228631Y126546D01*
X227703Y128787D01*
X227703Y143891D01*
X227700Y143911D01*
X227702Y143930D01*
X227680Y144032D01*
X227664Y144134D01*
X227654Y144151D01*
X227650Y144171D01*
X227597Y144260D01*
X227548Y144351D01*
X227534Y144365D01*
X227524Y144382D01*
X227445Y144449D01*
X227370Y144521D01*
X227352Y144529D01*
X227337Y144542D01*
X227241Y144581D01*
X227147Y144624D01*
X227127Y144626D01*
X227109Y144634D01*
X226942Y144652D01*
X192158Y144652D01*
X192138Y144649D01*
X192119Y144651D01*
X192017Y144629D01*
X191915Y144613D01*
X191898Y144603D01*
X191878Y144599D01*
X191789Y144546D01*
X191698Y144497D01*
X191684Y144483D01*
X191667Y144473D01*
X191600Y144394D01*
X191528Y144319D01*
X191520Y144301D01*
X191507Y144286D01*
X191468Y144190D01*
X191425Y144096D01*
X191423Y144076D01*
X191415Y144058D01*
X191397Y143891D01*
X191397Y128787D01*
X190469Y126546D01*
X188754Y124831D01*
X188311Y124648D01*
X188211Y124586D01*
X188111Y124526D01*
X188107Y124522D01*
X188102Y124518D01*
X188027Y124428D01*
X187951Y124340D01*
X187949Y124334D01*
X187945Y124329D01*
X187903Y124221D01*
X187859Y124111D01*
X187858Y124104D01*
X187857Y124099D01*
X187856Y124081D01*
X187841Y123945D01*
X187841Y119023D01*
X178562Y119023D01*
X178542Y119020D01*
X178523Y119022D01*
X178421Y119000D01*
X178319Y118983D01*
X178302Y118974D01*
X178282Y118970D01*
X178193Y118917D01*
X178102Y118868D01*
X178088Y118854D01*
X178071Y118844D01*
X178004Y118765D01*
X177933Y118690D01*
X177924Y118672D01*
X177911Y118657D01*
X177872Y118561D01*
X177829Y118467D01*
X177827Y118447D01*
X177819Y118429D01*
X177801Y118262D01*
X177801Y116738D01*
X177804Y116718D01*
X177802Y116699D01*
X177824Y116597D01*
X177841Y116495D01*
X177850Y116478D01*
X177854Y116458D01*
X177907Y116369D01*
X177956Y116278D01*
X177970Y116264D01*
X177980Y116247D01*
X178059Y116180D01*
X178134Y116109D01*
X178152Y116100D01*
X178167Y116087D01*
X178263Y116048D01*
X178357Y116005D01*
X178377Y116003D01*
X178395Y115995D01*
X178562Y115977D01*
X187841Y115977D01*
X187841Y110666D01*
X187744Y110306D01*
X187732Y110187D01*
X187719Y110070D01*
X187720Y110065D01*
X187720Y110061D01*
X187746Y109946D01*
X187772Y109829D01*
X187774Y109826D01*
X187775Y109822D01*
X187837Y109720D01*
X187898Y109618D01*
X187901Y109615D01*
X187903Y109612D01*
X187994Y109536D01*
X188085Y109458D01*
X188089Y109457D01*
X188092Y109454D01*
X188201Y109411D01*
X188313Y109366D01*
X188318Y109366D01*
X188321Y109364D01*
X188335Y109364D01*
X188480Y109348D01*
X230620Y109348D01*
X230737Y109367D01*
G37*
G36*
X317876Y191912D02*
X317876Y191912D01*
X317966Y191920D01*
X317996Y191932D01*
X318028Y191937D01*
X318109Y191980D01*
X318193Y192016D01*
X318225Y192042D01*
X318246Y192053D01*
X318253Y192061D01*
X320033Y192798D01*
X320133Y192860D01*
X320233Y192920D01*
X320237Y192924D01*
X320242Y192928D01*
X320317Y193018D01*
X320393Y193107D01*
X320395Y193112D01*
X320399Y193117D01*
X320441Y193226D01*
X320485Y193335D01*
X320486Y193342D01*
X320487Y193347D01*
X320488Y193365D01*
X320503Y193501D01*
X320503Y203213D01*
X321431Y205454D01*
X323146Y207169D01*
X325387Y208097D01*
X331543Y208097D01*
X331608Y208107D01*
X331673Y208108D01*
X331753Y208131D01*
X331786Y208136D01*
X331803Y208146D01*
X331834Y208155D01*
X332059Y208248D01*
X349681Y208248D01*
X352529Y207068D01*
X353792Y205805D01*
X353808Y205794D01*
X353820Y205778D01*
X353908Y205722D01*
X353991Y205662D01*
X354010Y205656D01*
X354027Y205645D01*
X354128Y205620D01*
X354227Y205589D01*
X354246Y205590D01*
X354266Y205585D01*
X354369Y205593D01*
X354472Y205596D01*
X354491Y205603D01*
X354511Y205604D01*
X354606Y205644D01*
X354703Y205680D01*
X354719Y205693D01*
X354737Y205700D01*
X354868Y205805D01*
X356131Y207068D01*
X358979Y208248D01*
X381695Y208248D01*
X381786Y208262D01*
X381876Y208270D01*
X381906Y208282D01*
X381938Y208287D01*
X382019Y208330D01*
X382103Y208366D01*
X382135Y208392D01*
X382156Y208403D01*
X382178Y208426D01*
X382234Y208471D01*
X393316Y219553D01*
X393358Y219611D01*
X393407Y219663D01*
X393429Y219710D01*
X393459Y219752D01*
X393480Y219821D01*
X393511Y219886D01*
X393516Y219938D01*
X393532Y219988D01*
X393530Y220059D01*
X393538Y220130D01*
X393527Y220181D01*
X393525Y220233D01*
X393501Y220301D01*
X393485Y220371D01*
X393459Y220416D01*
X393441Y220464D01*
X393396Y220520D01*
X393359Y220582D01*
X393320Y220616D01*
X393287Y220656D01*
X393227Y220695D01*
X393172Y220742D01*
X393124Y220761D01*
X393080Y220789D01*
X393011Y220807D01*
X392944Y220834D01*
X392873Y220842D01*
X392842Y220850D01*
X392818Y220848D01*
X392778Y220852D01*
X315945Y220852D01*
X315854Y220838D01*
X315764Y220830D01*
X315734Y220818D01*
X315702Y220813D01*
X315621Y220770D01*
X315537Y220734D01*
X315505Y220708D01*
X315484Y220697D01*
X315462Y220674D01*
X315406Y220629D01*
X312771Y217994D01*
X312718Y217920D01*
X312658Y217850D01*
X312646Y217820D01*
X312627Y217794D01*
X312600Y217707D01*
X312566Y217622D01*
X312562Y217581D01*
X312555Y217559D01*
X312556Y217527D01*
X312548Y217455D01*
X312548Y192659D01*
X312551Y192639D01*
X312549Y192620D01*
X312571Y192518D01*
X312587Y192416D01*
X312597Y192399D01*
X312601Y192379D01*
X312654Y192290D01*
X312703Y192199D01*
X312717Y192185D01*
X312727Y192168D01*
X312806Y192101D01*
X312881Y192029D01*
X312899Y192021D01*
X312914Y192008D01*
X313010Y191969D01*
X313104Y191926D01*
X313124Y191924D01*
X313142Y191916D01*
X313309Y191898D01*
X317785Y191898D01*
X317876Y191912D01*
G37*
G36*
X237866Y160162D02*
X237866Y160162D01*
X237956Y160170D01*
X237986Y160182D01*
X238018Y160187D01*
X238099Y160230D01*
X238183Y160266D01*
X238215Y160292D01*
X238236Y160303D01*
X238258Y160326D01*
X238314Y160371D01*
X246029Y168086D01*
X246082Y168160D01*
X246142Y168230D01*
X246154Y168260D01*
X246173Y168286D01*
X246200Y168373D01*
X246234Y168458D01*
X246238Y168499D01*
X246245Y168521D01*
X246244Y168553D01*
X246252Y168625D01*
X246252Y178900D01*
X246237Y178996D01*
X246227Y179093D01*
X246217Y179117D01*
X246213Y179143D01*
X246167Y179229D01*
X246127Y179318D01*
X246110Y179337D01*
X246097Y179360D01*
X246027Y179427D01*
X245961Y179499D01*
X245938Y179511D01*
X245919Y179529D01*
X245831Y179570D01*
X245745Y179617D01*
X245720Y179622D01*
X245696Y179633D01*
X245599Y179644D01*
X245503Y179661D01*
X245477Y179657D01*
X245452Y179660D01*
X245356Y179640D01*
X245260Y179625D01*
X245237Y179614D01*
X245211Y179608D01*
X245128Y179558D01*
X245041Y179514D01*
X245022Y179495D01*
X245000Y179482D01*
X244937Y179408D01*
X244869Y179338D01*
X244853Y179310D01*
X244840Y179295D01*
X244828Y179264D01*
X244788Y179191D01*
X244169Y177696D01*
X242454Y175981D01*
X241960Y175777D01*
X241881Y175728D01*
X241798Y175685D01*
X241777Y175663D01*
X241751Y175647D01*
X241692Y175576D01*
X241626Y175509D01*
X241613Y175481D01*
X241594Y175458D01*
X241561Y175371D01*
X241520Y175287D01*
X241517Y175257D01*
X241506Y175228D01*
X241502Y175135D01*
X241491Y175042D01*
X241496Y175005D01*
X241496Y174983D01*
X241505Y174951D01*
X241516Y174877D01*
X241541Y174784D01*
X241541Y172949D01*
X228738Y172949D01*
X228719Y172946D01*
X228699Y172948D01*
X228597Y172926D01*
X228495Y172910D01*
X228478Y172900D01*
X228458Y172896D01*
X228369Y172843D01*
X228278Y172794D01*
X228264Y172780D01*
X228247Y172770D01*
X228180Y172691D01*
X228109Y172616D01*
X228100Y172598D01*
X228087Y172583D01*
X228049Y172487D01*
X228005Y172393D01*
X228003Y172373D01*
X227996Y172355D01*
X227983Y172431D01*
X227974Y172448D01*
X227970Y172468D01*
X227917Y172557D01*
X227868Y172648D01*
X227854Y172662D01*
X227844Y172679D01*
X227765Y172746D01*
X227690Y172818D01*
X227672Y172826D01*
X227657Y172839D01*
X227560Y172878D01*
X227467Y172921D01*
X227447Y172923D01*
X227429Y172931D01*
X227262Y172949D01*
X214459Y172949D01*
X214459Y174784D01*
X214484Y174877D01*
X214493Y174970D01*
X214510Y175061D01*
X214505Y175091D01*
X214508Y175121D01*
X214488Y175212D01*
X214474Y175305D01*
X214460Y175332D01*
X214454Y175361D01*
X214405Y175441D01*
X214363Y175524D01*
X214341Y175545D01*
X214325Y175571D01*
X214253Y175631D01*
X214187Y175696D01*
X214153Y175715D01*
X214136Y175729D01*
X214106Y175741D01*
X214040Y175777D01*
X213546Y175981D01*
X213349Y176179D01*
X213275Y176232D01*
X213205Y176292D01*
X213175Y176304D01*
X213149Y176323D01*
X213062Y176350D01*
X212977Y176384D01*
X212936Y176388D01*
X212914Y176395D01*
X212882Y176394D01*
X212810Y176402D01*
X196258Y176402D01*
X196238Y176399D01*
X196219Y176401D01*
X196117Y176379D01*
X196015Y176363D01*
X195998Y176353D01*
X195978Y176349D01*
X195889Y176296D01*
X195798Y176247D01*
X195784Y176233D01*
X195767Y176223D01*
X195700Y176144D01*
X195628Y176069D01*
X195620Y176051D01*
X195607Y176036D01*
X195568Y175940D01*
X195525Y175846D01*
X195523Y175826D01*
X195515Y175808D01*
X195497Y175641D01*
X195497Y167237D01*
X194569Y164996D01*
X192854Y163281D01*
X190613Y162353D01*
X166187Y162353D01*
X163946Y163281D01*
X162231Y164996D01*
X161612Y166491D01*
X161561Y166574D01*
X161515Y166660D01*
X161497Y166678D01*
X161483Y166700D01*
X161408Y166763D01*
X161337Y166829D01*
X161313Y166840D01*
X161293Y166857D01*
X161202Y166892D01*
X161114Y166933D01*
X161088Y166936D01*
X161064Y166945D01*
X160966Y166949D01*
X160870Y166960D01*
X160844Y166955D01*
X160818Y166956D01*
X160724Y166929D01*
X160629Y166908D01*
X160607Y166895D01*
X160582Y166887D01*
X160502Y166832D01*
X160418Y166782D01*
X160401Y166762D01*
X160380Y166747D01*
X160321Y166669D01*
X160258Y166595D01*
X160248Y166571D01*
X160233Y166550D01*
X160203Y166457D01*
X160166Y166367D01*
X160163Y166334D01*
X160157Y166316D01*
X160157Y166283D01*
X160148Y166200D01*
X160148Y163559D01*
X159171Y161200D01*
X159160Y161156D01*
X159141Y161114D01*
X159132Y161037D01*
X159115Y160961D01*
X159119Y160915D01*
X159114Y160870D01*
X159130Y160793D01*
X159138Y160716D01*
X159156Y160674D01*
X159166Y160629D01*
X159206Y160562D01*
X159238Y160491D01*
X159269Y160457D01*
X159292Y160418D01*
X159351Y160367D01*
X159404Y160310D01*
X159444Y160288D01*
X159479Y160258D01*
X159551Y160229D01*
X159620Y160192D01*
X159665Y160183D01*
X159707Y160166D01*
X159843Y160151D01*
X159862Y160148D01*
X159867Y160149D01*
X159874Y160148D01*
X237775Y160148D01*
X237866Y160162D01*
G37*
G36*
X245872Y187241D02*
X245872Y187241D01*
X245897Y187238D01*
X245993Y187259D01*
X246089Y187273D01*
X246112Y187285D01*
X246138Y187290D01*
X246221Y187340D01*
X246308Y187385D01*
X246327Y187403D01*
X246349Y187417D01*
X246412Y187491D01*
X246480Y187560D01*
X246496Y187589D01*
X246509Y187604D01*
X246521Y187634D01*
X246561Y187707D01*
X247432Y189809D01*
X249718Y192095D01*
X261041Y203418D01*
X262606Y204066D01*
X262623Y204077D01*
X262642Y204082D01*
X262727Y204141D01*
X262815Y204196D01*
X262828Y204211D01*
X262844Y204223D01*
X262906Y204306D01*
X262972Y204385D01*
X262979Y204404D01*
X262991Y204420D01*
X263023Y204519D01*
X263060Y204615D01*
X263061Y204635D01*
X263067Y204654D01*
X263066Y204757D01*
X263070Y204861D01*
X263065Y204880D01*
X263065Y204900D01*
X263018Y205061D01*
X262903Y205337D01*
X262903Y213763D01*
X263831Y216004D01*
X265088Y217260D01*
X265130Y217318D01*
X265179Y217370D01*
X265201Y217417D01*
X265231Y217459D01*
X265252Y217528D01*
X265283Y217593D01*
X265288Y217645D01*
X265304Y217695D01*
X265302Y217766D01*
X265310Y217837D01*
X265299Y217888D01*
X265297Y217940D01*
X265273Y218008D01*
X265257Y218078D01*
X265231Y218123D01*
X265213Y218171D01*
X265168Y218227D01*
X265131Y218289D01*
X265092Y218323D01*
X265059Y218363D01*
X265023Y218387D01*
X265023Y227077D01*
X272541Y227077D01*
X272541Y220766D01*
X272368Y220119D01*
X272177Y219789D01*
X272143Y219699D01*
X272103Y219613D01*
X272100Y219585D01*
X272090Y219559D01*
X272086Y219463D01*
X272076Y219369D01*
X272082Y219341D01*
X272081Y219313D01*
X272108Y219221D01*
X272128Y219128D01*
X272142Y219104D01*
X272150Y219077D01*
X272205Y218999D01*
X272254Y218917D01*
X272276Y218899D01*
X272292Y218876D01*
X272368Y218819D01*
X272441Y218757D01*
X272467Y218747D01*
X272490Y218730D01*
X272581Y218701D01*
X272669Y218665D01*
X272704Y218661D01*
X272724Y218655D01*
X272757Y218655D01*
X272836Y218647D01*
X292213Y218647D01*
X294454Y217719D01*
X295753Y216419D01*
X295811Y216377D01*
X295863Y216328D01*
X295910Y216306D01*
X295952Y216276D01*
X296021Y216255D01*
X296086Y216224D01*
X296138Y216219D01*
X296188Y216203D01*
X296259Y216205D01*
X296330Y216197D01*
X296381Y216208D01*
X296433Y216210D01*
X296501Y216234D01*
X296571Y216250D01*
X296616Y216276D01*
X296664Y216294D01*
X296720Y216339D01*
X296782Y216376D01*
X296816Y216415D01*
X296856Y216448D01*
X296895Y216508D01*
X296942Y216563D01*
X296961Y216611D01*
X296989Y216655D01*
X297007Y216724D01*
X297034Y216791D01*
X297042Y216862D01*
X297050Y216893D01*
X297048Y216917D01*
X297052Y216958D01*
X297052Y222521D01*
X298232Y225369D01*
X305116Y232253D01*
X305158Y232311D01*
X305207Y232363D01*
X305229Y232410D01*
X305259Y232452D01*
X305280Y232521D01*
X305311Y232586D01*
X305316Y232638D01*
X305332Y232688D01*
X305330Y232759D01*
X305338Y232830D01*
X305327Y232881D01*
X305325Y232933D01*
X305301Y233001D01*
X305285Y233071D01*
X305259Y233116D01*
X305241Y233164D01*
X305196Y233220D01*
X305159Y233282D01*
X305120Y233316D01*
X305087Y233356D01*
X305027Y233395D01*
X304972Y233442D01*
X304924Y233461D01*
X304880Y233489D01*
X304811Y233507D01*
X304744Y233534D01*
X304673Y233542D01*
X304642Y233550D01*
X304618Y233548D01*
X304578Y233552D01*
X273302Y233552D01*
X273282Y233549D01*
X273263Y233551D01*
X273161Y233529D01*
X273059Y233513D01*
X273042Y233503D01*
X273022Y233499D01*
X272933Y233446D01*
X272842Y233397D01*
X272828Y233383D01*
X272811Y233373D01*
X272744Y233294D01*
X272672Y233219D01*
X272664Y233201D01*
X272651Y233186D01*
X272612Y233090D01*
X272569Y232996D01*
X272567Y232976D01*
X272559Y232958D01*
X272541Y232791D01*
X272541Y230123D01*
X264262Y230123D01*
X264242Y230120D01*
X264223Y230122D01*
X264121Y230100D01*
X264019Y230083D01*
X264002Y230074D01*
X263982Y230070D01*
X263893Y230017D01*
X263802Y229968D01*
X263788Y229954D01*
X263771Y229944D01*
X263704Y229865D01*
X263633Y229790D01*
X263624Y229772D01*
X263611Y229757D01*
X263572Y229661D01*
X263529Y229567D01*
X263527Y229547D01*
X263519Y229529D01*
X263501Y229362D01*
X263501Y228599D01*
X262738Y228599D01*
X262718Y228596D01*
X262699Y228598D01*
X262597Y228576D01*
X262495Y228559D01*
X262478Y228550D01*
X262458Y228546D01*
X262369Y228493D01*
X262278Y228444D01*
X262264Y228430D01*
X262247Y228420D01*
X262180Y228341D01*
X262109Y228266D01*
X262100Y228248D01*
X262087Y228233D01*
X262048Y228137D01*
X262005Y228043D01*
X262003Y228023D01*
X261995Y228005D01*
X261977Y227838D01*
X261977Y218559D01*
X257055Y218559D01*
X256941Y218540D01*
X256824Y218523D01*
X256819Y218521D01*
X256813Y218520D01*
X256710Y218465D01*
X256605Y218412D01*
X256601Y218407D01*
X256595Y218404D01*
X256515Y218320D01*
X256433Y218236D01*
X256429Y218230D01*
X256426Y218226D01*
X256418Y218209D01*
X256352Y218089D01*
X256169Y217646D01*
X254454Y215931D01*
X252718Y215212D01*
X252618Y215151D01*
X252518Y215091D01*
X252514Y215086D01*
X252509Y215083D01*
X252434Y214992D01*
X252358Y214904D01*
X252356Y214898D01*
X252352Y214893D01*
X252310Y214785D01*
X252266Y214676D01*
X252265Y214668D01*
X252264Y214664D01*
X252263Y214645D01*
X252248Y214509D01*
X252248Y199779D01*
X251068Y196931D01*
X244696Y190559D01*
X244628Y190464D01*
X244558Y190370D01*
X244556Y190364D01*
X244552Y190359D01*
X244518Y190248D01*
X244482Y190136D01*
X244482Y190130D01*
X244480Y190124D01*
X244483Y190007D01*
X244484Y189890D01*
X244486Y189883D01*
X244486Y189878D01*
X244493Y189861D01*
X244531Y189729D01*
X245097Y188363D01*
X245097Y187998D01*
X245112Y187902D01*
X245122Y187805D01*
X245132Y187781D01*
X245136Y187756D01*
X245182Y187670D01*
X245222Y187581D01*
X245239Y187561D01*
X245252Y187538D01*
X245322Y187471D01*
X245388Y187400D01*
X245411Y187387D01*
X245430Y187369D01*
X245518Y187328D01*
X245604Y187281D01*
X245629Y187276D01*
X245653Y187265D01*
X245750Y187255D01*
X245846Y187237D01*
X245872Y187241D01*
G37*
G36*
X141837Y109367D02*
X141837Y109367D01*
X141955Y109385D01*
X141959Y109387D01*
X141963Y109387D01*
X142067Y109443D01*
X142174Y109498D01*
X142177Y109501D01*
X142180Y109503D01*
X142262Y109588D01*
X142345Y109674D01*
X142347Y109678D01*
X142350Y109681D01*
X142400Y109788D01*
X142451Y109896D01*
X142452Y109900D01*
X142453Y109904D01*
X142466Y110022D01*
X142481Y110140D01*
X142480Y110145D01*
X142481Y110148D01*
X142478Y110162D01*
X142456Y110306D01*
X142359Y110666D01*
X142359Y115977D01*
X151638Y115977D01*
X151658Y115980D01*
X151677Y115978D01*
X151779Y116000D01*
X151881Y116017D01*
X151898Y116026D01*
X151918Y116030D01*
X152007Y116083D01*
X152098Y116132D01*
X152112Y116146D01*
X152129Y116156D01*
X152196Y116235D01*
X152267Y116310D01*
X152276Y116328D01*
X152289Y116343D01*
X152328Y116439D01*
X152371Y116533D01*
X152373Y116553D01*
X152381Y116571D01*
X152399Y116738D01*
X152399Y118262D01*
X152396Y118282D01*
X152398Y118301D01*
X152376Y118403D01*
X152359Y118505D01*
X152350Y118522D01*
X152346Y118542D01*
X152293Y118631D01*
X152244Y118722D01*
X152230Y118736D01*
X152220Y118753D01*
X152141Y118820D01*
X152066Y118891D01*
X152048Y118900D01*
X152033Y118913D01*
X151937Y118952D01*
X151843Y118995D01*
X151823Y118997D01*
X151805Y119005D01*
X151638Y119023D01*
X142359Y119023D01*
X142359Y123945D01*
X142340Y124059D01*
X142323Y124176D01*
X142321Y124181D01*
X142320Y124187D01*
X142265Y124290D01*
X142212Y124395D01*
X142207Y124399D01*
X142204Y124405D01*
X142120Y124485D01*
X142036Y124567D01*
X142030Y124571D01*
X142026Y124574D01*
X142009Y124582D01*
X141889Y124648D01*
X141446Y124831D01*
X139731Y126546D01*
X138803Y128787D01*
X138803Y138824D01*
X138789Y138915D01*
X138781Y139005D01*
X138769Y139035D01*
X138764Y139067D01*
X138721Y139148D01*
X138685Y139232D01*
X138659Y139264D01*
X138648Y139285D01*
X138625Y139307D01*
X138580Y139363D01*
X133514Y144429D01*
X133440Y144482D01*
X133370Y144542D01*
X133340Y144554D01*
X133314Y144573D01*
X133227Y144600D01*
X133142Y144634D01*
X133101Y144638D01*
X133079Y144645D01*
X133047Y144644D01*
X132975Y144652D01*
X98343Y144652D01*
X98273Y144641D01*
X98201Y144639D01*
X98152Y144621D01*
X98100Y144613D01*
X98037Y144579D01*
X97970Y144554D01*
X97929Y144522D01*
X97883Y144497D01*
X97834Y144445D01*
X97778Y144401D01*
X97750Y144357D01*
X97714Y144319D01*
X97684Y144254D01*
X97645Y144194D01*
X97632Y144143D01*
X97610Y144096D01*
X97602Y144025D01*
X97585Y143955D01*
X97589Y143903D01*
X97583Y143852D01*
X97598Y143781D01*
X97604Y143710D01*
X97624Y143662D01*
X97635Y143611D01*
X97672Y143550D01*
X97700Y143484D01*
X97745Y143428D01*
X97761Y143400D01*
X97779Y143385D01*
X97805Y143353D01*
X98567Y142591D01*
X98641Y142538D01*
X98710Y142478D01*
X98740Y142466D01*
X98767Y142447D01*
X98854Y142420D01*
X98939Y142386D01*
X98980Y142382D01*
X99002Y142375D01*
X99034Y142376D01*
X99105Y142368D01*
X105681Y142368D01*
X108529Y141188D01*
X140146Y109571D01*
X140220Y109518D01*
X140290Y109458D01*
X140320Y109446D01*
X140346Y109427D01*
X140433Y109400D01*
X140518Y109366D01*
X140559Y109362D01*
X140581Y109355D01*
X140613Y109356D01*
X140685Y109348D01*
X141720Y109348D01*
X141837Y109367D01*
G37*
G36*
X167237Y109367D02*
X167237Y109367D01*
X167355Y109385D01*
X167359Y109387D01*
X167363Y109387D01*
X167467Y109443D01*
X167574Y109498D01*
X167577Y109501D01*
X167580Y109503D01*
X167662Y109588D01*
X167745Y109674D01*
X167747Y109678D01*
X167750Y109681D01*
X167800Y109788D01*
X167851Y109896D01*
X167852Y109900D01*
X167853Y109904D01*
X167866Y110022D01*
X167881Y110140D01*
X167880Y110145D01*
X167881Y110148D01*
X167878Y110162D01*
X167856Y110306D01*
X167759Y110666D01*
X167759Y115977D01*
X177038Y115977D01*
X177058Y115980D01*
X177077Y115978D01*
X177179Y116000D01*
X177281Y116017D01*
X177298Y116026D01*
X177318Y116030D01*
X177407Y116083D01*
X177498Y116132D01*
X177512Y116146D01*
X177529Y116156D01*
X177596Y116235D01*
X177667Y116310D01*
X177676Y116328D01*
X177689Y116343D01*
X177728Y116439D01*
X177771Y116533D01*
X177773Y116553D01*
X177781Y116571D01*
X177799Y116738D01*
X177799Y118262D01*
X177796Y118282D01*
X177798Y118301D01*
X177776Y118403D01*
X177759Y118505D01*
X177750Y118522D01*
X177746Y118542D01*
X177693Y118631D01*
X177644Y118722D01*
X177630Y118736D01*
X177620Y118753D01*
X177541Y118820D01*
X177466Y118891D01*
X177448Y118900D01*
X177433Y118913D01*
X177337Y118952D01*
X177243Y118995D01*
X177223Y118997D01*
X177205Y119005D01*
X177038Y119023D01*
X167759Y119023D01*
X167759Y123945D01*
X167740Y124059D01*
X167723Y124176D01*
X167721Y124181D01*
X167720Y124187D01*
X167665Y124290D01*
X167612Y124395D01*
X167607Y124399D01*
X167604Y124405D01*
X167520Y124485D01*
X167436Y124567D01*
X167430Y124571D01*
X167426Y124574D01*
X167409Y124582D01*
X167289Y124648D01*
X166846Y124831D01*
X165638Y126040D01*
X165622Y126051D01*
X165610Y126067D01*
X165549Y126106D01*
X165496Y126151D01*
X165467Y126163D01*
X165439Y126183D01*
X165420Y126189D01*
X165403Y126200D01*
X165329Y126218D01*
X165268Y126243D01*
X165231Y126247D01*
X165203Y126256D01*
X165184Y126255D01*
X165164Y126260D01*
X165136Y126258D01*
X165101Y126261D01*
X165099Y126261D01*
X165036Y126251D01*
X164958Y126249D01*
X164939Y126242D01*
X164919Y126241D01*
X164886Y126227D01*
X164856Y126222D01*
X164797Y126191D01*
X164727Y126165D01*
X164711Y126152D01*
X164693Y126144D01*
X164659Y126117D01*
X164639Y126107D01*
X164617Y126084D01*
X164562Y126040D01*
X163354Y124831D01*
X162911Y124648D01*
X162811Y124586D01*
X162711Y124526D01*
X162707Y124522D01*
X162702Y124518D01*
X162627Y124428D01*
X162551Y124340D01*
X162549Y124334D01*
X162545Y124329D01*
X162503Y124221D01*
X162459Y124111D01*
X162458Y124104D01*
X162457Y124099D01*
X162456Y124081D01*
X162441Y123945D01*
X162441Y119023D01*
X153162Y119023D01*
X153142Y119020D01*
X153123Y119022D01*
X153021Y119000D01*
X152919Y118983D01*
X152902Y118974D01*
X152882Y118970D01*
X152793Y118917D01*
X152702Y118868D01*
X152688Y118854D01*
X152671Y118844D01*
X152604Y118765D01*
X152533Y118690D01*
X152524Y118672D01*
X152511Y118657D01*
X152472Y118561D01*
X152429Y118467D01*
X152427Y118447D01*
X152419Y118429D01*
X152401Y118262D01*
X152401Y116738D01*
X152404Y116718D01*
X152402Y116699D01*
X152424Y116597D01*
X152441Y116495D01*
X152450Y116478D01*
X152454Y116458D01*
X152507Y116369D01*
X152556Y116278D01*
X152570Y116264D01*
X152580Y116247D01*
X152659Y116180D01*
X152734Y116109D01*
X152752Y116100D01*
X152767Y116087D01*
X152863Y116048D01*
X152957Y116005D01*
X152977Y116003D01*
X152995Y115995D01*
X153162Y115977D01*
X162441Y115977D01*
X162441Y110666D01*
X162344Y110306D01*
X162332Y110187D01*
X162319Y110070D01*
X162320Y110065D01*
X162320Y110061D01*
X162346Y109946D01*
X162372Y109829D01*
X162374Y109826D01*
X162375Y109822D01*
X162437Y109720D01*
X162498Y109618D01*
X162501Y109615D01*
X162503Y109612D01*
X162594Y109536D01*
X162685Y109458D01*
X162689Y109457D01*
X162692Y109454D01*
X162801Y109411D01*
X162913Y109366D01*
X162918Y109366D01*
X162921Y109364D01*
X162935Y109364D01*
X163080Y109348D01*
X167120Y109348D01*
X167237Y109367D01*
G37*
G36*
X256137Y109367D02*
X256137Y109367D01*
X256255Y109385D01*
X256259Y109387D01*
X256263Y109387D01*
X256367Y109443D01*
X256474Y109498D01*
X256477Y109501D01*
X256480Y109503D01*
X256562Y109588D01*
X256645Y109674D01*
X256647Y109678D01*
X256650Y109681D01*
X256700Y109788D01*
X256751Y109896D01*
X256752Y109900D01*
X256753Y109904D01*
X256766Y110022D01*
X256781Y110140D01*
X256780Y110145D01*
X256781Y110148D01*
X256778Y110162D01*
X256756Y110306D01*
X256659Y110666D01*
X256659Y115977D01*
X265938Y115977D01*
X265958Y115980D01*
X265977Y115978D01*
X266079Y116000D01*
X266181Y116017D01*
X266198Y116026D01*
X266218Y116030D01*
X266307Y116083D01*
X266398Y116132D01*
X266412Y116146D01*
X266429Y116156D01*
X266496Y116235D01*
X266567Y116310D01*
X266576Y116328D01*
X266589Y116343D01*
X266628Y116439D01*
X266671Y116533D01*
X266673Y116553D01*
X266681Y116571D01*
X266699Y116738D01*
X266699Y118262D01*
X266696Y118282D01*
X266698Y118301D01*
X266676Y118403D01*
X266659Y118505D01*
X266650Y118522D01*
X266646Y118542D01*
X266593Y118631D01*
X266544Y118722D01*
X266530Y118736D01*
X266520Y118753D01*
X266441Y118820D01*
X266366Y118891D01*
X266348Y118900D01*
X266333Y118913D01*
X266237Y118952D01*
X266143Y118995D01*
X266123Y118997D01*
X266105Y119005D01*
X265938Y119023D01*
X256659Y119023D01*
X256659Y123945D01*
X256640Y124059D01*
X256623Y124176D01*
X256621Y124181D01*
X256620Y124187D01*
X256565Y124290D01*
X256512Y124395D01*
X256507Y124399D01*
X256504Y124405D01*
X256420Y124485D01*
X256336Y124567D01*
X256330Y124571D01*
X256326Y124574D01*
X256309Y124582D01*
X256189Y124648D01*
X255746Y124831D01*
X254538Y126040D01*
X254522Y126051D01*
X254510Y126067D01*
X254448Y126106D01*
X254396Y126151D01*
X254367Y126163D01*
X254339Y126183D01*
X254320Y126189D01*
X254303Y126200D01*
X254229Y126218D01*
X254168Y126243D01*
X254131Y126247D01*
X254103Y126256D01*
X254084Y126255D01*
X254064Y126260D01*
X254036Y126258D01*
X254001Y126261D01*
X253999Y126261D01*
X253936Y126251D01*
X253858Y126249D01*
X253839Y126242D01*
X253819Y126241D01*
X253786Y126227D01*
X253756Y126222D01*
X253697Y126191D01*
X253627Y126165D01*
X253611Y126152D01*
X253593Y126144D01*
X253559Y126117D01*
X253539Y126107D01*
X253517Y126084D01*
X253462Y126040D01*
X252254Y124831D01*
X251811Y124648D01*
X251711Y124586D01*
X251611Y124526D01*
X251607Y124522D01*
X251602Y124518D01*
X251527Y124428D01*
X251451Y124340D01*
X251449Y124334D01*
X251445Y124329D01*
X251403Y124221D01*
X251359Y124111D01*
X251358Y124104D01*
X251357Y124099D01*
X251356Y124081D01*
X251341Y123945D01*
X251341Y119023D01*
X242062Y119023D01*
X242042Y119020D01*
X242023Y119022D01*
X241921Y119000D01*
X241819Y118983D01*
X241802Y118974D01*
X241782Y118970D01*
X241693Y118917D01*
X241602Y118868D01*
X241588Y118854D01*
X241571Y118844D01*
X241504Y118765D01*
X241433Y118690D01*
X241424Y118672D01*
X241411Y118657D01*
X241372Y118561D01*
X241329Y118467D01*
X241327Y118447D01*
X241319Y118429D01*
X241301Y118262D01*
X241301Y116738D01*
X241304Y116718D01*
X241302Y116699D01*
X241324Y116597D01*
X241341Y116495D01*
X241350Y116478D01*
X241354Y116458D01*
X241407Y116369D01*
X241456Y116278D01*
X241470Y116264D01*
X241480Y116247D01*
X241559Y116180D01*
X241634Y116109D01*
X241652Y116100D01*
X241667Y116087D01*
X241763Y116048D01*
X241857Y116005D01*
X241877Y116003D01*
X241895Y115995D01*
X242062Y115977D01*
X251341Y115977D01*
X251341Y110666D01*
X251244Y110306D01*
X251232Y110187D01*
X251219Y110070D01*
X251220Y110065D01*
X251220Y110061D01*
X251246Y109946D01*
X251272Y109829D01*
X251274Y109826D01*
X251275Y109822D01*
X251337Y109720D01*
X251398Y109618D01*
X251401Y109615D01*
X251403Y109612D01*
X251494Y109536D01*
X251585Y109458D01*
X251589Y109457D01*
X251592Y109454D01*
X251701Y109411D01*
X251813Y109366D01*
X251818Y109366D01*
X251821Y109364D01*
X251835Y109364D01*
X251980Y109348D01*
X256020Y109348D01*
X256137Y109367D01*
G37*
%LPC*%
G36*
X280923Y560323D02*
X280923Y560323D01*
X280923Y576466D01*
X281779Y576331D01*
X283300Y575836D01*
X284725Y575110D01*
X286019Y574170D01*
X287150Y573039D01*
X288090Y571745D01*
X288816Y570320D01*
X289311Y568799D01*
X289561Y567220D01*
X289561Y560323D01*
X280923Y560323D01*
G37*
%LPD*%
%LPC*%
G36*
X280923Y557277D02*
X280923Y557277D01*
X289561Y557277D01*
X289561Y550380D01*
X289311Y548801D01*
X288816Y547280D01*
X288090Y545855D01*
X287150Y544561D01*
X286019Y543430D01*
X284725Y542490D01*
X283300Y541764D01*
X281779Y541269D01*
X280923Y541134D01*
X280923Y557277D01*
G37*
%LPD*%
%LPC*%
G36*
X269239Y560323D02*
X269239Y560323D01*
X269239Y567220D01*
X269489Y568799D01*
X269984Y570320D01*
X270710Y571745D01*
X271650Y573039D01*
X272781Y574170D01*
X274075Y575110D01*
X275500Y575836D01*
X277021Y576331D01*
X277877Y576466D01*
X277877Y560323D01*
X269239Y560323D01*
G37*
%LPD*%
%LPC*%
G36*
X277021Y541269D02*
X277021Y541269D01*
X275500Y541764D01*
X274075Y542490D01*
X272781Y543430D01*
X271650Y544561D01*
X270710Y545855D01*
X269984Y547280D01*
X269489Y548801D01*
X269239Y550380D01*
X269239Y557277D01*
X277877Y557277D01*
X277877Y541134D01*
X277021Y541269D01*
G37*
%LPD*%
%LPC*%
G36*
X179323Y519683D02*
X179323Y519683D01*
X179323Y530226D01*
X182798Y530226D01*
X189866Y523158D01*
X189866Y519683D01*
X179323Y519683D01*
G37*
%LPD*%
%LPC*%
G36*
X179323Y446023D02*
X179323Y446023D01*
X179323Y456566D01*
X182798Y456566D01*
X189866Y449498D01*
X189866Y446023D01*
X179323Y446023D01*
G37*
%LPD*%
%LPC*%
G36*
X165734Y519683D02*
X165734Y519683D01*
X165734Y523158D01*
X172802Y530226D01*
X176277Y530226D01*
X176277Y519683D01*
X165734Y519683D01*
G37*
%LPD*%
%LPC*%
G36*
X165734Y446023D02*
X165734Y446023D01*
X165734Y449498D01*
X172802Y456566D01*
X176277Y456566D01*
X176277Y446023D01*
X165734Y446023D01*
G37*
%LPD*%
%LPC*%
G36*
X179323Y432434D02*
X179323Y432434D01*
X179323Y442977D01*
X189866Y442977D01*
X189866Y439502D01*
X182798Y432434D01*
X179323Y432434D01*
G37*
%LPD*%
%LPC*%
G36*
X172802Y432434D02*
X172802Y432434D01*
X165734Y439502D01*
X165734Y442977D01*
X176277Y442977D01*
X176277Y432434D01*
X172802Y432434D01*
G37*
%LPD*%
%LPC*%
G36*
X374243Y265683D02*
X374243Y265683D01*
X374243Y274201D01*
X379554Y274201D01*
X380201Y274028D01*
X380780Y273693D01*
X381253Y273220D01*
X381588Y272641D01*
X381761Y271994D01*
X381761Y265683D01*
X374243Y265683D01*
G37*
%LPD*%
%LPC*%
G36*
X382523Y61823D02*
X382523Y61823D01*
X382523Y69341D01*
X388834Y69341D01*
X389481Y69168D01*
X390060Y68833D01*
X390533Y68360D01*
X390868Y67781D01*
X391041Y67134D01*
X391041Y61823D01*
X382523Y61823D01*
G37*
%LPD*%
%LPC*%
G36*
X370959Y61823D02*
X370959Y61823D01*
X370959Y67134D01*
X371132Y67781D01*
X371467Y68360D01*
X371940Y68833D01*
X372519Y69168D01*
X373166Y69341D01*
X379477Y69341D01*
X379477Y61823D01*
X370959Y61823D01*
G37*
%LPD*%
%LPC*%
G36*
X319023Y121159D02*
X319023Y121159D01*
X319023Y128677D01*
X327541Y128677D01*
X327541Y123366D01*
X327368Y122719D01*
X327033Y122140D01*
X326560Y121667D01*
X325981Y121332D01*
X325334Y121159D01*
X319023Y121159D01*
G37*
%LPD*%
%LPC*%
G36*
X230123Y494539D02*
X230123Y494539D01*
X230123Y502057D01*
X238641Y502057D01*
X238641Y496746D01*
X238468Y496099D01*
X238133Y495520D01*
X237660Y495047D01*
X237081Y494712D01*
X236434Y494539D01*
X230123Y494539D01*
G37*
%LPD*%
%LPC*%
G36*
X128523Y32259D02*
X128523Y32259D01*
X128523Y39777D01*
X137041Y39777D01*
X137041Y34466D01*
X136868Y33819D01*
X136533Y33240D01*
X136060Y32767D01*
X135481Y32432D01*
X134834Y32259D01*
X128523Y32259D01*
G37*
%LPD*%
%LPC*%
G36*
X47243Y235459D02*
X47243Y235459D01*
X47243Y242977D01*
X55761Y242977D01*
X55761Y237666D01*
X55588Y237019D01*
X55253Y236440D01*
X54780Y235967D01*
X54201Y235632D01*
X53554Y235459D01*
X47243Y235459D01*
G37*
%LPD*%
%LPC*%
G36*
X433323Y151639D02*
X433323Y151639D01*
X433323Y159157D01*
X441841Y159157D01*
X441841Y153846D01*
X441668Y153199D01*
X441333Y152620D01*
X440860Y152147D01*
X440281Y151812D01*
X439634Y151639D01*
X433323Y151639D01*
G37*
%LPD*%
%LPC*%
G36*
X344423Y121159D02*
X344423Y121159D01*
X344423Y128677D01*
X352941Y128677D01*
X352941Y123366D01*
X352768Y122719D01*
X352433Y122140D01*
X351960Y121667D01*
X351381Y121332D01*
X350734Y121159D01*
X344423Y121159D01*
G37*
%LPD*%
%LPC*%
G36*
X220766Y494539D02*
X220766Y494539D01*
X220119Y494712D01*
X219540Y495047D01*
X219067Y495520D01*
X218732Y496099D01*
X218559Y496746D01*
X218559Y502057D01*
X227077Y502057D01*
X227077Y494539D01*
X220766Y494539D01*
G37*
%LPD*%
%LPC*%
G36*
X246166Y494539D02*
X246166Y494539D01*
X245519Y494712D01*
X244940Y495047D01*
X244467Y495520D01*
X244132Y496099D01*
X243959Y496746D01*
X243959Y502057D01*
X252477Y502057D01*
X252477Y494539D01*
X246166Y494539D01*
G37*
%LPD*%
%LPC*%
G36*
X63286Y235459D02*
X63286Y235459D01*
X62639Y235632D01*
X62060Y235967D01*
X61587Y236440D01*
X61252Y237019D01*
X61079Y237666D01*
X61079Y242977D01*
X69597Y242977D01*
X69597Y235459D01*
X63286Y235459D01*
G37*
%LPD*%
%LPC*%
G36*
X298626Y254119D02*
X298626Y254119D01*
X297979Y254292D01*
X297400Y254627D01*
X296927Y255100D01*
X296592Y255679D01*
X296419Y256326D01*
X296419Y262637D01*
X303937Y262637D01*
X303937Y254119D01*
X298626Y254119D01*
G37*
%LPD*%
%LPC*%
G36*
X449366Y151639D02*
X449366Y151639D01*
X448719Y151812D01*
X448140Y152147D01*
X447667Y152620D01*
X447332Y153199D01*
X447159Y153846D01*
X447159Y159157D01*
X455677Y159157D01*
X455677Y151639D01*
X449366Y151639D01*
G37*
%LPD*%
%LPC*%
G36*
X309666Y121159D02*
X309666Y121159D01*
X309019Y121332D01*
X308440Y121667D01*
X307967Y122140D01*
X307632Y122719D01*
X307459Y123366D01*
X307459Y128677D01*
X315977Y128677D01*
X315977Y121159D01*
X309666Y121159D01*
G37*
%LPD*%
%LPC*%
G36*
X335066Y121159D02*
X335066Y121159D01*
X334419Y121332D01*
X333840Y121667D01*
X333367Y122140D01*
X333032Y122719D01*
X332859Y123366D01*
X332859Y128677D01*
X341377Y128677D01*
X341377Y121159D01*
X335066Y121159D01*
G37*
%LPD*%
%LPC*%
G36*
X281023Y407923D02*
X281023Y407923D01*
X281023Y416365D01*
X281861Y416233D01*
X283370Y415742D01*
X284783Y415022D01*
X286067Y414089D01*
X287189Y412967D01*
X288122Y411683D01*
X288842Y410270D01*
X289333Y408761D01*
X289465Y407923D01*
X281023Y407923D01*
G37*
%LPD*%
%LPC*%
G36*
X281023Y306323D02*
X281023Y306323D01*
X281023Y314765D01*
X281861Y314633D01*
X283370Y314142D01*
X284783Y313422D01*
X286067Y312489D01*
X287189Y311367D01*
X288122Y310083D01*
X288842Y308670D01*
X289333Y307161D01*
X289465Y306323D01*
X281023Y306323D01*
G37*
%LPD*%
%LPC*%
G36*
X281023Y357123D02*
X281023Y357123D01*
X281023Y365565D01*
X281861Y365433D01*
X283370Y364942D01*
X284783Y364222D01*
X286067Y363289D01*
X287189Y362167D01*
X288122Y360883D01*
X288842Y359470D01*
X289333Y357961D01*
X289465Y357123D01*
X281023Y357123D01*
G37*
%LPD*%
%LPC*%
G36*
X269535Y407923D02*
X269535Y407923D01*
X269667Y408761D01*
X270158Y410270D01*
X270878Y411683D01*
X271811Y412967D01*
X272933Y414089D01*
X274217Y415022D01*
X275630Y415742D01*
X277139Y416233D01*
X277977Y416365D01*
X277977Y407923D01*
X269535Y407923D01*
G37*
%LPD*%
%LPC*%
G36*
X281023Y354077D02*
X281023Y354077D01*
X289465Y354077D01*
X289333Y353239D01*
X288842Y351730D01*
X288122Y350317D01*
X287189Y349033D01*
X286067Y347911D01*
X284783Y346978D01*
X283370Y346258D01*
X281861Y345767D01*
X281023Y345635D01*
X281023Y354077D01*
G37*
%LPD*%
%LPC*%
G36*
X281023Y303277D02*
X281023Y303277D01*
X289465Y303277D01*
X289333Y302439D01*
X288842Y300930D01*
X288122Y299517D01*
X287189Y298233D01*
X286067Y297111D01*
X284783Y296178D01*
X283370Y295458D01*
X281861Y294967D01*
X281023Y294835D01*
X281023Y303277D01*
G37*
%LPD*%
%LPC*%
G36*
X269535Y306323D02*
X269535Y306323D01*
X269667Y307161D01*
X270158Y308670D01*
X270878Y310083D01*
X271811Y311367D01*
X272933Y312489D01*
X274217Y313422D01*
X275630Y314142D01*
X277139Y314633D01*
X277977Y314765D01*
X277977Y306323D01*
X269535Y306323D01*
G37*
%LPD*%
%LPC*%
G36*
X269535Y357123D02*
X269535Y357123D01*
X269667Y357961D01*
X270158Y359470D01*
X270878Y360883D01*
X271811Y362167D01*
X272933Y363289D01*
X274217Y364222D01*
X275630Y364942D01*
X277139Y365433D01*
X277977Y365565D01*
X277977Y357123D01*
X269535Y357123D01*
G37*
%LPD*%
%LPC*%
G36*
X281023Y404877D02*
X281023Y404877D01*
X289465Y404877D01*
X289333Y404039D01*
X288842Y402530D01*
X288122Y401117D01*
X287189Y399833D01*
X286067Y398711D01*
X284783Y397778D01*
X283370Y397058D01*
X281861Y396567D01*
X281023Y396435D01*
X281023Y404877D01*
G37*
%LPD*%
%LPC*%
G36*
X277139Y345767D02*
X277139Y345767D01*
X275630Y346258D01*
X274217Y346978D01*
X272933Y347911D01*
X271811Y349033D01*
X270878Y350317D01*
X270158Y351730D01*
X269667Y353239D01*
X269535Y354077D01*
X277977Y354077D01*
X277977Y345635D01*
X277139Y345767D01*
G37*
%LPD*%
%LPC*%
G36*
X277139Y294967D02*
X277139Y294967D01*
X275630Y295458D01*
X274217Y296178D01*
X272933Y297111D01*
X271811Y298233D01*
X270878Y299517D01*
X270158Y300930D01*
X269667Y302439D01*
X269535Y303277D01*
X277977Y303277D01*
X277977Y294835D01*
X277139Y294967D01*
G37*
%LPD*%
%LPC*%
G36*
X277139Y396567D02*
X277139Y396567D01*
X275630Y397058D01*
X274217Y397778D01*
X272933Y398711D01*
X271811Y399833D01*
X270878Y401117D01*
X270158Y402530D01*
X269667Y404039D01*
X269535Y404877D01*
X277977Y404877D01*
X277977Y396435D01*
X277139Y396567D01*
G37*
%LPD*%
%LPC*%
G36*
X127899Y172949D02*
X127899Y172949D01*
X127899Y176991D01*
X137734Y176991D01*
X138381Y176818D01*
X138960Y176483D01*
X139433Y176010D01*
X139768Y175431D01*
X139941Y174784D01*
X139941Y172949D01*
X127899Y172949D01*
G37*
%LPD*%
%LPC*%
G36*
X112859Y172949D02*
X112859Y172949D01*
X112859Y174784D01*
X113032Y175431D01*
X113367Y176010D01*
X113840Y176483D01*
X114419Y176818D01*
X115066Y176991D01*
X124901Y176991D01*
X124901Y172949D01*
X112859Y172949D01*
G37*
%LPD*%
%LPC*%
G36*
X127899Y182651D02*
X127899Y182651D01*
X139941Y182651D01*
X139941Y180816D01*
X139768Y180169D01*
X139433Y179590D01*
X138960Y179117D01*
X138381Y178782D01*
X137734Y178609D01*
X127899Y178609D01*
X127899Y182651D01*
G37*
%LPD*%
%LPC*%
G36*
X229499Y169951D02*
X229499Y169951D01*
X241541Y169951D01*
X241541Y168116D01*
X241368Y167469D01*
X241033Y166890D01*
X240560Y166417D01*
X239981Y166082D01*
X239334Y165909D01*
X229499Y165909D01*
X229499Y169951D01*
G37*
%LPD*%
%LPC*%
G36*
X127899Y169951D02*
X127899Y169951D01*
X139941Y169951D01*
X139941Y168116D01*
X139768Y167469D01*
X139433Y166890D01*
X138960Y166417D01*
X138381Y166082D01*
X137734Y165909D01*
X127899Y165909D01*
X127899Y169951D01*
G37*
%LPD*%
%LPC*%
G36*
X115066Y178609D02*
X115066Y178609D01*
X114419Y178782D01*
X113840Y179117D01*
X113367Y179590D01*
X113032Y180169D01*
X112859Y180816D01*
X112859Y182651D01*
X124901Y182651D01*
X124901Y178609D01*
X115066Y178609D01*
G37*
%LPD*%
%LPC*%
G36*
X115066Y165909D02*
X115066Y165909D01*
X114419Y166082D01*
X113840Y166417D01*
X113367Y166890D01*
X113032Y167469D01*
X112859Y168116D01*
X112859Y169951D01*
X124901Y169951D01*
X124901Y165909D01*
X115066Y165909D01*
G37*
%LPD*%
%LPC*%
G36*
X216666Y165909D02*
X216666Y165909D01*
X216019Y166082D01*
X215440Y166417D01*
X214967Y166890D01*
X214632Y167469D01*
X214459Y168116D01*
X214459Y169951D01*
X226501Y169951D01*
X226501Y165909D01*
X216666Y165909D01*
G37*
%LPD*%
%LPC*%
G36*
X92624Y411374D02*
X92624Y411374D01*
X92624Y415626D01*
X103041Y415626D01*
X103041Y414165D01*
X102915Y413697D01*
X102904Y413583D01*
X102890Y413469D01*
X102891Y413459D01*
X102891Y413452D01*
X102896Y413431D01*
X102915Y413303D01*
X103041Y412834D01*
X103041Y411374D01*
X92624Y411374D01*
G37*
%LPD*%
%LPC*%
G36*
X79959Y411374D02*
X79959Y411374D01*
X79959Y412834D01*
X80085Y413303D01*
X80096Y413417D01*
X80110Y413531D01*
X80109Y413541D01*
X80109Y413548D01*
X80104Y413569D01*
X80085Y413697D01*
X79959Y414165D01*
X79959Y415626D01*
X90376Y415626D01*
X90376Y411374D01*
X79959Y411374D01*
G37*
%LPD*%
%LPC*%
G36*
X92624Y417874D02*
X92624Y417874D01*
X92624Y421541D01*
X100834Y421541D01*
X101481Y421368D01*
X102060Y421033D01*
X102533Y420560D01*
X102868Y419981D01*
X103041Y419334D01*
X103041Y417874D01*
X92624Y417874D01*
G37*
%LPD*%
%LPC*%
G36*
X79959Y417874D02*
X79959Y417874D01*
X79959Y419334D01*
X80132Y419981D01*
X80467Y420560D01*
X80940Y421033D01*
X81519Y421368D01*
X82166Y421541D01*
X90376Y421541D01*
X90376Y417874D01*
X79959Y417874D01*
G37*
%LPD*%
%LPC*%
G36*
X156463Y42925D02*
X156463Y42925D01*
X156463Y47880D01*
X159719Y47880D01*
X160366Y47707D01*
X160945Y47372D01*
X161418Y46899D01*
X161753Y46320D01*
X161926Y45673D01*
X161926Y42925D01*
X156463Y42925D01*
G37*
%LPD*%
%LPC*%
G36*
X354583Y61721D02*
X354583Y61721D01*
X354583Y66676D01*
X357840Y66676D01*
X358486Y66503D01*
X359065Y66168D01*
X359538Y65695D01*
X359873Y65116D01*
X360046Y64469D01*
X360046Y61721D01*
X354583Y61721D01*
G37*
%LPD*%
%LPC*%
G36*
X147954Y42925D02*
X147954Y42925D01*
X147954Y45673D01*
X148127Y46320D01*
X148462Y46899D01*
X148935Y47372D01*
X149514Y47707D01*
X150161Y47880D01*
X153417Y47880D01*
X153417Y42925D01*
X147954Y42925D01*
G37*
%LPD*%
%LPC*%
G36*
X346074Y61721D02*
X346074Y61721D01*
X346074Y64469D01*
X346247Y65116D01*
X346582Y65695D01*
X347055Y66168D01*
X347634Y66503D01*
X348281Y66676D01*
X351537Y66676D01*
X351537Y61721D01*
X346074Y61721D01*
G37*
%LPD*%
%LPC*%
G36*
X354583Y53720D02*
X354583Y53720D01*
X354583Y58675D01*
X360046Y58675D01*
X360046Y55927D01*
X359873Y55280D01*
X359538Y54701D01*
X359065Y54228D01*
X358486Y53893D01*
X357839Y53720D01*
X354583Y53720D01*
G37*
%LPD*%
%LPC*%
G36*
X156463Y34924D02*
X156463Y34924D01*
X156463Y39879D01*
X161926Y39879D01*
X161926Y37131D01*
X161753Y36484D01*
X161418Y35905D01*
X160945Y35432D01*
X160366Y35097D01*
X159719Y34924D01*
X156463Y34924D01*
G37*
%LPD*%
%LPC*%
G36*
X348281Y53720D02*
X348281Y53720D01*
X347634Y53893D01*
X347055Y54228D01*
X346582Y54701D01*
X346247Y55280D01*
X346074Y55927D01*
X346074Y58675D01*
X351537Y58675D01*
X351537Y53720D01*
X348281Y53720D01*
G37*
%LPD*%
%LPC*%
G36*
X150161Y34924D02*
X150161Y34924D01*
X149514Y35097D01*
X148935Y35432D01*
X148462Y35905D01*
X148127Y36484D01*
X147954Y37131D01*
X147954Y39879D01*
X153417Y39879D01*
X153417Y34924D01*
X150161Y34924D01*
G37*
%LPD*%
%LPC*%
G36*
X279499Y406399D02*
X279499Y406399D01*
X279499Y406401D01*
X279501Y406401D01*
X279501Y406399D01*
X279499Y406399D01*
G37*
%LPD*%
%LPC*%
G36*
X177799Y444499D02*
X177799Y444499D01*
X177799Y444501D01*
X177801Y444501D01*
X177801Y444499D01*
X177799Y444499D01*
G37*
%LPD*%
%LPC*%
G36*
X279499Y304799D02*
X279499Y304799D01*
X279499Y304801D01*
X279501Y304801D01*
X279501Y304799D01*
X279499Y304799D01*
G37*
%LPD*%
%LPC*%
G36*
X279499Y355599D02*
X279499Y355599D01*
X279499Y355601D01*
X279501Y355601D01*
X279501Y355599D01*
X279499Y355599D01*
G37*
%LPD*%
%LPC*%
G36*
X279399Y558799D02*
X279399Y558799D01*
X279399Y558801D01*
X279401Y558801D01*
X279401Y558799D01*
X279399Y558799D01*
G37*
%LPD*%
%LPC*%
G36*
X353059Y60197D02*
X353059Y60197D01*
X353059Y60199D01*
X353061Y60199D01*
X353061Y60197D01*
X353059Y60197D01*
G37*
%LPD*%
%LPC*%
G36*
X154939Y41401D02*
X154939Y41401D01*
X154939Y41403D01*
X154941Y41403D01*
X154941Y41401D01*
X154939Y41401D01*
G37*
%LPD*%
D10*
X142900Y254000D03*
X161900Y254000D03*
D11*
X304800Y34800D03*
X304800Y66800D03*
D12*
X228500Y304800D03*
D13*
X279500Y304800D03*
D12*
X228500Y355600D03*
D13*
X279500Y355600D03*
D12*
X228500Y406400D03*
D13*
X279500Y406400D03*
D14*
X164340Y83820D03*
X196340Y83820D03*
D15*
X126400Y196850D03*
X178400Y196850D03*
X126400Y209550D03*
X126400Y184150D03*
X126400Y171450D03*
X178400Y209550D03*
X178400Y184150D03*
X178400Y171450D03*
X228000Y196850D03*
X280000Y196850D03*
X228000Y209550D03*
X228000Y184150D03*
X228000Y171450D03*
X280000Y209550D03*
X280000Y184150D03*
X280000Y171450D03*
D16*
X333600Y200500D03*
X333600Y195500D03*
X333600Y190500D03*
X333600Y185500D03*
X333600Y180500D03*
X377600Y180500D03*
X377600Y185500D03*
X377600Y190500D03*
X377600Y195500D03*
X377600Y200500D03*
D17*
X342900Y130200D03*
X342900Y149200D03*
X317500Y130200D03*
X317500Y149200D03*
X368300Y149200D03*
X368300Y130200D03*
X393700Y149200D03*
X393700Y130200D03*
D10*
X161900Y228600D03*
X142900Y228600D03*
X460400Y264160D03*
X479400Y264160D03*
X460400Y289560D03*
X479400Y289560D03*
X460400Y314960D03*
X479400Y314960D03*
X460400Y340360D03*
X479400Y340360D03*
X460400Y365760D03*
X479400Y365760D03*
X460400Y391160D03*
X479400Y391160D03*
X460400Y416560D03*
X479400Y416560D03*
X460400Y441960D03*
X479400Y441960D03*
X244500Y228600D03*
X263500Y228600D03*
D18*
X353060Y40894D03*
X353060Y60198D03*
X332740Y50546D03*
X154940Y60706D03*
X154940Y41402D03*
X175260Y51054D03*
D17*
X127000Y60300D03*
X127000Y41300D03*
X381000Y60300D03*
X381000Y41300D03*
X71120Y244500D03*
X71120Y263500D03*
X45720Y244500D03*
X45720Y263500D03*
X431800Y160680D03*
X431800Y179680D03*
X457200Y160680D03*
X457200Y179680D03*
D10*
X305460Y264160D03*
X324460Y264160D03*
X372720Y264160D03*
X353720Y264160D03*
D17*
X177800Y117500D03*
X177800Y136500D03*
X152400Y117500D03*
X152400Y136500D03*
X266700Y117500D03*
X266700Y136500D03*
X241300Y117500D03*
X241300Y136500D03*
D19*
X228600Y551180D02*
X228600Y566420D01*
X254000Y566420D02*
X254000Y551180D01*
X279400Y551180D02*
X279400Y566420D01*
X304800Y566420D02*
X304800Y551180D01*
X330200Y551180D02*
X330200Y566420D01*
X355600Y566420D02*
X355600Y551180D01*
X381000Y551180D02*
X381000Y566420D01*
X406400Y566420D02*
X406400Y551180D01*
X431800Y551180D02*
X431800Y566420D01*
X457200Y566420D02*
X457200Y551180D01*
X482600Y551180D02*
X482600Y566420D01*
X508000Y566420D02*
X508000Y551180D01*
D17*
X254000Y522580D03*
X254000Y503580D03*
X228600Y503580D03*
X228600Y522580D03*
D20*
X177800Y568960D03*
D21*
X177800Y518160D03*
D20*
X177800Y495300D03*
D21*
X177800Y444500D03*
D22*
X162500Y345250D03*
X162500Y351750D03*
X162500Y358250D03*
X162500Y364750D03*
X162500Y371250D03*
X162500Y377750D03*
X162500Y384250D03*
X162500Y390750D03*
X162500Y397250D03*
X162500Y403750D03*
X162500Y410250D03*
X162500Y416750D03*
X91500Y416750D03*
X91500Y410250D03*
X91500Y403750D03*
X91500Y397250D03*
X91500Y390750D03*
X91500Y384250D03*
X91500Y377750D03*
X91500Y371250D03*
X91500Y364750D03*
X91500Y358250D03*
X91500Y351750D03*
X91500Y345250D03*
X403800Y345250D03*
X403800Y351750D03*
X403800Y358250D03*
X403800Y364750D03*
X403800Y371250D03*
X403800Y377750D03*
X403800Y384250D03*
X403800Y390750D03*
X403800Y397250D03*
X403800Y403750D03*
X403800Y410250D03*
X403800Y416750D03*
X332800Y416750D03*
X332800Y410250D03*
X332800Y403750D03*
X332800Y397250D03*
X332800Y390750D03*
X332800Y384250D03*
X332800Y377750D03*
X332800Y371250D03*
X332800Y364750D03*
X332800Y358250D03*
X332800Y351750D03*
X332800Y345250D03*
D23*
X161900Y254000D02*
X161900Y228600D01*
X178400Y184150D02*
X198120Y184150D01*
X228000Y184150D01*
X187960Y228600D02*
X161900Y228600D01*
X187960Y228600D02*
X203200Y213360D01*
X203200Y189230D01*
X198120Y184150D01*
X325120Y190500D02*
X333600Y190500D01*
X314960Y200660D02*
X314960Y205740D01*
D24*
X314960Y205740D03*
D23*
X314960Y200660D02*
X325120Y190500D01*
D24*
X353060Y78740D03*
X292100Y129540D03*
X287020Y228600D03*
D23*
X307450Y403750D02*
X332800Y403750D01*
X307450Y403750D02*
X307340Y403860D01*
X332610Y416560D02*
X332800Y416750D01*
X332610Y416560D02*
X314960Y416560D01*
D24*
X101600Y304800D03*
X50800Y304800D03*
D23*
X411230Y424180D02*
X416560Y424180D01*
D24*
X431800Y436880D03*
X335280Y297180D03*
X228600Y254000D03*
X210820Y127000D03*
X203200Y167640D03*
D23*
X91500Y403750D02*
X91500Y410250D01*
X91500Y416750D01*
X91500Y421700D01*
X162500Y424120D02*
X162500Y416750D01*
X162500Y424120D02*
X162560Y424180D01*
X332740Y416810D02*
X332800Y416750D01*
X332740Y416810D02*
X332740Y424180D01*
X403800Y421580D02*
X403800Y416750D01*
X403800Y421580D02*
X403860Y421640D01*
X299720Y184150D02*
X280000Y184150D01*
X299720Y184150D02*
X321310Y184150D01*
X322660Y185500D02*
X333600Y185500D01*
X322660Y185500D02*
X321310Y184150D01*
X393700Y231140D02*
X393700Y279400D01*
X393700Y231140D02*
X391160Y228600D01*
X312420Y228600D01*
X304800Y189230D02*
X299720Y184150D01*
X304800Y220980D02*
X312420Y228600D01*
X304800Y220980D02*
X304800Y189230D01*
X393510Y345250D02*
X403800Y345250D01*
X393510Y345250D02*
X383540Y335280D01*
X383540Y289560D01*
X393700Y279400D01*
X428320Y296240D02*
X460400Y264160D01*
X403800Y351750D02*
X384770Y351750D01*
X368300Y335280D02*
X368300Y297180D01*
D24*
X368300Y297180D03*
X406400Y297180D03*
D23*
X427380Y297180D01*
X428320Y296240D01*
X384770Y351750D02*
X368300Y335280D01*
X452120Y289560D02*
X460400Y289560D01*
X424180Y317500D02*
X406400Y317500D01*
D24*
X406400Y317500D03*
X350520Y317500D03*
D23*
X350520Y342900D01*
X365870Y358250D02*
X403800Y358250D01*
X424180Y317500D02*
X452120Y289560D01*
X365870Y358250D02*
X350520Y342900D01*
X441960Y314960D02*
X460400Y314960D01*
X441960Y314960D02*
X433070Y323850D01*
X417570Y364750D02*
X403800Y364750D01*
X433070Y349250D02*
X433070Y323850D01*
X433070Y349250D02*
X417570Y364750D01*
X456590Y336550D02*
X460400Y340360D01*
X421230Y371250D02*
X403800Y371250D01*
X452120Y340360D02*
X460400Y340360D01*
X452120Y340360D02*
X421230Y371250D01*
X432510Y377750D02*
X403800Y377750D01*
X432510Y377750D02*
X444500Y365760D01*
X460400Y365760D01*
X453490Y384250D02*
X403800Y384250D01*
X453490Y384250D02*
X460400Y391160D01*
X460400Y416560D02*
X450240Y416560D01*
X424430Y390750D01*
X403800Y390750D01*
X431800Y413360D02*
X460400Y441960D01*
X415690Y397250D02*
X403800Y397250D01*
X415690Y397250D02*
X431800Y413360D01*
X280000Y196850D02*
X265430Y196850D01*
X254000Y185420D01*
X178400Y196850D02*
X158750Y196850D01*
X152400Y190500D01*
X152400Y165100D01*
X139700Y152400D01*
X27940Y190500D02*
X27940Y408940D01*
X136500Y152400D02*
X139700Y152400D01*
X136500Y152400D02*
X66040Y152400D01*
X27940Y190500D01*
X254000Y185420D02*
X254000Y165100D01*
X241300Y152400D01*
X139700Y152400D01*
X254000Y149200D02*
X266700Y136500D01*
X254000Y149200D02*
X254000Y165100D01*
X241300Y152400D02*
X241300Y136500D01*
X177800Y136500D02*
X152400Y136500D01*
X136500Y152400D01*
X132080Y513080D02*
X132080Y525780D01*
X175260Y568960D02*
X177800Y568960D01*
X175260Y568960D02*
X132080Y525780D01*
X50800Y431800D02*
X27940Y408940D01*
X50800Y431800D02*
X132080Y513080D01*
X205740Y558800D02*
X228600Y558800D01*
X205740Y558800D02*
X195580Y568960D01*
X177800Y568960D01*
X228600Y558800D02*
X228600Y522580D01*
D25*
X50800Y431800D03*
D23*
X414020Y177800D02*
X414020Y137160D01*
X406400Y129540D01*
X394360Y129540D01*
X393700Y130200D02*
X368300Y130200D01*
X393700Y130200D02*
X394360Y129540D01*
X368300Y130200D02*
X368300Y114300D01*
X355600Y101600D01*
X289560Y101600D01*
X137160Y101600D01*
X104140Y134620D02*
X88900Y134620D01*
X104140Y134620D02*
X137160Y101600D01*
D24*
X88900Y134620D03*
X88900Y177800D03*
D23*
X88900Y264160D01*
D24*
X287020Y88900D03*
D23*
X283210Y269240D02*
X309880Y295910D01*
X283210Y269240D02*
X187960Y269240D01*
D24*
X187960Y269240D03*
X116840Y269240D03*
D23*
X93980Y269240D01*
X88900Y264160D01*
X431800Y179680D02*
X457200Y179680D01*
X431800Y179680D02*
X415900Y179680D01*
X414020Y177800D01*
X324460Y264160D02*
X324460Y281940D01*
X324460Y264160D02*
X353720Y264160D01*
X71120Y263500D02*
X45720Y263500D01*
X127000Y444500D02*
X177800Y495300D01*
X127000Y444500D02*
X127000Y365760D01*
X254000Y522580D02*
X254000Y558800D01*
X177800Y495300D02*
X190500Y482600D01*
X259080Y482600D02*
X271780Y495300D01*
X271780Y515620D01*
X264820Y522580D01*
X254000Y522580D01*
X259080Y482600D02*
X190500Y482600D01*
X106490Y345250D02*
X91500Y345250D01*
X106490Y345250D02*
X127000Y365760D01*
X71120Y332740D02*
X71120Y263500D01*
X71120Y332740D02*
X83820Y345440D01*
X91310Y345440D01*
X91500Y345250D01*
X88240Y263500D02*
X71120Y263500D01*
X88240Y263500D02*
X88900Y264160D01*
X309880Y296520D02*
X324460Y281940D01*
X309880Y295910D02*
X309880Y296520D01*
X309880Y337820D01*
X317310Y345250D01*
X332800Y345250D01*
X287020Y99060D02*
X287020Y88900D01*
X287020Y99060D02*
X289560Y101600D01*
X377600Y190500D02*
X388620Y190500D01*
X401320Y177800D01*
X414020Y177800D01*
X181870Y397250D02*
X162500Y397250D01*
X181870Y397250D02*
X193040Y386080D01*
X208180Y386080D01*
X228500Y406400D01*
X178210Y390750D02*
X162500Y390750D01*
X178210Y390750D02*
X195580Y373380D01*
X210720Y373380D01*
X228500Y355600D01*
X203200Y330100D02*
X228500Y304800D01*
X203200Y330100D02*
X203200Y347980D01*
X182295Y368885D02*
X182295Y376235D01*
X174280Y384250D01*
X162500Y384250D01*
X182295Y368885D02*
X203200Y347980D01*
X325120Y457200D02*
X330200Y462280D01*
X251460Y457200D02*
X198120Y403860D01*
X251460Y457200D02*
X325120Y457200D01*
X330200Y462280D02*
X330200Y558800D01*
X198010Y403750D02*
X162500Y403750D01*
X198010Y403750D02*
X198120Y403860D01*
X233680Y469900D02*
X299720Y469900D01*
X304800Y474980D01*
X304800Y558800D01*
X174030Y410250D02*
X162500Y410250D01*
X174030Y410250D02*
X233680Y469900D01*
X142900Y228600D02*
X142900Y201320D01*
X138430Y196850D02*
X126400Y196850D01*
X138430Y196850D02*
X142900Y201320D01*
X142900Y228600D02*
X142900Y254000D01*
X142900Y333400D01*
X146050Y336550D01*
X152400Y342900D01*
X154750Y345250D01*
X162500Y345250D01*
D24*
X365760Y444782D03*
X406400Y444500D03*
D23*
X406400Y558800D01*
X365760Y444782D02*
X365760Y416560D01*
X378570Y403750D02*
X403800Y403750D01*
X378570Y403750D02*
X365760Y416560D01*
X392390Y410250D02*
X403800Y410250D01*
X381000Y421640D02*
X381000Y558800D01*
X381000Y421640D02*
X392390Y410250D01*
X350520Y416560D02*
X350520Y535940D01*
X355600Y541020D02*
X355600Y558800D01*
X355600Y541020D02*
X350520Y535940D01*
X344210Y410250D02*
X332800Y410250D01*
X344210Y410250D02*
X350520Y416560D01*
X360520Y200500D02*
X377600Y200500D01*
X360520Y200500D02*
X358140Y198120D01*
X358140Y175260D01*
X368300Y165100D01*
X368300Y149200D01*
X403000Y218280D02*
X462120Y218280D01*
X403000Y218280D02*
X385220Y200500D01*
X377600Y200500D01*
X500380Y256540D02*
X500380Y447040D01*
X431800Y515620D01*
X500380Y256540D02*
X462120Y218280D01*
X431800Y515620D02*
X431800Y558800D01*
X377600Y195500D02*
X368220Y195500D01*
X365760Y193040D01*
X365760Y175260D01*
X378460Y162560D01*
X388620Y162560D01*
X393700Y157480D01*
X393700Y149200D01*
X408080Y205660D02*
X469820Y205660D01*
X408080Y205660D02*
X397920Y195500D01*
X377600Y195500D01*
X469820Y205660D02*
X513080Y248920D01*
X513080Y454660D01*
X457200Y510540D01*
X457200Y558800D01*
X348140Y200500D02*
X333600Y200500D01*
X348140Y200500D02*
X350520Y198120D01*
X350520Y172720D01*
X342900Y165100D01*
X342900Y149200D01*
X342980Y195500D02*
X333600Y195500D01*
X342980Y195500D02*
X345440Y193040D01*
X336467Y169094D02*
X324034Y169094D01*
X345440Y178067D02*
X345440Y193040D01*
X345440Y178067D02*
X336467Y169094D01*
X317500Y162560D02*
X317500Y149200D01*
X317500Y162560D02*
X324034Y169094D01*
X240030Y196850D02*
X228000Y196850D01*
X244500Y201320D02*
X244500Y228600D01*
X244500Y201320D02*
X240030Y196850D01*
X249580Y241300D02*
X368300Y241300D01*
D24*
X368300Y241300D03*
X419100Y241300D03*
D23*
X479400Y250687D02*
X479400Y264160D01*
X479400Y250687D02*
X475467Y246754D01*
X424554Y246754D02*
X419100Y241300D01*
X424554Y246754D02*
X475467Y246754D01*
X479400Y264160D02*
X479400Y289560D01*
X479400Y314960D01*
X479400Y340360D01*
X479400Y365760D01*
X479400Y391160D01*
X479400Y416560D01*
X479400Y441960D01*
X249580Y241300D02*
X244500Y236220D01*
X244500Y228600D01*
X164340Y83820D02*
X175260Y72900D01*
X175260Y51054D01*
X304800Y34800D02*
X311660Y34800D01*
X327660Y50800D01*
X332486Y50800D01*
X332740Y50546D01*
X304800Y66800D02*
X304800Y71880D01*
X303020Y73660D01*
D24*
X215900Y88900D03*
D23*
X236220Y88900D01*
X251460Y73660D01*
X303020Y73660D01*
D24*
X198120Y43180D03*
D23*
X196340Y44960D02*
X196340Y83820D01*
X196340Y44960D02*
X198120Y43180D01*
X154534Y60300D02*
X127000Y60300D01*
X154534Y60300D02*
X154940Y60706D01*
X403860Y12700D02*
X449580Y58420D01*
X490220Y149860D02*
X490220Y185420D01*
X538480Y233680D01*
X538480Y469900D01*
X508000Y500380D01*
X104140Y50800D02*
X104140Y35560D01*
X449580Y58420D02*
X449580Y109220D01*
X490220Y149860D01*
X113640Y60300D02*
X104140Y50800D01*
X113640Y60300D02*
X127000Y60300D01*
X104140Y35560D02*
X127000Y12700D01*
X403860Y12700D01*
X508000Y500380D02*
X508000Y558800D01*
X380594Y40894D02*
X353060Y40894D01*
X380594Y40894D02*
X381000Y41300D01*
X412140Y41300D01*
X474980Y152400D02*
X474980Y190500D01*
X525780Y241300D01*
X525780Y462280D01*
X431800Y60960D02*
X412140Y41300D01*
X525780Y462280D02*
X482600Y505460D01*
X431800Y109220D02*
X431800Y60960D01*
X431800Y109220D02*
X474980Y152400D01*
X482600Y505460D02*
X482600Y558800D01*
M02*
