G04 EAGLE Gerber RS-274X export*
G75*
%MOMM*%
%FSLAX34Y34*%
%LPD*%
%IN*%
%IPPOS*%
%AMOC8*
5,1,8,0,0,1.08239X$1,22.5*%
G01*
%ADD10C,0.254000*%


D10*
X12700Y0D02*
X551180Y0D01*
X551180Y591820D01*
X12700Y591820D01*
X12700Y0D01*
X515840Y88311D02*
X515763Y87135D01*
X515609Y85966D01*
X515379Y84810D01*
X515074Y83672D01*
X514695Y82556D01*
X514244Y81467D01*
X513723Y80410D01*
X513134Y79390D01*
X512479Y78410D01*
X511762Y77475D01*
X510985Y76589D01*
X510151Y75755D01*
X509265Y74978D01*
X508330Y74261D01*
X507350Y73606D01*
X506330Y73017D01*
X505273Y72496D01*
X504184Y72045D01*
X503068Y71666D01*
X501930Y71361D01*
X500774Y71131D01*
X499605Y70977D01*
X498429Y70900D01*
X497251Y70900D01*
X496075Y70977D01*
X494906Y71131D01*
X493750Y71361D01*
X492612Y71666D01*
X491496Y72045D01*
X490407Y72496D01*
X489350Y73017D01*
X488330Y73606D01*
X487350Y74261D01*
X486415Y74978D01*
X485529Y75755D01*
X484695Y76589D01*
X483918Y77475D01*
X483201Y78410D01*
X482546Y79390D01*
X481957Y80410D01*
X481436Y81467D01*
X480985Y82556D01*
X480606Y83672D01*
X480301Y84810D01*
X480071Y85966D01*
X479917Y87135D01*
X479840Y88311D01*
X479840Y89489D01*
X479917Y90665D01*
X480071Y91834D01*
X480301Y92990D01*
X480606Y94128D01*
X480985Y95244D01*
X481436Y96333D01*
X481957Y97390D01*
X482546Y98410D01*
X483201Y99390D01*
X483918Y100325D01*
X484695Y101211D01*
X485529Y102045D01*
X486415Y102822D01*
X487350Y103539D01*
X488330Y104194D01*
X489350Y104783D01*
X490407Y105304D01*
X491496Y105755D01*
X492612Y106134D01*
X493750Y106439D01*
X494906Y106669D01*
X496075Y106823D01*
X497251Y106900D01*
X498429Y106900D01*
X499605Y106823D01*
X500774Y106669D01*
X501930Y106439D01*
X503068Y106134D01*
X504184Y105755D01*
X505273Y105304D01*
X506330Y104783D01*
X507350Y104194D01*
X508330Y103539D01*
X509265Y102822D01*
X510151Y102045D01*
X510985Y101211D01*
X511762Y100325D01*
X512479Y99390D01*
X513134Y98410D01*
X513723Y97390D01*
X514244Y96333D01*
X514695Y95244D01*
X515074Y94128D01*
X515379Y92990D01*
X515609Y91834D01*
X515763Y90665D01*
X515840Y89489D01*
X515840Y88311D01*
X94200Y88311D02*
X94123Y87135D01*
X93969Y85966D01*
X93739Y84810D01*
X93434Y83672D01*
X93055Y82556D01*
X92604Y81467D01*
X92083Y80410D01*
X91494Y79390D01*
X90839Y78410D01*
X90122Y77475D01*
X89345Y76589D01*
X88511Y75755D01*
X87625Y74978D01*
X86690Y74261D01*
X85710Y73606D01*
X84690Y73017D01*
X83633Y72496D01*
X82544Y72045D01*
X81428Y71666D01*
X80290Y71361D01*
X79134Y71131D01*
X77965Y70977D01*
X76789Y70900D01*
X75611Y70900D01*
X74435Y70977D01*
X73266Y71131D01*
X72110Y71361D01*
X70972Y71666D01*
X69856Y72045D01*
X68767Y72496D01*
X67710Y73017D01*
X66690Y73606D01*
X65710Y74261D01*
X64775Y74978D01*
X63889Y75755D01*
X63055Y76589D01*
X62278Y77475D01*
X61561Y78410D01*
X60906Y79390D01*
X60317Y80410D01*
X59796Y81467D01*
X59345Y82556D01*
X58966Y83672D01*
X58661Y84810D01*
X58431Y85966D01*
X58277Y87135D01*
X58200Y88311D01*
X58200Y89489D01*
X58277Y90665D01*
X58431Y91834D01*
X58661Y92990D01*
X58966Y94128D01*
X59345Y95244D01*
X59796Y96333D01*
X60317Y97390D01*
X60906Y98410D01*
X61561Y99390D01*
X62278Y100325D01*
X63055Y101211D01*
X63889Y102045D01*
X64775Y102822D01*
X65710Y103539D01*
X66690Y104194D01*
X67710Y104783D01*
X68767Y105304D01*
X69856Y105755D01*
X70972Y106134D01*
X72110Y106439D01*
X73266Y106669D01*
X74435Y106823D01*
X75611Y106900D01*
X76789Y106900D01*
X77965Y106823D01*
X79134Y106669D01*
X80290Y106439D01*
X81428Y106134D01*
X82544Y105755D01*
X83633Y105304D01*
X84690Y104783D01*
X85710Y104194D01*
X86690Y103539D01*
X87625Y102822D01*
X88511Y102045D01*
X89345Y101211D01*
X90122Y100325D01*
X90839Y99390D01*
X91494Y98410D01*
X92083Y97390D01*
X92604Y96333D01*
X93055Y95244D01*
X93434Y94128D01*
X93739Y92990D01*
X93969Y91834D01*
X94123Y90665D01*
X94200Y89489D01*
X94200Y88311D01*
X94200Y535351D02*
X94123Y534175D01*
X93969Y533006D01*
X93739Y531850D01*
X93434Y530712D01*
X93055Y529596D01*
X92604Y528507D01*
X92083Y527450D01*
X91494Y526430D01*
X90839Y525450D01*
X90122Y524515D01*
X89345Y523629D01*
X88511Y522795D01*
X87625Y522018D01*
X86690Y521301D01*
X85710Y520646D01*
X84690Y520057D01*
X83633Y519536D01*
X82544Y519085D01*
X81428Y518706D01*
X80290Y518401D01*
X79134Y518171D01*
X77965Y518017D01*
X76789Y517940D01*
X75611Y517940D01*
X74435Y518017D01*
X73266Y518171D01*
X72110Y518401D01*
X70972Y518706D01*
X69856Y519085D01*
X68767Y519536D01*
X67710Y520057D01*
X66690Y520646D01*
X65710Y521301D01*
X64775Y522018D01*
X63889Y522795D01*
X63055Y523629D01*
X62278Y524515D01*
X61561Y525450D01*
X60906Y526430D01*
X60317Y527450D01*
X59796Y528507D01*
X59345Y529596D01*
X58966Y530712D01*
X58661Y531850D01*
X58431Y533006D01*
X58277Y534175D01*
X58200Y535351D01*
X58200Y536529D01*
X58277Y537705D01*
X58431Y538874D01*
X58661Y540030D01*
X58966Y541168D01*
X59345Y542284D01*
X59796Y543373D01*
X60317Y544430D01*
X60906Y545450D01*
X61561Y546430D01*
X62278Y547365D01*
X63055Y548251D01*
X63889Y549085D01*
X64775Y549862D01*
X65710Y550579D01*
X66690Y551234D01*
X67710Y551823D01*
X68767Y552344D01*
X69856Y552795D01*
X70972Y553174D01*
X72110Y553479D01*
X73266Y553709D01*
X74435Y553863D01*
X75611Y553940D01*
X76789Y553940D01*
X77965Y553863D01*
X79134Y553709D01*
X80290Y553479D01*
X81428Y553174D01*
X82544Y552795D01*
X83633Y552344D01*
X84690Y551823D01*
X85710Y551234D01*
X86690Y550579D01*
X87625Y549862D01*
X88511Y549085D01*
X89345Y548251D01*
X90122Y547365D01*
X90839Y546430D01*
X91494Y545450D01*
X92083Y544430D01*
X92604Y543373D01*
X93055Y542284D01*
X93434Y541168D01*
X93739Y540030D01*
X93969Y538874D01*
X94123Y537705D01*
X94200Y536529D01*
X94200Y535351D01*
M02*
