G04 EAGLE Gerber RS-274X export*
G75*
%MOMM*%
%FSLAX34Y34*%
%LPD*%
%INSolderpaste Top*%
%IPPOS*%
%AMOC8*
5,1,8,0,0,1.08239X$1,22.5*%
G01*
%ADD10R,1.300000X1.500000*%
%ADD11R,1.270000X1.120000*%
%ADD12R,2.200000X0.600000*%
%ADD13R,1.950000X0.650000*%
%ADD14R,1.400000X0.300000*%
%ADD15R,1.500000X1.300000*%
%ADD16R,0.889000X0.787400*%


D10*
X142900Y254000D03*
X161900Y254000D03*
D11*
X304800Y34800D03*
X304800Y66800D03*
X203200Y34800D03*
X203200Y66800D03*
D12*
X126400Y196850D03*
X178400Y196850D03*
X126400Y209550D03*
X126400Y184150D03*
X126400Y171450D03*
X178400Y209550D03*
X178400Y184150D03*
X178400Y171450D03*
X228000Y196850D03*
X280000Y196850D03*
X228000Y209550D03*
X228000Y184150D03*
X228000Y171450D03*
X280000Y209550D03*
X280000Y184150D03*
X280000Y171450D03*
D13*
X174250Y285750D03*
X174250Y298450D03*
X174250Y311150D03*
X174250Y323850D03*
X174250Y336550D03*
X174250Y349250D03*
X174250Y361950D03*
X174250Y374650D03*
X174250Y387350D03*
X174250Y400050D03*
X174250Y412750D03*
X174250Y425450D03*
X79750Y425450D03*
X79750Y412750D03*
X79750Y400050D03*
X79750Y387350D03*
X79750Y374650D03*
X79750Y361950D03*
X79750Y349250D03*
X79750Y336550D03*
X79750Y323850D03*
X79750Y311150D03*
X79750Y298450D03*
X79750Y285750D03*
X415550Y285750D03*
X415550Y298450D03*
X415550Y311150D03*
X415550Y323850D03*
X415550Y336550D03*
X415550Y349250D03*
X415550Y361950D03*
X415550Y374650D03*
X415550Y387350D03*
X415550Y400050D03*
X415550Y412750D03*
X415550Y425450D03*
X321050Y425450D03*
X321050Y412750D03*
X321050Y400050D03*
X321050Y387350D03*
X321050Y374650D03*
X321050Y361950D03*
X321050Y349250D03*
X321050Y336550D03*
X321050Y323850D03*
X321050Y311150D03*
X321050Y298450D03*
X321050Y285750D03*
D14*
X333600Y200500D03*
X333600Y195500D03*
X333600Y190500D03*
X333600Y185500D03*
X333600Y180500D03*
X377600Y180500D03*
X377600Y185500D03*
X377600Y190500D03*
X377600Y195500D03*
X377600Y200500D03*
D15*
X342900Y130200D03*
X342900Y149200D03*
X317500Y130200D03*
X317500Y149200D03*
X368300Y149200D03*
X368300Y130200D03*
X393700Y149200D03*
X393700Y130200D03*
D10*
X161900Y228600D03*
X142900Y228600D03*
X460400Y264160D03*
X479400Y264160D03*
X460400Y289560D03*
X479400Y289560D03*
X460400Y314960D03*
X479400Y314960D03*
X460400Y340360D03*
X479400Y340360D03*
X460400Y365760D03*
X479400Y365760D03*
X460400Y391160D03*
X479400Y391160D03*
X460400Y416560D03*
X479400Y416560D03*
X460400Y441960D03*
X479400Y441960D03*
X244500Y228600D03*
X263500Y228600D03*
D16*
X353060Y40894D03*
X353060Y60198D03*
X332740Y50546D03*
X154940Y60706D03*
X154940Y41402D03*
X175260Y51054D03*
D15*
X127000Y60300D03*
X127000Y41300D03*
X381000Y60300D03*
X381000Y41300D03*
X76200Y244500D03*
X76200Y263500D03*
X50800Y244500D03*
X50800Y263500D03*
X431800Y160680D03*
X431800Y179680D03*
X457200Y160680D03*
X457200Y179680D03*
D10*
X305460Y264160D03*
X324460Y264160D03*
X365100Y264160D03*
X346100Y264160D03*
D15*
X177800Y117500D03*
X177800Y136500D03*
X152400Y117500D03*
X152400Y136500D03*
X266700Y117500D03*
X266700Y136500D03*
X241300Y117500D03*
X241300Y136500D03*
X279400Y522580D03*
X279400Y503580D03*
X228600Y503580D03*
X228600Y522580D03*
M02*
