G04 EAGLE Gerber RS-274X export*
G75*
%MOMM*%
%FSLAX34Y34*%
%LPD*%
%INSoldermask Top*%
%IPPOS*%
%AMOC8*
5,1,8,0,0,1.08239X$1,22.5*%
G01*
%ADD10R,1.503200X1.703200*%
%ADD11R,1.473200X1.323200*%
%ADD12R,1.711200X1.711200*%
%ADD13C,1.711200*%
%ADD14R,2.403200X0.803200*%
%ADD15R,2.153200X0.853200*%
%ADD16R,1.603200X0.503200*%
%ADD17R,1.703200X1.503200*%
%ADD18R,1.092200X0.990600*%
%ADD19C,3.803200*%
%ADD20C,1.727200*%
%ADD21C,2.108200*%
%ADD22P,2.281895X8X292.500000*%
%ADD23C,0.959600*%


D10*
X142900Y254000D03*
X161900Y254000D03*
D11*
X304800Y34800D03*
X304800Y66800D03*
D12*
X228500Y304800D03*
D13*
X279500Y304800D03*
D12*
X228500Y355600D03*
D13*
X279500Y355600D03*
D12*
X228500Y406400D03*
D13*
X279500Y406400D03*
D11*
X203200Y34800D03*
X203200Y66800D03*
D14*
X126400Y196850D03*
X178400Y196850D03*
X126400Y209550D03*
X126400Y184150D03*
X126400Y171450D03*
X178400Y209550D03*
X178400Y184150D03*
X178400Y171450D03*
X228000Y196850D03*
X280000Y196850D03*
X228000Y209550D03*
X228000Y184150D03*
X228000Y171450D03*
X280000Y209550D03*
X280000Y184150D03*
X280000Y171450D03*
D15*
X174250Y285750D03*
X174250Y298450D03*
X174250Y311150D03*
X174250Y323850D03*
X174250Y336550D03*
X174250Y349250D03*
X174250Y361950D03*
X174250Y374650D03*
X174250Y387350D03*
X174250Y400050D03*
X174250Y412750D03*
X174250Y425450D03*
X79750Y425450D03*
X79750Y412750D03*
X79750Y400050D03*
X79750Y387350D03*
X79750Y374650D03*
X79750Y361950D03*
X79750Y349250D03*
X79750Y336550D03*
X79750Y323850D03*
X79750Y311150D03*
X79750Y298450D03*
X79750Y285750D03*
X415550Y285750D03*
X415550Y298450D03*
X415550Y311150D03*
X415550Y323850D03*
X415550Y336550D03*
X415550Y349250D03*
X415550Y361950D03*
X415550Y374650D03*
X415550Y387350D03*
X415550Y400050D03*
X415550Y412750D03*
X415550Y425450D03*
X321050Y425450D03*
X321050Y412750D03*
X321050Y400050D03*
X321050Y387350D03*
X321050Y374650D03*
X321050Y361950D03*
X321050Y349250D03*
X321050Y336550D03*
X321050Y323850D03*
X321050Y311150D03*
X321050Y298450D03*
X321050Y285750D03*
D16*
X333600Y200500D03*
X333600Y195500D03*
X333600Y190500D03*
X333600Y185500D03*
X333600Y180500D03*
X377600Y180500D03*
X377600Y185500D03*
X377600Y190500D03*
X377600Y195500D03*
X377600Y200500D03*
D17*
X342900Y130200D03*
X342900Y149200D03*
X317500Y130200D03*
X317500Y149200D03*
X368300Y149200D03*
X368300Y130200D03*
X393700Y149200D03*
X393700Y130200D03*
D10*
X161900Y228600D03*
X142900Y228600D03*
X460400Y264160D03*
X479400Y264160D03*
X460400Y289560D03*
X479400Y289560D03*
X460400Y314960D03*
X479400Y314960D03*
X460400Y340360D03*
X479400Y340360D03*
X460400Y365760D03*
X479400Y365760D03*
X460400Y391160D03*
X479400Y391160D03*
X460400Y416560D03*
X479400Y416560D03*
X460400Y441960D03*
X479400Y441960D03*
X244500Y228600D03*
X263500Y228600D03*
D18*
X353060Y40894D03*
X353060Y60198D03*
X332740Y50546D03*
X154940Y60706D03*
X154940Y41402D03*
X175260Y51054D03*
D17*
X127000Y60300D03*
X127000Y41300D03*
X381000Y60300D03*
X381000Y41300D03*
X76200Y244500D03*
X76200Y263500D03*
X50800Y244500D03*
X50800Y263500D03*
X431800Y160680D03*
X431800Y179680D03*
X457200Y160680D03*
X457200Y179680D03*
D10*
X305460Y264160D03*
X324460Y264160D03*
X365100Y264160D03*
X346100Y264160D03*
D17*
X177800Y117500D03*
X177800Y136500D03*
X152400Y117500D03*
X152400Y136500D03*
X266700Y117500D03*
X266700Y136500D03*
X241300Y117500D03*
X241300Y136500D03*
D19*
X497840Y88900D03*
X76200Y88900D03*
X76200Y535940D03*
D20*
X228600Y551180D02*
X228600Y566420D01*
X254000Y566420D02*
X254000Y551180D01*
X279400Y551180D02*
X279400Y566420D01*
X304800Y566420D02*
X304800Y551180D01*
X330200Y551180D02*
X330200Y566420D01*
X355600Y566420D02*
X355600Y551180D01*
X381000Y551180D02*
X381000Y566420D01*
X406400Y566420D02*
X406400Y551180D01*
X431800Y551180D02*
X431800Y566420D01*
X457200Y566420D02*
X457200Y551180D01*
X482600Y551180D02*
X482600Y566420D01*
X508000Y566420D02*
X508000Y551180D01*
D17*
X254000Y522580D03*
X254000Y503580D03*
X228600Y503580D03*
X228600Y522580D03*
D21*
X177800Y568960D03*
D22*
X177800Y518160D03*
D21*
X177800Y495300D03*
D22*
X177800Y444500D03*
D23*
X88900Y139700D03*
X88900Y165100D03*
X269240Y88900D03*
X152400Y269240D03*
X132080Y269240D03*
X370840Y444782D03*
X391160Y444500D03*
X381000Y246380D03*
X406400Y246380D03*
X254000Y76200D03*
X220980Y43180D03*
M02*
