M48
;GenerationSoftware,Autodesk,EAGLE,9.5.1*%
;CreationDate,2021-08-16T17:26:46Z*%
FMAT,2
ICI,OFF
METRIC,TZ,000.000
T5C0.350
T4C0.813
T3C1.000
T2C1.016
T1C3.600
%
G90
M71
T1
X49784Y8890
X7620Y8890
X7620Y53594
T2
X43180Y55880
X40640Y55880
X38100Y55880
X35560Y55880
X33020Y55880
X30480Y55880
X27940Y55880
X25400Y55880
X22860Y55880
X45720Y55880
X48260Y55880
X50800Y55880
T3
X22850Y40640
X27950Y40640
X22850Y30480
X27950Y30480
X22850Y35560
X27950Y35560
T4
X17780Y44450
X17780Y56896
X17780Y51816
X17780Y49530
T5
X13208Y26924
X15240Y26924
X26924Y8890
X8890Y16510
X22098Y4318
X25400Y7620
X40640Y24638
X38100Y24638
X39116Y44450
X37084Y44478
X8890Y13970
M30