M48
;GenerationSoftware,Autodesk,EAGLE,9.5.1*%
;CreationDate,2021-08-25T19:28:33Z*%
FMAT,2
ICI,OFF
METRIC,TZ,000.000
T5C0.813
T4C0.850
T3C1.000
T2C1.016
T1C3.600
%
G90
M71
T1
X49784Y8890
X7620Y8890
X7620Y53594
T2
X45720Y55880
X22860Y55880
X25400Y55880
X27940Y55880
X30480Y55880
X33020Y55880
X35560Y55880
X38100Y55880
X40640Y55880
X43180Y55880
X48260Y55880
X50800Y55880
T3
X22850Y35560
X22850Y30480
X27950Y30480
X27950Y35560
X22850Y40640
X27950Y40640
T4
X40640Y44450
X36830Y24130
X41910Y24130
X21590Y8890
X43180Y43688
X31496Y20574
X35306Y7874
X29210Y12954
X28702Y22860
X10160Y30480
X19812Y4318
X5080Y30480
X33528Y29718
X22860Y25400
X21082Y12700
X20320Y16764
X36830Y29718
X40640Y29718
X40640Y31750
X35052Y31750
X8890Y13462
X8890Y17780
X28702Y8890
X11684Y26924
X18796Y26924
X36576Y44478
T5
X17780Y56896
X17780Y51816
X17780Y49530
X17780Y44450
M30